<svg id="Layer_1" data-name="Layer 1" xmlns="http://www.w3.org/2000/svg" viewBox="0 0 512 512"><defs><style>.cls-1{fill:#fff;}.cls-2{fill:#6a4c93;}.cls-3{fill:#8ac926;}.cls-4{fill:#3590f3;}.cls-5{fill:#ff595e;}.cls-6{fill:#2d1e2f;}</style></defs><title>agende-uma-visita</title><path class="cls-1" d="M446,444.12V470a28,28,0,0,0,28,28h0a28,28,0,0,0,28-28V90a40,40,0,0,0-40-40H83.82a40,40,0,0,0-40,40V444.12Z"/><path class="cls-2" d="M446,470V444.12H10V470a28,28,0,0,0,28,28H474A28,28,0,0,1,446,470Z"/><path class="cls-3" d="M501.5,133H44.5V90a40,40,0,0,1,40-40h377a40,40,0,0,1,40,40Z"/><path class="cls-4" d="M226.24,366h0a28,28,0,0,1-28-28h0a28,28,0,0,1,28-28h0a28,28,0,0,1,28,28h0A28,28,0,0,1,226.24,366Z"/><path class="cls-4" d="M319.58,366h0a28,28,0,0,1-28-28h0a28,28,0,0,1,28-28h0a28,28,0,0,1,28,28h0A28,28,0,0,1,319.58,366Z"/><path class="cls-5" d="M412.91,366h0a28,28,0,0,1-28-28h0a28,28,0,0,1,28-28h0a28,28,0,0,1,28,28h0A28,28,0,0,1,412.91,366Z"/><path class="cls-4" d="M132.91,262h0a28,28,0,0,1-28-28h0a28,28,0,0,1,28-28h0a28,28,0,0,1,28,28h0A28,28,0,0,1,132.91,262Z"/><path class="cls-4" d="M319.58,262h0a28,28,0,0,1-28-28h0a28,28,0,0,1,28-28h0a28,28,0,0,1,28,28h0A28,28,0,0,1,319.58,262Z"/><path class="cls-4" d="M226.24,262h0a28,28,0,0,1-28-28h0a28,28,0,0,1,28-28h0a28,28,0,0,1,28,28h0A28,28,0,0,1,226.24,262Z"/><path class="cls-5" d="M412.91,262h0a28,28,0,0,1-28-28h0a28,28,0,0,1,28-28h0a28,28,0,0,1,28,28h0A28,28,0,0,1,412.91,262Z"/><circle class="cls-5" cx="90.48" cy="372" r="72"/><path class="cls-1" d="M156.33,92.5a20,20,0,0,1-20-20V26a20,20,0,0,1,40,0V72.5A20,20,0,0,1,156.33,92.5Z"/><path class="cls-1" d="M384.33,92.5a20,20,0,0,1-20-20V26a20,20,0,0,1,40,0V72.5A20,20,0,0,1,384.33,92.5Z"/><path class="cls-6" d="M462,40H414.33V26a30,30,0,0,0-60,0V40h-168V26a30,30,0,1,0-60,0V40.37a9.76,9.76,0,0,0-2.66-.37H83.82a50.06,50.06,0,0,0-50,50V260.33a10,10,0,0,0,20,0V143H414.33a10,10,0,0,0,0-20H53.82V90a30,30,0,0,1,30-30h39.85a10.17,10.17,0,0,0,2.66-.37V72.5a30,30,0,1,0,60,0V60h168V72.5a30,30,0,0,0,60,0V60H462a30,30,0,0,1,30,30V470a18,18,0,1,1-36,0V444.12a10,10,0,0,0-10-10H329.67a10,10,0,1,0,0,20H436V470a37.86,37.86,0,0,0,4.54,18H38a18,18,0,0,1-18-18V454.12H243.82a10,10,0,1,0,0-20H143.91a82,82,0,1,0-106.86,0H10a10,10,0,0,0-10,10V470a38,38,0,0,0,38,38H474a38.05,38.05,0,0,0,38-38V90A50.06,50.06,0,0,0,462,40ZM166.33,72.5a10,10,0,0,1-20,0V26a10,10,0,0,1,20,0Zm228,0a10,10,0,0,1-20,0V26a10,10,0,0,1,20,0ZM28.48,372a62,62,0,1,1,62,62A62.07,62.07,0,0,1,28.48,372Z"/><path class="cls-6" d="M461.24,143a10,10,0,1,0-7.07-2.93A10.08,10.08,0,0,0,461.24,143Z"/><path class="cls-6" d="M284.51,437.05a10,10,0,1,0,7.07-2.92A10.09,10.09,0,0,0,284.51,437.05Z"/><path class="cls-6" d="M226.24,376a38,38,0,1,0-38-38A38,38,0,0,0,226.24,376Zm0-56a18,18,0,1,1-18,18A18,18,0,0,1,226.24,320Z"/><path class="cls-6" d="M319.58,376a38,38,0,1,0-38-38A38,38,0,0,0,319.58,376Zm0-56a18,18,0,1,1-18,18A18,18,0,0,1,319.58,320Z"/><path class="cls-6" d="M412.91,376a38,38,0,1,0-38-38A38,38,0,0,0,412.91,376Zm0-56a18,18,0,1,1-18,18A18,18,0,0,1,412.91,320Z"/><path class="cls-6" d="M170.91,234a38,38,0,1,0-38,38A38,38,0,0,0,170.91,234Zm-56,0a18,18,0,1,1,18,18A18,18,0,0,1,114.91,234Z"/><path class="cls-6" d="M319.58,272a38,38,0,1,0-38-38A38,38,0,0,0,319.58,272Zm0-56a18,18,0,1,1-18,18A18,18,0,0,1,319.58,216Z"/><path class="cls-6" d="M412.91,272a38,38,0,1,0-38-38A38,38,0,0,0,412.91,272Zm0-56a18,18,0,1,1-18,18A18,18,0,0,1,412.91,216Z"/><path class="cls-6" d="M226.24,272a38,38,0,1,0-38-38A38,38,0,0,0,226.24,272Zm0-56a18,18,0,1,1-18,18A18,18,0,0,1,226.24,216Z"/><path class="cls-6" d="M72.32,401.41a10,10,0,0,0,14.15,0l39.63-39.64A10,10,0,1,0,112,347.63L79.39,380.2,68.27,369.07a10,10,0,1,0-14.15,14.14Z"/></svg>