<svg id="Layer_1" data-name="Layer 1" xmlns="http://www.w3.org/2000/svg" viewBox="0 0 512 512"><defs><style>.cls-1{fill:#87461a;}.cls-2{fill:#773b12;}.cls-3{fill:#efe8ce;}.cls-4{fill:#e2dab5;}.cls-5{fill:#faf7e6;}.cls-6{fill:#dd3a3a;}.cls-7{fill:#c92b2b;}.cls-8{fill:#72350c;}.cls-9{fill:#2d1e2f;}</style></defs><title>atelie</title><path class="cls-1" d="M348,424.57v37.94a41.91,41.91,0,0,1-41.91,41.91H253.32a41.92,41.92,0,0,1-41.93-41.91V424.57Z"/><path class="cls-2" d="M256.7,492.17v-8.71a29.22,29.22,0,0,1,29.22-29.22H348V424.57H211.39v37.94a41.91,41.91,0,0,0,41.92,41.91h5.22A41.6,41.6,0,0,1,256.7,492.17Z"/><path class="cls-3" d="M149.36,296.71A14.23,14.23,0,0,1,139.3,321H28.54a14.23,14.23,0,1,1,0-28.46h7.27a27.47,27.47,0,1,1,49.8-21.14,19.41,19.41,0,0,1,32.65,14.21,19.57,19.57,0,0,1-1.29,6.94H139.3A14.1,14.1,0,0,1,149.36,296.71Z"/><path class="cls-4" d="M63.58,306.77a14.23,14.23,0,0,1,14.23-14.23h7.27a27.45,27.45,0,0,1-1.62-27.12,27.46,27.46,0,1,0-47.65,27.12H28.54a14.23,14.23,0,0,0,0,28.46H77.81a14.24,14.24,0,0,1-14.23-14.23Z"/><path class="cls-3" d="M494.93,277.26a9.26,9.26,0,0,1-6.55,15.81h-72.1a9.26,9.26,0,0,1,0-18.52H421a17.89,17.89,0,1,1,32.42-13.77,12.63,12.63,0,0,1,20.41,13.77h14.54A9.24,9.24,0,0,1,494.93,277.26Z"/><path class="cls-4" d="M441.43,283.81a9.26,9.26,0,0,1,9.26-9.26h4.73A17.76,17.76,0,0,1,453.21,260,17.88,17.88,0,1,0,421,274.55h-4.73a9.26,9.26,0,1,0,0,18.52h34.41a9.25,9.25,0,0,1-9.26-9.26Z"/><path class="cls-5" d="M427,154.47a146.65,146.65,0,0,1-59,117.66,11.69,11.69,0,0,0-4.74,9.35V323H196.88V281.47a11.67,11.67,0,0,0-4.71-9.32,146.64,146.64,0,0,1-59-119.31C134.06,73.1,199.27,8.15,279,7.58A146.91,146.91,0,0,1,427,154.47Z"/><path class="cls-4" d="M319.11,272.15a146.61,146.61,0,0,1-59-119.31C260.76,95.35,294.82,45.56,343.67,22A146.38,146.38,0,0,0,279,7.58c-79.75.57-145,65.52-145.82,145.26a146.64,146.64,0,0,0,59,119.31,11.67,11.67,0,0,1,4.71,9.32V323H323.82V281.47A11.67,11.67,0,0,0,319.11,272.15Z"/><path class="cls-6" d="M352.07,154.47c0,48.15-11.36,90.87-28.9,117.66a17.75,17.75,0,0,0-2.32,9.35V316H239.29V281.47a17.66,17.66,0,0,0-2.31-9.32c-17.74-27.09-29.16-70.48-28.9-119.31C208.51,73.1,240.47,8.15,279.56,7.58,319.56,7,352.07,73,352.07,154.47Z"/><path class="cls-7" d="M319.11,272.15a146.72,146.72,0,0,1,2.8-237.23c-11.68-17-26-27.14-41.4-27.33h-1c-39,.66-71,65.56-71.39,145.25-.26,48.83,11.16,92.22,28.91,119.31a17.66,17.66,0,0,1,2.31,9.32V316h81.55V281.48a20.76,20.76,0,0,1,1-6.46A12.14,12.14,0,0,0,319.11,272.15Z"/><path class="cls-6" d="M363.54,309a13.3,13.3,0,1,1,0,26.6H195.83a13.3,13.3,0,1,1,0-26.6Z"/><path class="cls-8" d="M341.61,414.66a10.46,10.46,0,1,1,0,20.92H217.76a10.46,10.46,0,0,1,0-20.92Z"/><path class="cls-9" d="M139.3,285H125.75a26.91,26.91,0,0,0-36.4-24.63,35,35,0,0,0-65.49,17.15,35.24,35.24,0,0,0,.88,7.82,21.76,21.76,0,0,0-17.93,21.4A21.73,21.73,0,0,0,28.54,328.5H139.3a21.73,21.73,0,0,0,0-43.46Zm0,28.46H28.54a6.74,6.74,0,0,1-6.73-6.72,6.74,6.74,0,0,1,6.73-6.73h7.27a7.5,7.5,0,0,0,6.28-11.6A20,20,0,1,1,78.3,273.08a7.5,7.5,0,0,0,12.42,3.81,11.9,11.9,0,0,1,19.23,13A7.5,7.5,0,0,0,117,300H139.3a6.74,6.74,0,0,1,6.72,6.73A6.74,6.74,0,0,1,139.3,313.5Z"/><path class="cls-9" d="M505.14,283.81a16.75,16.75,0,0,0-16.76-16.76H482A20.17,20.17,0,0,0,462,249.89a20.41,20.41,0,0,0-5,.63,25.41,25.41,0,0,0-46.41,14.27,25.86,25.86,0,0,0,.19,3.18,16.76,16.76,0,0,0,5.47,32.61h72.1A16.8,16.8,0,0,0,505.14,283.81Zm-90.09,1.26a1.76,1.76,0,0,1,1.23-3H421a7.49,7.49,0,0,0,6.29-11.57,10.39,10.39,0,1,1,18.82-8,7.51,7.51,0,0,0,12.42,3.82,5,5,0,0,1,3.5-1.39,5.14,5.14,0,0,1,5.14,5.14,5.08,5.08,0,0,1-.34,1.84,7.49,7.49,0,0,0,7,10.18h14.54a1.7,1.7,0,0,1,1.23.5,1.76,1.76,0,0,1-1.23,3h-72.1A1.73,1.73,0,0,1,415.05,285.07Z"/><path class="cls-9" d="M34.12,139.34h68a7.51,7.51,0,0,0,0-15h-68a7.51,7.51,0,0,0,0,15Z"/><path class="cls-9" d="M102.12,201.58H59.6a7.5,7.5,0,1,0,0,15h42.52a7.5,7.5,0,1,0,0-15Z"/><path class="cls-9" d="M50,428.07H7.5a7.5,7.5,0,0,0,0,15H50a7.5,7.5,0,0,0,0-15Z"/><path class="cls-9" d="M504.5,349.5H438.94a7.5,7.5,0,0,0,0,15H504.5a7.5,7.5,0,0,0,0-15Z"/><path class="cls-9" d="M388.86,44.92A153.49,153.49,0,0,0,279.8.09H279A154.45,154.45,0,0,0,142.21,224a155.77,155.77,0,0,0,45.45,54.12,4.16,4.16,0,0,1,1.72,3.32v21.1a20.78,20.78,0,0,0,3.19,40.28l33.23,64.31h-8a17.95,17.95,0,0,0-13.87,29.34v26a49.48,49.48,0,0,0,49.42,49.42h52.76a49.47,49.47,0,0,0,49.41-49.42v-26a18,18,0,0,0-13.87-29.37h-7.26l33.29-64.43a20.79,20.79,0,0,0,3.13-39.88V281.48a4.25,4.25,0,0,1,1.74-3.35,155.83,155.83,0,0,0,45.07-53.4A154.45,154.45,0,0,0,388.86,44.92Zm-248.16,108c.66-61.77,42.38-114.39,98.89-131.76-23.23,26.38-38.7,75-39,131.64-.26,48.83,10.73,93.83,30.13,123.47a10.5,10.5,0,0,1,1.08,5.2v20.06H204.38V281.47a19.31,19.31,0,0,0-7.72-15.33A140,140,0,0,1,140.7,152.92Zm68.9,190.22h34.9l11.1,60.66H241ZM340.48,462.51a34.45,34.45,0,0,1-34.41,34.41H253.32a34.46,34.46,0,0,1-34.43-34.41V443.08H340.48v19.43Zm1.13-40.35a3,3,0,1,1,0,5.91H217.76a3,3,0,0,1-2.95-3,3,3,0,0,1,2.95-2.95Zm-81.86-79H300.4L289.3,403.8H270.85ZM319.2,403.8H304.55l11.1-60.66h34.9Zm48.46-77.37a5.79,5.79,0,0,1-4.12,1.71H195.83a5.8,5.8,0,1,1,0-11.6H363.54a5.81,5.81,0,0,1,5.81,5.8A5.74,5.74,0,0,1,367.66,326.43Zm-4.13-60.31a19.29,19.29,0,0,0-7.76,15.36v20H328.35v-20a10.54,10.54,0,0,1,1.1-5.24c16-24.45,26.3-59.49,29.24-98.46a7.51,7.51,0,0,0-7.5-8.05h0a7.51,7.51,0,0,0-7.48,7C340.9,212.89,331.32,246,316.9,268a24.81,24.81,0,0,0-3.55,13.46v20H246.8V281.47A24.77,24.77,0,0,0,243.26,268c-17.57-26.83-27.92-69.88-27.68-115.16.4-74.19,29.75-137.3,64.09-137.8,9.05-.13,17.95,4,26.42,12.39,19.66,19.38,33.45,57.7,37.35,101.57a7.52,7.52,0,0,0,7.48,6.88h0a7.53,7.53,0,0,0,7.49-8.21C354.49,82.89,340.82,43.9,320.62,21a139.44,139.44,0,0,1,42.91,245.08Z"/></svg>