<svg id="Layer_1" data-name="Layer 1" xmlns="http://www.w3.org/2000/svg" viewBox="0 0 512 512"><defs><style>.cls-1{fill:#ff595e;}.cls-2,.cls-4{fill:#2d1e2f;}.cls-2{opacity:0.1;isolation:isolate;}.cls-3{fill:#fff;}</style></defs><title>cancel</title><path class="cls-1" d="M256,503.67c136.79,0,247.67-110.89,247.67-247.67S392.79,8.33,256,8.33,8.33,119.21,8.33,256,119.22,503.67,256,503.67Z"/><path class="cls-2" d="M75,256C75,130.52,168.29,26.84,289.32,10.57A249.18,249.18,0,0,0,256,8.33C119.22,8.33,8.33,119.21,8.33,256S119.22,503.67,256,503.67a249.18,249.18,0,0,0,33.32-2.24C168.29,485.16,75,381.49,75,256Z"/><path class="cls-3" d="M311.53,256l65.2-65.2a12.14,12.14,0,0,0,0-17.17l-38.36-38.36a12.13,12.13,0,0,0-17.16,0L256,200.48l-65.2-65.21a12.14,12.14,0,0,0-17.17,0l-38.36,38.36a12.14,12.14,0,0,0,0,17.17L200.48,256l-65.21,65.21a12.13,12.13,0,0,0,0,17.16l38.36,38.36a12.14,12.14,0,0,0,17.17,0l65.2-65.2,65.21,65.2a12.13,12.13,0,0,0,17.16,0l38.36-38.36a12.13,12.13,0,0,0,0-17.16Z"/><path class="cls-4" d="M388.61,182.21a20.32,20.32,0,0,0-6-14.47l-38.36-38.36a20.47,20.47,0,0,0-28.94,0L256,188.7l-59.31-59.32a20.48,20.48,0,0,0-28.95,0l-38.36,38.36a20.48,20.48,0,0,0,0,28.94L188.7,256l-59.32,59.32a20.48,20.48,0,0,0,0,28.94l38.36,38.36a20.48,20.48,0,0,0,28.95,0L256,323.3l59.32,59.32a20.47,20.47,0,0,0,28.94,0l38.36-38.36a20.47,20.47,0,0,0,0-28.94L323.3,256l59.32-59.31A20.33,20.33,0,0,0,388.61,182.21Zm-17.77,2.69-65.2,65.21a8.32,8.32,0,0,0,0,11.78l65.2,65.21a3.79,3.79,0,0,1,0,5.38l-38.36,38.36a3.81,3.81,0,0,1-5.38,0l-65.21-65.21a8.33,8.33,0,0,0-11.78,0l-65.2,65.21a3.83,3.83,0,0,1-5.39,0l-38.36-38.36a3.83,3.83,0,0,1,0-5.39l65.21-65.2a8.34,8.34,0,0,0,0-11.78L141.16,184.9a3.81,3.81,0,0,1,0-5.38l38.36-38.36a3.8,3.8,0,0,1,5.39,0l65.2,65.21a8.34,8.34,0,0,0,11.78,0l65.21-65.21a3.79,3.79,0,0,1,5.38,0l38.36,38.36a3.81,3.81,0,0,1,0,5.38Z"/><path class="cls-4" d="M423.9,73.76A8.31,8.31,0,0,0,424,85.53,239.33,239.33,0,0,1,256,495.34a237.26,237.26,0,0,1-101.31-22.45A8.33,8.33,0,0,0,147.63,488,256,256,0,0,0,512,256,254.17,254.17,0,0,0,435.68,73.67,8.33,8.33,0,0,0,423.9,73.76Z"/><path class="cls-4" d="M116.34,470.56a8.27,8.27,0,0,0,4.54,1.36,8.33,8.33,0,0,0,4.56-15.31A239.35,239.35,0,1,1,399.53,64.45a8.33,8.33,0,0,0,10-13.32A256,256,0,1,0,116.34,470.56Z"/></svg>