<svg id="Layer_1" data-name="Layer 1" xmlns="http://www.w3.org/2000/svg" viewBox="0 0 512 512"><defs><style>.cls-1{fill:#c4ffb6;}.cls-2{fill:#fff;}.cls-3,.cls-4{fill:#2d1e2f;}.cls-4{opacity:0.1;isolation:isolate;}</style></defs><title>chevron</title><circle class="cls-1" cx="256" cy="256" r="246"/><polygon class="cls-2" points="126.12 318.82 234.7 318.82 234.7 396 407 256 234.7 116 234.7 193.18 126.12 193.18 126.12 318.82"/><path class="cls-3" d="M256,512A256,256,0,0,1,75,75,256,256,0,0,1,437,437,254.33,254.33,0,0,1,256,512Zm0-492C125.87,20,20,125.87,20,256S125.87,492,256,492,492,386.13,492,256,386.13,20,256,20Z"/><path class="cls-3" d="M126.44,203.18h-.32a10,10,0,0,1,0-20h.32a10,10,0,0,1,0,20Z"/><path class="cls-3" d="M234.7,406a10,10,0,0,1-10-10V328.82H126.12a10,10,0,0,1-10-10V238a10,10,0,0,1,20,0v70.82H234.7a10,10,0,0,1,10,10V375L391.15,256,244.7,137v56.17a10,10,0,0,1-10,10H168a10,10,0,0,1,0-20h56.7V116a10,10,0,0,1,16.3-7.76l172.31,140a10,10,0,0,1,0,15.52L241,403.76A10,10,0,0,1,234.7,406Z"/><path class="cls-3" d="M378.94,95.74a10,10,0,0,1-5.83-1.88l-.69-.5A10,10,0,0,1,384.1,77.12l.69.5a10,10,0,0,1-5.85,18.12Z"/><path class="cls-3" d="M466,266a10,10,0,0,1-10-10,199,199,0,0,0-56.4-139.21A10,10,0,1,1,414,102.87,218.84,218.84,0,0,1,476,256,10,10,0,0,1,466,266Z"/><path class="cls-4" d="M75,256C75,130.52,168.29,26.84,289.32,10.57A249.18,249.18,0,0,0,256,8.33C119.22,8.33,8.33,119.21,8.33,256S119.22,503.67,256,503.67a249.18,249.18,0,0,0,33.32-2.24C168.29,485.16,75,381.49,75,256Z"/></svg>