<svg id="Layer_1" data-name="Layer 1" xmlns="http://www.w3.org/2000/svg" viewBox="0 0 512 512"><defs><style>.cls-1{fill:#2d1e2f;}</style></defs><title>instagram-logo</title><g id="post-instagram"><path class="cls-1" d="M460.83,0H51.17A51.3,51.3,0,0,0,0,51.17V460.83A51.3,51.3,0,0,0,51.17,512H460.83A51.3,51.3,0,0,0,512,460.83V51.17A51.3,51.3,0,0,0,460.83,0Zm-205,153.51c56.32,0,102.34,46,102.34,102.34s-46,102.34-102.34,102.34-102.34-46-102.34-102.34S199.53,153.51,255.85,153.51Zm-192,307.32c-7.57,0-12.72-5.15-12.72-12.72V230.42h53.89c-2.42,7.56-2.42,17.86-2.42,25.73,0,84.48,69,153.51,153.51,153.51s153.51-69,153.51-153.51c0-7.57,0-17.86-2.42-25.73h53.89V448.11c0,7.57-5.14,12.72-12.71,12.72ZM460.83,115.06c0,7.57-5.15,12.71-12.72,12.71H396.64c-7.57,0-12.72-5.14-12.72-12.71V63.89c0-7.57,5.15-12.72,12.72-12.72h51.17c7.57,0,12.72,5.15,12.72,12.72v51.17Z"/></g></svg>