<svg id="Layer_1" data-name="Layer 1" xmlns="http://www.w3.org/2000/svg" viewBox="0 0 512 512"><defs><style>.cls-1{fill:#999;}.cls-2{fill:#ccc;}.cls-3{fill:#f2f2f2;}.cls-4{fill:#e6e6e6;}.cls-5{fill:gray;}.cls-6{fill:#2d1e2f;}</style></defs><title>visita-animais</title><path class="cls-1" d="M119.9,222.27l-15.18,44.49L94.63,296.32c-36.09,36.1-86.46,34.73-86.46,34.73,9.1-41,28.49-66.55,48.59-82.49C87.49,224.16,119.9,222.27,119.9,222.27Z"/><path class="cls-2" d="M503.63,331.05s-50.37,1.37-86.46-34.73l-10.08-29.53L391.9,222.27s32.34,1.88,63,26.19C475.08,264.4,494.5,290,503.63,331.05Z"/><path class="cls-3" d="M407.67,260.47c8.19,24.45,12.73,49.19,12.73,71.73a164.6,164.6,0,0,1-329.2,0c0-22.54,4.54-47.28,12.74-71.73a287.67,287.67,0,0,1,17-40.16V167.48l102.56-44.69,97.64-16.54,79.45,46.88,8.85,5.22L422,165.82l-31.35,54.46A290.62,290.62,0,0,1,407.67,260.47Z"/><path class="cls-4" d="M129.27,332.2c0-23.81,5-50.07,14.15-75.86A267,267,0,0,0,159,167.59v-.12l102.57-44.68,68.06-11.53-8.49-5-97.63,16.54L120.89,167.47v52.84c-18.71,36.39-29.68,76.8-29.68,111.89A164.58,164.58,0,0,0,255.8,496.78a166.23,166.23,0,0,0,19-1.1A164.59,164.59,0,0,1,129.27,332.2Z"/><path class="cls-5" d="M56.76,248.56c30.73-24.4,63.14-26.29,63.14-26.29l-15.18,44.49a52,52,0,0,1-8.15.64A51.35,51.35,0,0,1,56.76,248.56Z"/><path class="cls-4" d="M390.69,220.28a290.62,290.62,0,0,1,17,40.19,51.53,51.53,0,0,1-40-30.73,38.82,38.82,0,0,1-42.47-19.11A26.07,26.07,0,0,1,321,211a26.39,26.39,0,0,1-9.14-1.63,65.49,65.49,0,0,1-112.12.13,26.14,26.14,0,0,1-13.34,1.09,38.83,38.83,0,0,1-42.52,19.19,51.53,51.53,0,0,1-40,30.73,287.72,287.72,0,0,1,17-40.16V167.48l102.56-44.69,97.64-16.54,79.45,46.88a52.3,52.3,0,0,1-3.77,8.26,52,52,0,0,1,12.62-3L422,165.82Z"/><path class="cls-1" d="M454.93,248.46A51.38,51.38,0,0,1,415,267.4a52.11,52.11,0,0,1-8-.61L391.9,222.27S424.24,224.15,454.93,248.46Z"/><path class="cls-4" d="M415,123.44a51.26,51.26,0,0,0-18.27,3.35,51.48,51.48,0,0,0-76-66.32,69.27,69.27,0,0,0-129.94,0,51.48,51.48,0,0,0-76,66.32,51.48,51.48,0,1,0,29.09,68.35A38.83,38.83,0,0,0,186.44,176a26.32,26.32,0,0,0,13.33-1.1,65.49,65.49,0,0,0,112.13-.13,26.39,26.39,0,0,0,9.14,1.63,26.07,26.07,0,0,0,4.17-.33,38.82,38.82,0,0,0,42.47,19.11A51.49,51.49,0,1,0,415,123.44Z"/><path class="cls-2" d="M201.27,59.23A34.35,34.35,0,0,0,234.39,48a69.09,69.09,0,0,1,52.85-24.5c.49,0,1,0,1.45,0a69.26,69.26,0,0,0-97,34.69A51.91,51.91,0,0,1,201.27,59.23Z"/><path class="cls-2" d="M76.57,181.11a51.69,51.69,0,0,1,48.81-49.33l1.34-.05A13.79,13.79,0,0,0,140,116.13a52.65,52.65,0,0,1-.4-6.44,51.48,51.48,0,0,1,48.2-51.37,51.48,51.48,0,0,0-72.95,68.47A51.48,51.48,0,1,0,96.56,226.4c1.11,0,2.21,0,3.3-.11A51.39,51.39,0,0,1,76.57,181.11Z"/><path class="cls-6" d="M215.83,321.84v-23a8.28,8.28,0,1,0-16.55,0v23a8.28,8.28,0,0,0,16.55,0Z"/><path class="cls-6" d="M312.52,321.84v-23a8.28,8.28,0,1,0-16.55,0v23a8.28,8.28,0,0,0,16.55,0Z"/><path class="cls-6" d="M511.8,329.25c-12.55-56.47-44.17-84.81-68.48-98.64-1-.54-1.92-1.06-2.88-1.57a59.74,59.74,0,0,0-25.31-113.87c-1.66,0-3.31.06-4.95.2a60,60,0,0,0,1.66-14,8.28,8.28,0,0,0-16.55,0,43.23,43.23,0,0,1-5.62,21.29,8.27,8.27,0,0,0,10.13,11.82,43.21,43.21,0,1,1-24.41,57.37,8.28,8.28,0,0,0-9.41-4.83,30.57,30.57,0,0,1-33.44-15,8.26,8.26,0,0,0-8.54-4.17,18,18,0,0,1-9.12-.89,8.28,8.28,0,0,0-10,3.49,57.21,57.21,0,0,1-98,.11,8.28,8.28,0,0,0-9.84-3.51,17.78,17.78,0,0,1-9.15.75,8.26,8.26,0,0,0-8.67,4.16A30.61,30.61,0,0,1,152.5,187.8a30.94,30.94,0,0,1-6.68-.74,8.28,8.28,0,0,0-9.41,4.83A43.21,43.21,0,1,1,112,134.52a8.27,8.27,0,0,0,10.13-11.82,43.19,43.19,0,0,1,37.59-64.49,42.79,42.79,0,0,1,26.19,8.84,8.27,8.27,0,0,0,12.78-3.71,61,61,0,0,1,114.42,0,8.27,8.27,0,0,0,12.78,3.71,43.22,43.22,0,0,1,60.44,8A8.28,8.28,0,0,0,399.44,65a59.83,59.83,0,0,0-74.93-16.58,77.53,77.53,0,0,0-137.22,0,59.81,59.81,0,0,0-87.33,53,60,60,0,0,0,1.66,14q-2.46-.21-5-.21A59.75,59.75,0,0,0,71.48,229.09c-.93.5-1.86,1-2.8,1.52C44.37,244.44,12.75,272.77.2,329.25a8.27,8.27,0,0,0,7.85,10.06h1a142.8,142.8,0,0,0,60.51-14.89,8.27,8.27,0,1,0-7.44-14.78,128.73,128.73,0,0,1-43.07,12.49c10-34.84,29.17-60.64,57.15-76.78a120.51,120.51,0,0,1,25.17-10.88c1.34-.1,2.66-.25,4-.45C91.06,267,83,301.93,83,332.19c0,5.7.28,11.45.84,17.1a8.27,8.27,0,0,0,8.22,7.46,7.5,7.5,0,0,0,.82,0,8.27,8.27,0,0,0,7.43-9c-.51-5.11-.76-10.32-.76-15.48,0-32.48,10.1-71,27.71-105.95a59.69,59.69,0,0,0,21.47-22c1.25.1,2.5.15,3.74.15a47.14,47.14,0,0,0,38.33-19.72,35.6,35.6,0,0,0,5.36-.38,73.75,73.75,0,0,0,119.46-.06,34.92,34.92,0,0,0,5.32.44,47.17,47.17,0,0,0,38.33,19.72c1.24,0,2.49,0,3.74-.15a59.69,59.69,0,0,0,21.49,22.05c17.61,35,27.69,73.47,27.69,105.94,0,86.19-70.12,156.31-156.31,156.31a155,155,0,0,1-94.44-31.73,157.5,157.5,0,0,1-55.54-80.33,8.27,8.27,0,1,0-15.87,4.68A174.16,174.16,0,0,0,151.46,470a171.39,171.39,0,0,0,104.45,35.1c95.32,0,172.86-77.54,172.86-172.86,0-5.28-.25-10.71-.73-16.24,32.38,22.23,67.94,23.37,74.8,23.37H504a8.27,8.27,0,0,0,7.85-10.06Zm-87.18-37.33A284.18,284.18,0,0,0,406.45,234c1.4.2,2.81.36,4.23.47a120.23,120.23,0,0,1,25.1,10.85c28,16.14,47.16,41.94,57.15,76.76C477.43,320.41,447.88,314.2,424.62,291.92Z"/><circle class="cls-6" cx="282.22" cy="430.33" r="8.27"/><circle class="cls-6" cx="229.58" cy="430.33" r="8.27"/></svg>