<svg id="Layer_1" data-name="Layer 1" xmlns="http://www.w3.org/2000/svg" viewBox="0 0 512 512"><defs><style>.cls-1{fill:#1fcfc1;}.cls-2{fill:#f2f2f2;}.cls-3,.cls-4{fill:#2d1e2f;}.cls-4{opacity:0.1;isolation:isolate;}</style></defs><title>video-play</title><circle class="cls-1" cx="256" cy="256" r="245.8"/><rect class="cls-2" x="298.84" y="120.37" width="54.06" height="271.26"/><polygon class="cls-2" points="156.05 389.33 297.82 256 156.05 122.67 156.05 389.33"/><path class="cls-3" d="M437,75A256,256,0,0,0,75,437,256,256,0,0,0,437,75ZM256,491.6C126.09,491.6,20.4,385.91,20.4,256S126.09,20.4,256,20.4,491.6,126.09,491.6,256,385.91,491.6,256,491.6Z"/><path class="cls-3" d="M288.64,391.63a10.2,10.2,0,0,0,10.2,10.2h54.05a10.2,10.2,0,0,0,10.2-10.2V120.37a10.2,10.2,0,0,0-10.2-10.2H298.84a10.2,10.2,0,0,0-10.2,10.2v113L163,115.24a10.2,10.2,0,0,0-17.19,7.43V389.33a10.2,10.2,0,0,0,6.15,9.36,10.06,10.06,0,0,0,4,.84,10.26,10.26,0,0,0,7-2.77l125.6-118.13ZM166.25,365.74V146.26L282.93,256ZM309,130.57h33.65V381.43H309Z"/><path class="cls-3" d="M395.63,394.74A195.48,195.48,0,0,1,256,452.85a10.2,10.2,0,1,0,0,20.39,215.73,215.73,0,0,0,154.1-64.12,10.2,10.2,0,0,0-14.47-14.38Z"/><path class="cls-3" d="M440.18,351.22a10.2,10.2,0,0,0-13.95,3.68c-1.41,2.42-2.89,4.85-4.41,7.22a10.2,10.2,0,0,0,17.17,11c1.68-2.61,3.31-5.29,4.87-8A10.19,10.19,0,0,0,440.18,351.22Z"/><path class="cls-4" d="M75,256C75,130.52,168.29,26.84,289.32,10.57A249.18,249.18,0,0,0,256,8.33C119.22,8.33,8.33,119.21,8.33,256S119.22,503.67,256,503.67a249.18,249.18,0,0,0,33.32-2.24C168.29,485.16,75,381.49,75,256Z"/></svg>