<?xml version="1.0" encoding="utf-8"?>
<!-- Generator: Adobe Illustrator 22.1.0, SVG Export Plug-In . SVG Version: 6.00 Build 0)  -->
<svg version="1.1" id="Layer_1" xmlns="http://www.w3.org/2000/svg" xmlns:xlink="http://www.w3.org/1999/xlink" x="0px" y="0px"
	 viewBox="0 0 18.6 19.2" style="enable-background:new 0 0 18.6 19.2;" xml:space="preserve">
<style type="text/css">
	.st0{fill:#000002;}
</style>
<g>
	<path class="st0" d="M9.3,0.3C4.2,0.3,0,4.5,0,9.6s4.2,9.3,9.3,9.3s9.3-4.2,9.3-9.3S14.4,0.3,9.3,0.3z M9.3,17.8
		c-4.5,0-8.2-3.7-8.2-8.2s3.7-8.2,8.2-8.2c4.5,0,8.2,3.7,8.2,8.2S13.8,17.8,9.3,17.8z"/>
	<path class="st0" d="M11.3,9L5.9,5.4C5.7,5.3,5.6,5.3,5.4,5.3C5,5.3,4.8,5.6,4.8,6v7.2C4.8,13.6,5,14,5.4,14h0c0.1,0,0.3,0,0.4-0.1
		l5.5-3.6c0.2-0.1,0.4-0.4,0.4-0.6C11.7,9.4,11.6,9.1,11.3,9z M5.8,12.6v-6l4.6,3L5.8,12.6z"/>
	<path class="st0" d="M12.9,5.1c-0.3,0-0.5,0.2-0.5,0.5v7.9c0,0.3,0.2,0.5,0.5,0.5c0.3,0,0.5-0.2,0.5-0.5V5.6
		C13.4,5.3,13.2,5.1,12.9,5.1z"/>
</g>
</svg>
