<svg id="Layer_1" data-name="Layer 1" xmlns="http://www.w3.org/2000/svg" viewBox="0 0 512 512"><defs><style>.cls-1{fill:#ed6b00;}.cls-2{fill:#d65e05;}.cls-3{fill:#38abf9;}.cls-4{fill:#3b4c5b;}.cls-5{fill:#2a3944;}.cls-6{fill:#eaeaea;}.cls-7{fill:#ccc;}.cls-8{fill:#fec755;}.cls-9{fill:#2d1e2f;}</style></defs><title>arte</title><polygon class="cls-1" points="216.59 325.21 202.84 376.92 168.94 504.39 102.03 504.39 135.93 376.92 149.68 325.21 216.59 325.21"/><polygon class="cls-1" points="409.98 504.39 343.06 504.39 309.16 376.92 295.41 325.21 362.32 325.21 376.07 376.92 409.98 504.39"/><polygon class="cls-2" points="149.68 325.21 216.59 325.21 202.84 376.92 135.93 376.92 149.68 325.21"/><polygon class="cls-2" points="376.07 376.92 309.16 376.92 295.41 325.21 362.32 325.21 376.07 376.92"/><rect class="cls-1" x="219" y="7.6" width="74.01" height="64.15"/><rect class="cls-3" x="52.21" y="71.75" width="407.57" height="279.83"/><polygon class="cls-4" points="267.66 270.47 356.37 191.89 459.79 276.04 459.79 351.58 242.82 351.58 267.66 270.47"/><polygon class="cls-4" points="348.77 351.58 52.21 351.58 52.21 308.49 173.88 176.69 348.77 351.58"/><polygon class="cls-5" points="173.88 176.69 129.45 351.58 52.21 351.58 52.21 308.49 173.88 176.69"/><polygon class="cls-6" points="257.27 260.07 207.34 254.25 195.17 303.92 156.64 253.23 153.75 255.92 113.12 293.71 106.03 250.19 173.88 176.69 257.27 260.07"/><polygon class="cls-7" points="173.88 176.69 153.75 255.92 113.12 293.71 106.03 250.19 173.88 176.69"/><polygon class="cls-6" points="287.8 252.63 327.99 245.12 353.84 270.97 378.68 246.13 419.23 274.52 419.23 243.04 356.37 191.89 287.8 252.63"/><circle class="cls-8" cx="372.6" cy="158.94" r="45.62"/><path class="cls-9" d="M205.6,366.53a7.6,7.6,0,0,0-9.3,5.4L163.09,496.79H111.92l7.55-28.4a7.61,7.61,0,0,0-14.7-3.91l-10.09,38A7.6,7.6,0,0,0,102,512h66.92a7.61,7.61,0,0,0,7.35-5.65L211,375.84A7.61,7.61,0,0,0,205.6,366.53Z"/><path class="cls-9" d="M116.43,450.24a7.32,7.32,0,0,0,1.95.26,7.62,7.62,0,0,0,7.35-5.65l18.35-69a7.61,7.61,0,1,0-14.7-3.91l-18.35,69A7.6,7.6,0,0,0,116.43,450.24Z"/><path class="cls-9" d="M382.62,371.93a7.6,7.6,0,0,0-14.7,3.9l32.17,121H348.91L315.7,371.93a7.6,7.6,0,1,0-14.69,3.9l34.7,130.52a7.61,7.61,0,0,0,7.35,5.65H410a7.6,7.6,0,0,0,7.34-9.56Z"/><path class="cls-9" d="M459.79,64.15H402a7.6,7.6,0,1,0,0,15.2h50.18V344H59.82V79.35H376.65a7.6,7.6,0,1,0,0-15.2H52.21a7.6,7.6,0,0,0-7.6,7.6V351.58a7.6,7.6,0,0,0,7.6,7.6H459.79a7.6,7.6,0,0,0,7.6-7.6V71.75A7.6,7.6,0,0,0,459.79,64.15Z"/><path class="cls-9" d="M219,56a7.61,7.61,0,0,0,7.6-7.61V15.21h58.8V48.43a7.61,7.61,0,1,0,15.21,0V7.6A7.6,7.6,0,0,0,293,0H219a7.61,7.61,0,0,0-7.61,7.6V48.43A7.61,7.61,0,0,0,219,56Z"/><path class="cls-9" d="M173.73,169.08a7.61,7.61,0,0,0-5.44,2.45L66.68,281.61a7.6,7.6,0,1,0,11.17,10.31L101,266.81l4.58,28.13a7.6,7.6,0,0,0,12.69,4.34l37.37-34.76,33.45,44a7.6,7.6,0,0,0,6,3,7.49,7.49,0,0,0,1.55-.16,7.6,7.6,0,0,0,5.84-5.63l10.56-43.16,40.64,4.74,66.57,66.57a7.6,7.6,0,0,0,10.75-10.75L179.25,171.31A7.54,7.54,0,0,0,173.73,169.08Zm34.49,77.61a7.6,7.6,0,0,0-8.27,5.75l-8.37,34.19-28.88-38a7.62,7.62,0,0,0-11.24-1l-33.12,30.81-4.21-25.85,60-65L236.43,250Z"/><path class="cls-9" d="M359.22,276.35,379.54,256l35.33,24.73a7.61,7.61,0,0,0,12-6.23V259l8.86,7.22a7.61,7.61,0,0,0,9.61-11.79L361.17,186a7.6,7.6,0,0,0-9.84.2l-73.05,64.7a7.6,7.6,0,0,0,10.08,11.39l2.9-2.57,34.18-6.39,23,23A7.61,7.61,0,0,0,359.22,276.35Zm-32.63-38.7-13.19,2.46,43.18-38.24,55.05,44.79v13.26L383,239.9a7.61,7.61,0,0,0-9.74.86l-19.46,19.46-20.48-20.48A7.6,7.6,0,0,0,326.59,237.65Z"/><path class="cls-9" d="M345.18,113.32a53.29,53.29,0,0,0-18.21,73,7.61,7.61,0,0,0,13-7.83,38,38,0,1,1,52.17,13,7.61,7.61,0,0,0,7.83,13,53.23,53.23,0,1,0-54.83-91.25Z"/></svg>