<?xml version="1.0" encoding="iso-8859-1"?>
<!-- Generator: Adobe Illustrator 19.0.0, SVG Export Plug-In . SVG Version: 6.00 Build 0)  -->
<svg version="1.1" id="Capa_1" xmlns="http://www.w3.org/2000/svg" xmlns:xlink="http://www.w3.org/1999/xlink" x="0px" y="0px"
	 viewBox="0 0 512 512" style="enable-background:new 0 0 512 512;" xml:space="preserve">
<g>
	
		<linearGradient id="SVGID_1_" gradientUnits="userSpaceOnUse" x1="-42.5078" y1="629.7109" x2="16.0122" y2="629.7109" gradientTransform="matrix(8.5333 0 0 -8.5333 369.1334 5433.2671)">
		<stop  offset="0" style="stop-color:#034E89"/>
		<stop  offset="1" style="stop-color:#00AFC3"/>
	</linearGradient>
	<path style="fill:url(#SVGID_1_);" d="M366.933,34.133c-14.14,0-25.6,11.46-25.6,25.6s11.46,25.6,25.6,25.6s25.6-11.46,25.6-25.6
		S381.073,34.133,366.933,34.133z M366.933,68.267c-4.71,0-8.533-3.823-8.533-8.533s3.823-8.533,8.533-8.533
		s8.533,3.823,8.533,8.533S371.644,68.267,366.933,68.267z"/>
	
		<linearGradient id="SVGID_2_" gradientUnits="userSpaceOnUse" x1="-42.5078" y1="591.7109" x2="16.0122" y2="591.7109" gradientTransform="matrix(8.5333 0 0 -8.5333 369.1334 5433.2671)">
		<stop  offset="0" style="stop-color:#034E89"/>
		<stop  offset="1" style="stop-color:#00AFC3"/>
	</linearGradient>
	<path style="fill:url(#SVGID_2_);" d="M119.467,375.467H102.4c-4.71,0-8.533,3.823-8.533,8.533s3.823,8.533,8.533,8.533h17.067
		c4.71,0,8.533-3.823,8.533-8.533S124.177,375.467,119.467,375.467z"/>
	
		<linearGradient id="SVGID_3_" gradientUnits="userSpaceOnUse" x1="-42.5078" y1="588.7109" x2="16.0122" y2="588.7109" gradientTransform="matrix(8.5333 0 0 -8.5333 369.1334 5433.2671)">
		<stop  offset="0" style="stop-color:#034E89"/>
		<stop  offset="1" style="stop-color:#00AFC3"/>
	</linearGradient>
	<path style="fill:url(#SVGID_3_);" d="M85.333,401.067H68.267c-4.71,0-8.533,3.823-8.533,8.533c0,4.71,3.823,8.533,8.533,8.533
		h17.067c4.71,0,8.533-3.823,8.533-8.533C93.867,404.89,90.044,401.067,85.333,401.067z"/>
	
		<linearGradient id="SVGID_4_" gradientUnits="userSpaceOnUse" x1="-42.5078" y1="588.7109" x2="16.0122" y2="588.7109" gradientTransform="matrix(8.5333 0 0 -8.5333 369.1334 5433.2671)">
		<stop  offset="0" style="stop-color:#034E89"/>
		<stop  offset="1" style="stop-color:#00AFC3"/>
	</linearGradient>
	<path style="fill:url(#SVGID_4_);" d="M153.6,401.067h-17.067c-4.71,0-8.533,3.823-8.533,8.533c0,4.71,3.823,8.533,8.533,8.533
		H153.6c4.71,0,8.533-3.823,8.533-8.533C162.133,404.89,158.31,401.067,153.6,401.067z"/>
	
		<linearGradient id="SVGID_5_" gradientUnits="userSpaceOnUse" x1="-42.5078" y1="606.7109" x2="16.0122" y2="606.7109" gradientTransform="matrix(8.5333 0 0 -8.5333 369.1334 5433.2671)">
		<stop  offset="0" style="stop-color:#034E89"/>
		<stop  offset="1" style="stop-color:#00AFC3"/>
	</linearGradient>
	<path style="fill:url(#SVGID_5_);" d="M512,60.356c0-0.205,0-0.41,0-0.623C511.957,26.761,485.239,0.043,452.267,0H384
		c-59.102,0.094-107.759,46.498-110.66,105.523l-46.754,23.373c-4.215,2.099-5.931,7.228-3.831,11.443
		c0.828,1.655,2.167,3.004,3.831,3.831l35.934,17.963l-35.934,17.963c-4.215,2.099-5.931,7.228-3.831,11.443
		c0.828,1.655,2.167,3.004,3.831,3.831l46.481,23.236v54.613h-28.783l-23.27-46.635c-2.517-4.215-7.97-5.598-12.194-3.081
		c-1.271,0.759-2.33,1.818-3.081,3.081l-18.005,35.934l-17.92-35.934c-2.517-4.215-7.97-5.598-12.194-3.081
		c-1.271,0.759-2.33,1.818-3.081,3.081l-18.005,35.934l-17.92-35.934c-2.517-4.215-7.97-5.598-12.194-3.081
		c-1.271,0.759-2.33,1.818-3.081,3.081L80.06,273.067H76.8c-42.394,0.051-76.749,34.406-76.8,76.8v102.4
		c0,4.71,3.823,8.533,8.533,8.533h8.533v42.667c0,4.71,3.823,8.533,8.533,8.533h51.2c4.71,0,8.533-3.823,8.533-8.533V460.8h34.133
		v42.667c0,4.71,3.823,8.533,8.533,8.533h51.2c4.71,0,8.533-3.823,8.533-8.533V460.8h85.333v42.667c0,4.71,3.823,8.533,8.533,8.533
		h51.2c4.71,0,8.533-3.823,8.533-8.533V460.8H358.4v42.667c0,4.71,3.823,8.533,8.533,8.533h51.2c4.71,0,8.533-3.823,8.533-8.533
		v-384h25.6c32.708-0.034,59.315-26.334,59.733-59.034V60.356z M273.067,124.74v23.586l-23.586-11.793L273.067,124.74z
		 M249.481,187.733l23.586-11.793v23.586L249.481,187.733z M213.333,249.481l11.793,23.586H201.54L213.333,249.481z
		 M162.133,249.481l11.793,23.586H150.34L162.133,249.481z M110.933,249.481l11.793,23.586H99.14L110.933,249.481z M68.267,494.933
		H34.133V460.8h34.133V494.933z M170.667,494.933h-34.133V460.8h34.133V494.933z M17.067,443.733V358.4H128
		c48.512,0.06,89.011,37.026,93.483,85.333H17.067z M324.267,494.933h-34.133V460.8h34.133V494.933z M409.6,494.933h-34.133V460.8
		H409.6V494.933z M452.267,102.4h-33.425c-3.439,0-6.536,2.065-7.868,5.231c-0.862,1.297-1.331,2.816-1.374,4.369v331.733H238.498
		c-4.489-57.728-52.599-102.306-110.498-102.4H17.749c4.258-29.355,29.389-51.149,59.051-51.2l204.629,0.179l0,0
		c4.77-0.102,8.61-3.942,8.704-8.713V110.933c0.06-51.814,42.052-93.807,93.867-93.867h68.267
		c21.197,0.06,39.125,15.701,42.069,36.693L449.57,68.685c-4.48,1.493-6.903,6.323-5.41,10.803c1.493,4.48,6.323,6.903,10.803,5.41
		l37.871-12.621C487.373,90.121,470.929,102.332,452.267,102.4z"/>
</g>
<g>
</g>
<g>
</g>
<g>
</g>
<g>
</g>
<g>
</g>
<g>
</g>
<g>
</g>
<g>
</g>
<g>
</g>
<g>
</g>
<g>
</g>
<g>
</g>
<g>
</g>
<g>
</g>
<g>
</g>
</svg>
