<svg enable-background="new 0 0 512 512" viewBox="0 0 512 512" xmlns="http://www.w3.org/2000/svg"><g fill="#ff5a6e"><path d="m366.9 34.1c-14.1 0-25.6 11.5-25.6 25.6s11.5 25.6 25.6 25.6 25.6-11.5 25.6-25.6-11.4-25.6-25.6-25.6zm0 34.2c-4.7 0-8.5-3.8-8.5-8.5s3.8-8.5 8.5-8.5 8.5 3.8 8.5 8.5-3.8 8.5-8.5 8.5z"/><path d="m119.5 375.5h-17.1c-4.7 0-8.5 3.8-8.5 8.5s3.8 8.5 8.5 8.5h17.1c4.7 0 8.5-3.8 8.5-8.5s-3.8-8.5-8.5-8.5z"/><path d="m85.3 401.1h-17c-4.7 0-8.5 3.8-8.5 8.5s3.8 8.5 8.5 8.5h17.1c4.7 0 8.5-3.8 8.5-8.5s-3.9-8.5-8.6-8.5z"/><path d="m153.6 401.1h-17.1c-4.7 0-8.5 3.8-8.5 8.5s3.8 8.5 8.5 8.5h17.1c4.7 0 8.5-3.8 8.5-8.5s-3.8-8.5-8.5-8.5z"/><path d="m512 60.4c0-.2 0-.4 0-.6 0-33-26.8-59.7-59.7-59.7h-68.3c-59.1.1-107.8 46.5-110.7 105.5l-46.8 23.4c-4.2 2.1-5.9 7.2-3.8 11.4.8 1.7 2.2 3 3.8 3.8l35.9 18-35.9 18c-4.2 2.1-5.9 7.2-3.8 11.4.8 1.7 2.2 3 3.8 3.8l46.5 23.2v54.6h-28.8l-23.2-46.6c-2.5-4.2-8-5.6-12.2-3.1-1.3.8-2.3 1.8-3.1 3.1l-18 35.9-17.9-35.9c-2.5-4.2-8-5.6-12.2-3.1-1.3.8-2.3 1.8-3.1 3.1l-18 35.9-17.9-35.9c-2.5-4.2-8-5.6-12.2-3.1-1.3.8-2.3 1.8-3.1 3.1l-23.3 46.5h-3.3c-42.3 0-76.6 34.4-76.7 76.8v102.4c0 4.7 3.8 8.5 8.5 8.5h8.5v42.7c0 4.7 3.8 8.5 8.5 8.5h51.2c4.7 0 8.5-3.8 8.5-8.5v-42.7h34.1v42.7c0 4.7 3.8 8.5 8.5 8.5h51.2c4.7 0 8.5-3.8 8.5-8.5v-42.7h85.3v42.7c0 4.7 3.8 8.5 8.5 8.5h51.2c4.7 0 8.5-3.8 8.5-8.5v-42.7h17.1v42.7c0 4.7 3.8 8.5 8.5 8.5h51.2c4.7 0 8.5-3.8 8.5-8.5v-384h25.6c33.1-.1 59.7-26.4 60.1-59.1zm-238.9 64.3v23.6l-23.6-11.8zm-23.6 63 23.6-11.8v23.6zm-36.2 61.8 11.8 23.6h-23.6zm-51.2 0 11.8 23.6h-23.6zm-51.2 0 11.8 23.6h-23.6zm-42.6 245.4h-34.2v-34.1h34.1zm102.4 0h-34.1v-34.1h34.1zm-153.6-51.2v-85.3h110.9c48.5.1 89 37 93.5 85.3zm307.2 51.2h-34.1v-34.1h34.1zm85.3 0h-34.1v-34.1h34.1zm42.7-392.5h-33.4c-3.4 0-6.5 2.1-7.9 5.2-.9 1.3-1.3 2.8-1.4 4.4v331.7h-171.1c-4.5-57.7-52.6-102.3-110.5-102.4h-110.3c4.3-29.4 29.4-51.1 59.1-51.2l204.6.2c4.8-.1 8.6-3.9 8.7-8.7v-170.7c.1-51.8 42.1-93.8 93.9-93.9h68.3c21.2.1 39.1 15.7 42.1 36.7l-44.8 14.9c-4.5 1.5-6.9 6.3-5.4 10.8s6.3 6.9 10.8 5.4l37.9-12.6c-5.5 17.9-22 30.1-40.6 30.2z"/></g></svg>