<?xml version="1.0" encoding="utf-8"?>
<!-- Generator: Adobe Illustrator 22.1.0, SVG Export Plug-In . SVG Version: 6.00 Build 0)  -->
<svg version="1.1" id="Layer_1" xmlns="http://www.w3.org/2000/svg" xmlns:xlink="http://www.w3.org/1999/xlink" x="0px" y="0px"
	 viewBox="0 0 512 512" style="enable-background:new 0 0 512 512;" xml:space="preserve">
<style type="text/css">
	.st0{fill:#6A4C93;}
</style>
<g>
	<path class="st0" d="M366.9,34.1c-14.1,0-25.6,11.5-25.6,25.6s11.5,25.6,25.6,25.6s25.6-11.5,25.6-25.6S381.1,34.1,366.9,34.1z
		 M366.9,68.3c-4.7,0-8.5-3.8-8.5-8.5s3.8-8.5,8.5-8.5s8.5,3.8,8.5,8.5S371.6,68.3,366.9,68.3z"/>
	<path class="st0" d="M119.5,375.5h-17.1c-4.7,0-8.5,3.8-8.5,8.5s3.8,8.5,8.5,8.5h17.1c4.7,0,8.5-3.8,8.5-8.5
		S124.2,375.5,119.5,375.5z"/>
	<path class="st0" d="M85.3,401.1h-17c-4.7,0-8.5,3.8-8.5,8.5s3.8,8.5,8.5,8.5h17.1c4.7,0,8.5-3.8,8.5-8.5S90,401.1,85.3,401.1z"/>
	<path class="st0" d="M153.6,401.1h-17.1c-4.7,0-8.5,3.8-8.5,8.5s3.8,8.5,8.5,8.5h17.1c4.7,0,8.5-3.8,8.5-8.5
		S158.3,401.1,153.6,401.1z"/>
	<path class="st0" d="M512,60.4c0-0.2,0-0.4,0-0.6c0-33-26.8-59.7-59.7-59.7H384c-59.1,0.1-107.8,46.5-110.7,105.5L226.5,129
		c-4.2,2.1-5.9,7.2-3.8,11.4c0.8,1.7,2.2,3,3.8,3.8l35.9,18l-35.9,18c-4.2,2.1-5.9,7.2-3.8,11.4c0.8,1.7,2.2,3,3.8,3.8l46.5,23.2
		v54.6h-28.8L221,226.6c-2.5-4.2-8-5.6-12.2-3.1c-1.3,0.8-2.3,1.8-3.1,3.1l-18,35.9l-17.9-35.9c-2.5-4.2-8-5.6-12.2-3.1
		c-1.3,0.8-2.3,1.8-3.1,3.1l-18,35.9l-17.9-35.9c-2.5-4.2-8-5.6-12.2-3.1c-1.3,0.8-2.3,1.8-3.1,3.1L80,273.1h-3.3
		c-42.3,0-76.6,34.4-76.7,76.8v102.4c0,4.7,3.8,8.5,8.5,8.5H17v42.7c0,4.7,3.8,8.5,8.5,8.5h51.2c4.7,0,8.5-3.8,8.5-8.5v-42.7h34.1
		v42.7c0,4.7,3.8,8.5,8.5,8.5H179c4.7,0,8.5-3.8,8.5-8.5v-42.7h85.3v42.7c0,4.7,3.8,8.5,8.5,8.5h51.2c4.7,0,8.5-3.8,8.5-8.5v-42.7
		h17.1v42.7c0,4.7,3.8,8.5,8.5,8.5h51.2c4.7,0,8.5-3.8,8.5-8.5v-384h25.6C485,119.4,511.6,93.1,512,60.4L512,60.4z M273.1,124.7
		v23.6l-23.6-11.8L273.1,124.7z M249.5,187.7l23.6-11.8v23.6L249.5,187.7z M213.3,249.5l11.8,23.6h-23.6L213.3,249.5z M162.1,249.5
		l11.8,23.6h-23.6L162.1,249.5z M110.9,249.5l11.8,23.6H99.1L110.9,249.5z M68.3,494.9H34.1v-34.1h34.1L68.3,494.9z M170.7,494.9
		h-34.1v-34.1h34.1V494.9z M17.1,443.7v-85.3H128c48.5,0.1,89,37,93.5,85.3H17.1z M324.3,494.9h-34.1v-34.1h34.1V494.9z
		 M409.6,494.9h-34.1v-34.1h34.1V494.9z M452.3,102.4h-33.4c-3.4,0-6.5,2.1-7.9,5.2c-0.9,1.3-1.3,2.8-1.4,4.4v331.7H238.5
		C234,386,185.9,341.4,128,341.3H17.7c4.3-29.4,29.4-51.1,59.1-51.2l204.6,0.2c4.8-0.1,8.6-3.9,8.7-8.7V110.9
		c0.1-51.8,42.1-93.8,93.9-93.9h68.3c21.2,0.1,39.1,15.7,42.1,36.7l-44.8,14.9c-4.5,1.5-6.9,6.3-5.4,10.8s6.3,6.9,10.8,5.4
		l37.9-12.6C487.4,90.1,470.9,102.3,452.3,102.4L452.3,102.4z"/>
</g>
</svg>
