<?xml version="1.0" encoding="utf-8"?>
<!-- Generator: Adobe Illustrator 22.1.0, SVG Export Plug-In . SVG Version: 6.00 Build 0)  -->
<svg version="1.1" id="Capa_1" xmlns="http://www.w3.org/2000/svg" xmlns:xlink="http://www.w3.org/1999/xlink" x="0px" y="0px"
	 viewBox="0 0 283.9 283.9" style="enable-background:new 0 0 283.9 283.9;" xml:space="preserve">
<style type="text/css">
	.st0{fill:#6A4C93;}
</style>
<g>
	<g>
		<path class="st0" d="M218.1,29.9C199,10.6,172,0,141.9,0C84.3,0,37.5,46.8,37.5,104.4v106.2c0,45.2,21.8,73.2,57,73.2
			c49.6,0,66.4-35.5,75.5-54.6l0.2-0.5c9.1-19.3,20.7-27.3,32.9-35.9c21-14.6,42.6-29.8,43.3-88.3C246.7,74.7,236.9,48.9,218.1,29.9
			z M194.5,180.6c-12.7,8.9-27.1,18.9-37.9,41.8l-0.2,0.5c-8.7,18.3-21.8,46-61.9,46c-26.7,0-42-21.2-42-58.2V104.4
			c0-49.3,40.1-89.4,89.4-89.4c26,0,49.3,9,65.5,25.4c15.9,16.1,24.2,38.2,23.9,64C230.8,155.2,214,167,194.5,180.6z"/>
	</g>
	<g>
		<path class="st0" d="M188.2,83.1c1.9,3.7,6.4,5.2,10.1,3.3c3.7-1.9,5.2-6.4,3.3-10.1c-3.1-6.1-7-11.6-11.8-16.4
			c-13.1-13.3-31.7-20.6-52.3-20.6c-19.1,0-37.9,9.3-51.5,25.5c-13.5,16-19.4,35.6-16.3,53.8c1.6,9.6,9.9,13.4,17.2,16.7
			c7.1,3.2,13.8,6.3,17.1,14c3.8,8.8,3.4,16.5-9.2,34.2c-2.4,3.4-1.6,8.1,1.7,10.5c1.3,0.9,2.8,1.4,4.4,1.4c2.3,0,4.6-1.1,6.1-3.1
			c12.3-17.2,18.4-31.4,10.8-48.9c-5.6-13-16.6-18-24.7-21.7c-4.1-1.9-8.4-3.8-8.7-5.6c-2.3-13.7,2.5-29.2,13-41.6
			c10.8-12.8,25.4-20.1,40.1-20.1c16.6,0,31.3,5.7,41.6,16.1C182.8,74.2,185.8,78.4,188.2,83.1z"/>
	</g>
	<g>
		<path class="st0" d="M201.7,99.9c-4.1,0-7.5,3.4-7.5,7.5c0,19.3-3.8,29.2-14.1,36.4c-3.4,2.4-4.2,7-1.9,10.4
			c1.5,2.1,3.8,3.2,6.2,3.2c1.5,0,3-0.4,4.3-1.4c18-12.6,20.5-30.8,20.5-48.6C209.2,103.3,205.9,99.9,201.7,99.9z"/>
	</g>
</g>
</svg>
