<svg id="Layer_1" data-name="Layer 1" xmlns="http://www.w3.org/2000/svg" viewBox="0 0 512 512"><defs><style>.cls-1{fill:#2d1e2f;}</style></defs><title>facebook-logo</title><g id="post-facebook"><path class="cls-1" d="M460.45,0H51.23A51.38,51.38,0,0,0,0,51.23V460.77A51.38,51.38,0,0,0,51.23,512H460.77A51.38,51.38,0,0,0,512,460.77V51.23C511.68,23.05,488.63,0,460.45,0ZM434.83,51.23v76.85H383.6c-15.37,0-25.62,10.25-25.62,25.62v51.23h76.85v76.85H358v179H281.14V281.46H229.9V204.61h51.24V140.89c0-48.67,41-89.66,89.65-89.66Z"/></g></svg>