<svg enable-background="new 0 0 178.083 178.083" viewBox="0 0 178.083 178.083" xmlns="http://www.w3.org/2000/svg"><path d="m152.235 8.9c.417-2.195-.166-4.462-1.591-6.184-1.425-1.72-3.543-2.716-5.777-2.716h-102.09c-9.407 0-17.06 7.653-17.06 17.062v153.521c0 3.093 1.898 5.868 4.781 6.99.884.344 1.805.51 2.717.51 2.063 0 4.081-.852 5.53-2.432l51.479-56.161h34.787c3.602 0 6.695-2.56 7.368-6.1l9.905-52.128c.002-.007.003-.013.004-.019zm-33.433 95.59h-31.877c-2.103 0-4.108.883-5.529 2.432l-40.68 44.38v-134.24c0-1.117.944-2.062 2.06-2.062h93.031l-7.077 37.244h-44.735c-4.142 0-7.5 3.357-7.5 7.5s3.358 7.5 7.5 7.5h41.884z"/></svg>