<svg id="Layer_1" data-name="Layer 1" xmlns="http://www.w3.org/2000/svg" viewBox="0 0 512 512"><defs><style>.cls-1{fill:#ff8d36;}.cls-11,.cls-2{fill:#2d1e2f;}.cls-10,.cls-2{opacity:0.2;}.cls-2{isolation:isolate;}.cls-3{fill:#69b551;}.cls-4{fill:#8fe673;}.cls-5{fill:#76cc5b;}.cls-6{fill:#599944;}.cls-7{fill:#ff704d;}.cls-8{fill:#ffc552;}.cls-9{fill:#9773bf;}.cls-12{fill:#f2ae5d;}</style></defs><title>horta</title><ellipse class="cls-1" cx="244.26" cy="142.39" rx="106.9" ry="76.06" transform="translate(4.4 292.07) rotate(-62.2)"/><path class="cls-2" d="M294.13,47.82a55.42,55.42,0,0,0-13.92-5.07c19.25,26.76,19.5,71.61-2.19,112.75-24.24,46-67.79,72-103.22,64.18A56.79,56.79,0,0,0,194.42,237c37.16,19.59,89.6-6.87,117.14-59.1S331.28,67.41,294.13,47.82Z"/><ellipse class="cls-3" cx="372.32" cy="151.09" rx="106.9" ry="76.06" transform="translate(65.05 410) rotate(-62.2)"/><path class="cls-2" d="M423,57c15.61,27.14,14.5,68.79-5.75,107.21-27.53,52.22-80,78.68-117.13,59.09-.29-.15-.55-.32-.83-.47a58,58,0,0,0,23.18,22.83c37.16,19.59,89.6-6.87,117.14-59.1C466.94,134.74,459.44,77,423,57Z"/><path class="cls-4" d="M96.66,145.15c15.72-40.17-17.45-94.65-46-77.79S53.89,139.55,96.66,145.15Z"/><path class="cls-5" d="M96.66,145.15c-17.29-39.52-79.27-54.59-87.52-22.5S62.46,171.43,96.66,145.15Z"/><path class="cls-5" d="M96.66,145.15c-26.29-34.2-9.6-95.77,22.49-87.52S136.18,127.86,96.66,145.15Z"/><path class="cls-6" d="M103.69,149.71a9.11,9.11,0,0,0,.58-1.06c0-.06,0-.12.07-.17a8.07,8.07,0,0,0,.44-1.25l13.87-54a8.38,8.38,0,0,0-16.24-4.17l-8.83,34.37L75.52,92.91a8.38,8.38,0,1,0-14.43,8.53l18,30.55-34.37-8.83a8.38,8.38,0,1,0-4.17,16.23l54,13.87h0l.66.12c.12,0,.25.06.37.07h0a9.24,9.24,0,0,0,1,.06h0a8.09,8.09,0,0,0,1.2-.1l.4-.08q.42-.09.84-.21l.42-.15a7.27,7.27,0,0,0,.76-.33c.14-.07.28-.13.41-.21l.18-.09a8.37,8.37,0,0,0,.79-.53l0,0,.08-.07a10.24,10.24,0,0,0,.85-.76l.11-.12a8.35,8.35,0,0,0,.75-.94Z"/><circle class="cls-7" cx="123.08" cy="189.05" r="68.89"/><path class="cls-2" d="M123.08,120.17a69.13,69.13,0,0,0-16.76,2.06,68.89,68.89,0,0,1,0,133.64,68.89,68.89,0,1,0,16.76-135.7Z"/><ellipse class="cls-8" cx="181.84" cy="231.23" rx="79.98" ry="78.77"/><path class="cls-2" d="M190.08,152.86a78.49,78.49,0,0,1,38.21,67.19c0,43.51-35.81,78.77-80,78.77q-4.17,0-8.24-.41A80.5,80.5,0,0,0,181.84,310c44.17,0,80-35.27,80-78.78C261.82,190.46,230.38,156.92,190.08,152.86Z"/><ellipse class="cls-9" cx="276.02" cy="215.91" rx="82.59" ry="81.35"/><path class="cls-2" d="M304.08,139.39a80.35,80.35,0,0,1,21,54.17c0,44.93-37,81.35-82.59,81.35a83.51,83.51,0,0,1-28.07-4.83A82.93,82.93,0,0,0,276,297.27c45.62,0,82.6-36.43,82.6-81.36C358.61,180.7,335.88,150.71,304.08,139.39Z"/><path class="cls-4" d="M487.73,225.56a30.32,30.32,0,0,0-45.56-26.22,30.31,30.31,0,0,0-44-16.57,30.32,30.32,0,0,0-57.5,0,30.31,30.31,0,0,0-44,16.57,30.32,30.32,0,0,0-45.56,26.22v45.57H487.73V225.56Z"/><g class="cls-10"><path class="cls-11" d="M457.4,195.23a30,30,0,0,0-11.16,2.15,30.33,30.33,0,0,1,19.13,28.18v45.57h22.36V225.56A30.33,30.33,0,0,0,457.4,195.23Z"/></g><polygon class="cls-12" points="261.82 259.95 45.21 290.75 45.21 470.64 479.01 470.64 479.01 290.75 261.82 259.95"/><polygon class="cls-2" points="45.21 290.75 45.21 324.09 479.01 324.09 479.01 290.75 261.82 259.95 45.21 290.75"/><rect class="cls-12" x="20.03" y="229.34" width="483.59" height="61.22"/><path class="cls-11" d="M356.24,51.79a122.74,122.74,0,0,0-28.73,20.38C320.9,58.12,310.89,47.3,298,40.52c-23.37-12.32-52.51-9.28-80,8.33A8.38,8.38,0,0,0,227.14,63c22.22-14.25,45.21-17,63.08-7.61,11.34,6,19.83,16.41,24.74,30.32.24.68-4.29,5.51-4.81,6.21a155.8,155.8,0,0,0-14.23,23.33c-.46.93-5.21,12.24-5.44,12.21a92.36,92.36,0,0,0-76.27,22.79l-.39-.14a88.59,88.59,0,0,0-27.56-5.78l-.3,0,0-.05c-.75-1.06-1.53-2.08-2.33-3.09a1.47,1.47,0,0,0-.1-.13,77.32,77.32,0,0,0-8.16-8.78,141.9,141.9,0,0,1,9.08-21.28,137.58,137.58,0,0,1,20.41-29,8.39,8.39,0,0,0-12.33-11.37,154.25,154.25,0,0,0-22.91,32.61,158.43,158.43,0,0,0-8.39,18.77,76.7,76.7,0,0,0-22.92-8.51c7.13-15.87,8.73-32.63,3.87-45.08a30,30,0,0,0-20.9-18.68,31.26,31.26,0,0,0-7.84-1c-11.11,0-21,6.25-28,17.22C78.12,59.39,70,55.94,61.75,55.94a29.84,29.84,0,0,0-15.33,4.32C34,67.62,29.08,81.35,32.56,97.08c-16.27,1-27.95,9.67-31.53,23.6A29.57,29.57,0,0,0,6.53,147c8.41,10.86,24.43,18,42.72,19.37a77.41,77.41,0,0,0,3.45,54.69H20a8.39,8.39,0,0,0-8.38,8.39v61.22A8.38,8.38,0,0,0,20,299.06H36.54v171.5a8.38,8.38,0,0,0,8.38,8.38H478.73a8.38,8.38,0,0,0,8.38-8.38V299.06h16.51a8.38,8.38,0,0,0,8.38-8.38V229.45a8.38,8.38,0,0,0-8.38-8.38h-7.79a38.62,38.62,0,0,0-47.51-33,153.18,153.18,0,0,0,12.88-35.83,8.38,8.38,0,1,0-16.36-3.63,136,136,0,0,1-9.76,28.4c-.09-.06-.19-.11-.28-.18a39,39,0,0,0-21.38-6.43A38.42,38.42,0,0,0,402.28,172a38.66,38.66,0,0,0-32.84-18.21,39.11,39.11,0,0,0-21.88,6.79,90.25,90.25,0,0,0-40.66-29c-.16-.06,5.44-11.7,6-12.71,18-33.72,63.51-76.87,105.39-54.8,17.61,9.29,28.3,29.48,29.32,55.39a8.39,8.39,0,0,0,16.76-.66c-1.27-32.06-15.21-57.41-38.26-69.56C405.66,38.46,380.85,39.37,356.24,51.79ZM181.51,161h.33A72.76,72.76,0,0,1,201,163.49l.66.18.41.13a88.9,88.9,0,0,0-12.88,25.48c0,.11-.06.22-.1.34a88.62,88.62,0,0,0-4,29.7c0,.28,0,.56,0,.84s0,.61,0,.91H111.05c0-.32.09-.64.14-1a70.32,70.32,0,0,1,20.45-38.93A71.77,71.77,0,0,1,181.51,161ZM160.3,141.45c.07.05.13.12.2.18a61,61,0,0,1,4.67,4.11,89,89,0,0,0-60.94,43.92,86.24,86.24,0,0,0-9.93,30.12c0,.38-.12.75-.16,1.13a.88.88,0,0,0,0,.16H71.69a60,60,0,0,1-9.1-31.9,61.13,61.13,0,0,1,28.9-51.57l.26-.17C112.39,125,141.42,125.55,160.3,141.45ZM19.78,136.74a13,13,0,0,1-2.51-11.88c2.36-9.18,11.37-11.11,18.51-11.11a45.15,45.15,0,0,1,7.42.65,8.39,8.39,0,0,0,8.95-11.9c-2.3-4.77-8.89-20.9,2.8-27.81a13.16,13.16,0,0,1,6.81-2c6.17,0,13.07,4.71,18.92,12.91a8.37,8.37,0,0,0,14.73-2.09c4-11.36,10.71-18.15,18-18.15a15,15,0,0,1,3.67.49,13.13,13.13,0,0,1,9.45,8.54c3.68,9.41,1.08,24.36-6.27,37.54l-.7,0c-1.94.09-3.88.25-5.8.48l4.91-19.09a8.38,8.38,0,1,0-16.24-4.17l-7.17,27.9-.18.07c-1.42.55-2.83,1.14-4.21,1.78L75.53,93a8.39,8.39,0,0,0-14.44,8.54l15.38,26c-1.24.94-2.44,1.91-3.62,2.92l-28.07-7.22a8.38,8.38,0,1,0-4.18,16.24l19.46,5q-1.58,2.22-3,4.56l-.06.1-.43.69C40.84,150.1,26,144.75,19.78,136.74Zm475.45,101.1v44.45H114.83a8.39,8.39,0,1,0,0,16.77H470.34v73.09c-13.45-.11-27.11-.08-39.93.08a8.39,8.39,0,0,0,.11,16.77h.11c12.75-.17,26.33-.19,39.72-.08v73.26h-417V389c114.9-.19,227-.19,342.39,0h0a8.39,8.39,0,0,0,0-16.77c-115.4-.2-227.51-.2-342.42,0V299.06H83.53a8.39,8.39,0,0,0,0-16.77H28.42V237.84ZM343.65,190.73c5.26-2,5.67-8.3,9-12.25,10.83-13,32.28-8.89,37.63,7.07.1.3.22.59.35.88a8.36,8.36,0,0,0,4.65,4.3c4.75,1.79,9.34-2.23,13.88-3.14a22.14,22.14,0,0,1,21.69,8.16c.08.11.17.2.25.3,3.15,3.71,3,9.33,8.16,11.25a8.37,8.37,0,0,0,7.17-.6,21.94,21.94,0,0,1,32.47,14.37H260a21.64,21.64,0,0,1,1.47-4.42,22.21,22.21,0,0,1,31-10,8.48,8.48,0,0,0,7.17.6,8.39,8.39,0,0,0,5-5.18,21.91,21.91,0,0,1,20.8-15C331.56,187.16,337.69,193,343.65,190.73Zm-8.85-19.19-.51-.11a38.59,38.59,0,0,0-41.67,17.17A38.76,38.76,0,0,0,281.48,187c-18.57,0-35.29,14.27-38.22,32.59-.08.5-.16,1-.22,1.52H202c-1.64,0,1.28-17,1.52-18.4,7.12-41.19,50.34-67.2,90.36-57.47A75.41,75.41,0,0,1,334.8,171.54Z"/></svg>