<?xml version="1.0" encoding="utf-8"?>
<!-- Generator: Adobe Illustrator 22.1.0, SVG Export Plug-In . SVG Version: 6.00 Build 0)  -->
<svg version="1.1" id="Capa_1" xmlns="http://www.w3.org/2000/svg" xmlns:xlink="http://www.w3.org/1999/xlink" x="0px" y="0px"
	 viewBox="0 0 496 496" style="enable-background:new 0 0 496 496;" xml:space="preserve">
<style type="text/css">
	.st0{fill:#6A4C93;}
</style>
<g>
	<g>
		<path class="st0" d="M248,312c-30.9,0-56,25.1-56,56s25.1,56,56,56s56-25.1,56-56S278.9,312,248,312z M248,408
			c-22.1,0-40-17.9-40-40s17.9-40,40-40s40,17.9,40,40S270.1,408,248,408z"/>
	</g>
</g>
<g>
	<g>
		<rect x="32" y="256" class="st0" width="48" height="16"/>
	</g>
</g>
<g>
	<g>
		<rect x="32" y="288" class="st0" width="48" height="16"/>
	</g>
</g>
<g>
	<g>
		<rect x="416" y="256" class="st0" width="48" height="16"/>
	</g>
</g>
<g>
	<g>
		<rect x="416" y="288" class="st0" width="48" height="16"/>
	</g>
</g>
<g>
	<g>
		<path class="st0" d="M448,144H343.8c4.2-10.1,6.8-20.9,7.7-32H456c22.1,0,40-17.9,40-40s-17.9-40-40-40H322.9
			c-0.9-1-1.8-2-2.8-2.9C299.6,9.3,272.5-1,243.9,0.1c-27.2,1-52.1,13.2-70.2,31.9H70.6L12.7,53.7C5.1,56.5,0,63.9,0,72
			s5.1,15.5,12.7,18.3L70.6,112h73.9c0.9,11.1,3.5,21.9,7.7,32H48v80H0v112h112V224H64v-64h96v-1.1c8.1,12.9,18.8,24.2,32,32.6v8.5
			h-16v16h16v16h-16v16h16.6c1.2,8.4,4.2,16.2,8.7,23l-22.2-15.1l-43.3,43.3l17.5,25.8c-1,2.2-1.9,4.4-2.8,6.6l-30.6,5.8v61.2
			l30.6,5.8c0.8,2.2,1.8,4.4,2.8,6.6l-17.5,25.8l43.3,43.3l25.8-17.5c2.2,1,4.4,1.9,6.6,2.8l5.8,30.6h61.2l5.8-30.6
			c2.2-0.8,4.4-1.8,6.6-2.8l25.8,17.5l43.3-43.3L342.6,411c1-2.2,1.9-4.4,2.8-6.6l30.6-5.8v-61.2l-30.6-5.8
			c-0.8-2.2-1.8-4.4-2.8-6.6l17.5-25.8l-43.3-43.3L294.6,271c4.5-6.8,7.5-14.6,8.7-22.9H320v-16h-16v-16h16v-16h-16v-8.5
			c13.2-8.4,23.9-19.7,32-32.7v1.1h96v64h-48v112h112V224h-48L448,144L448,144z M64,92.5L18.3,75.3C16.9,74.8,16,73.5,16,72
			s0.9-2.8,2.3-3.3L64,51.5V92.5z M96,240v80H16v-80L96,240L96,240z M384,96h-32.4c-0.4-5.4-1.2-10.8-2.5-16H384L384,96L384,96z
			 M432,48h24c13.2,0,24,10.8,24,24s-10.8,24-24,24h-24V48z M400,48h16v48h-16V48z M384,48v16h-40c-2.3-5.6-5.2-10.9-8.5-16
			C335.6,48,384,48,384,48z M144.4,96H80V80h67C145.7,85.2,144.9,90.6,144.4,96z M152,64.8V64H80V48h80.9
			C157.5,53.3,154.5,58.9,152,64.8z M314.9,276.5l24.6,24.6l-15.4,22.6l2.2,4.2c2.2,4.3,4.1,8.7,5.5,13.1l1.5,4.5l26.8,5.1v34.8
			l-26.8,5.1l-1.5,4.5c-1.4,4.3-3.2,8.7-5.5,13.1l-2.2,4.2l15.4,22.6l-24.6,24.6l-22.6-15.4l-4.2,2.2c-4.4,2.2-8.8,4.1-13.1,5.5
			l-4.5,1.5l-5.1,26.8h-34.8l-5.1-26.8l-4.5-1.5c-4.3-1.4-8.7-3.2-13.1-5.5l-4.2-2.2l-22.6,15.4l-24.6-24.6l15.4-22.6l-2.2-4.2
			c-2.2-4.3-4.1-8.7-5.5-13.1l-1.5-4.5l-26.8-5.1v-34.8l26.8-5.1l1.5-4.5c1.4-4.3,3.2-8.7,5.5-13.1l2.2-4.2l-15.4-22.6l24.6-24.6
			l22.6,15.4l4.2-2.2c2.7-1.4,5.5-2.6,8.3-3.7c9,6.3,20,10,31.8,10s22.8-3.7,31.8-10c2.7,1.1,5.5,2.3,8.3,3.7l4.2,2.2L314.9,276.5z
			 M288,216v16h-80v-16H288z M224,120h-16c-8.8,0-16-7.2-16-16s7.2-16,16-16s16,7.2,16,16V120z M240,200v-64h16v64H240z M287.2,248
			c-3.7,18.2-19.9,32-39.2,32s-35.5-13.8-39.2-32L287.2,248L287.2,248z M292,180.1l-4,2.3V200h-16v-64h16c17.6,0,32-14.4,32-32
			s-14.4-32-32-32s-32,14.4-32,32v16h-16v-16c0-17.6-14.4-32-32-32s-32,14.4-32,32s14.4,32,32,32h16v64h-16v-17.6l-4-2.3
			c-27.9-16.1-44.7-46.1-44-78.2c1-45.6,39-84.1,84.5-85.9c1.2-0.1,2.3-0.1,3.5-0.1c22.9,0,44.4,8.7,61,24.6
			c17.4,16.7,27,39.3,27,63.4C336,135.2,319.1,164.4,292,180.1z M272,120v-16c0-8.8,7.2-16,16-16s16,7.2,16,16s-7.2,16-16,16H272z
			 M480,240v80h-80v-80L480,240L480,240z"/>
	</g>
</g>
</svg>
