<?xml version="1.0" encoding="iso-8859-1"?>
<!-- Generator: Adobe Illustrator 19.0.0, SVG Export Plug-In . SVG Version: 6.00 Build 0)  -->
<svg version="1.1" id="Capa_1" xmlns="http://www.w3.org/2000/svg" xmlns:xlink="http://www.w3.org/1999/xlink" x="0px" y="0px"
	 viewBox="0 0 511.999 511.999" style="enable-background:new 0 0 511.999 511.999;" xml:space="preserve">
<linearGradient id="SVGID_1_" gradientUnits="userSpaceOnUse" x1="-49.0154" y1="606.7202" x2="9.5036" y2="606.7202" gradientTransform="matrix(8.535 0 0 -8.535 369.22 5434.3818)">
	<stop  offset="0" style="stop-color:#034E89"/>
	<stop  offset="1" style="stop-color:#00AFC3"/>
</linearGradient>
<path style="fill:url(#SVGID_1_);" d="M448.038,238.981c-67.529,0-128.563-17.121-172.066-44.561l40.627-74.929h20.484
	c4.711,0,8.535-3.824,8.535-8.535c0-4.711-3.824-8.535-8.535-8.535h-22.268L206.317,2.27c-0.401-0.299-0.819-0.563-1.263-0.785
	c-0.427-0.324-0.888-0.615-1.366-0.854c-0.93-0.367-1.92-0.572-2.919-0.589C200.684,0.051,200.607,0,200.522,0
	c-0.085,0-0.162,0.051-0.248,0.051c-0.999,0.017-1.989,0.222-2.919,0.589c-0.478,0.239-0.939,0.529-1.366,0.854
	c-0.444,0.222-0.871,0.486-1.263,0.785L86.229,102.42H63.961c-4.711,0-8.535,3.824-8.535,8.535c0,4.711,3.824,8.535,8.535,8.535
	h20.527l95.592,176.564l-44.024-22.08c-4.216-2.108-9.346-0.401-11.454,3.824c-0.597,1.195-0.905,2.518-0.896,3.858v68.28
	c-0.026,4.711,3.772,8.552,8.492,8.578c1.34,0.009,2.663-0.299,3.858-0.896l48.197-24.103L167.56,375.26
	c-4.182,10.515-14.373,17.394-25.69,17.352h-33.167c-24.709,0-44.741,20.023-44.749,44.732c0,11.872,4.711,23.249,13.11,31.648
	l40.61,40.61c3.388,3.277,8.791,3.184,12.069-0.213c3.192-3.312,3.192-8.552,0-11.855l-40.61-40.61
	c-10.805-10.814-10.797-28.336,0.017-39.142c5.189-5.181,12.222-8.1,19.554-8.1h33.167c18.342,0.068,34.849-11.113,41.583-28.166
	l21.594-53.967l59.942,30.069c4.216,2.108,9.346,0.401,11.454-3.824c0.597-1.195,0.905-2.518,0.896-3.858v-68.28
	c0.026-4.711-3.772-8.552-8.492-8.578c-1.34-0.009-2.663,0.299-3.858,0.896l-44.066,22.08l47.113-86.946
	c46.286,29.019,109.889,46.943,180.004,46.943c4.711,0,8.535-3.824,8.535-8.535C456.573,242.805,452.749,238.981,448.038,238.981z
	 M261.829,184.69c-22.882-15.935-40.046-38.783-48.974-65.199h84.284L261.829,184.69z M209.501,102.42
	c-0.265-2.825-0.444-5.667-0.444-8.535V28.029l80.588,74.391H209.501z M191.987,28.029v74.391h-80.588L191.987,28.029z
	 M191.987,119.491v162.627l-88.082-162.627H191.987z M140.777,336.127v-40.661l40.661,20.33L140.777,336.127z M260.267,336.127
	l-40.661-20.33l40.661-20.33V336.127z M209.057,282.117V152.001c11.719,18.555,26.937,34.661,44.8,47.412L209.057,282.117z"/>
<g>
</g>
<g>
</g>
<g>
</g>
<g>
</g>
<g>
</g>
<g>
</g>
<g>
</g>
<g>
</g>
<g>
</g>
<g>
</g>
<g>
</g>
<g>
</g>
<g>
</g>
<g>
</g>
<g>
</g>
</svg>
