<?xml version="1.0" encoding="utf-8"?>
<!-- Generator: Adobe Illustrator 22.1.0, SVG Export Plug-In . SVG Version: 6.00 Build 0)  -->
<svg version="1.1" id="Layer_1" xmlns="http://www.w3.org/2000/svg" xmlns:xlink="http://www.w3.org/1999/xlink" x="0px" y="0px"
	 viewBox="0 0 512 512" style="enable-background:new 0 0 512 512;" xml:space="preserve">
<style type="text/css">
	.st0{fill:#6A4C93;}
</style>
<path class="st0" d="M448,239c-67.5,0-128.6-17.1-172.1-44.6l40.6-74.9H337c4.7,0,8.5-3.8,8.5-8.5s-3.8-8.5-8.5-8.5h-22.3L206.3,2.3
	c-0.4-0.3-0.8-0.6-1.3-0.8c-0.4-0.3-0.9-0.6-1.4-0.9c-0.9-0.4-1.9-0.6-2.9-0.6c-0.1,0-0.2,0-0.2,0c-0.1,0-0.2,0.1-0.2,0.1
	c-1,0-2,0.2-2.9,0.6c-0.5,0.2-0.9,0.5-1.4,0.9c-0.4,0.2-0.9,0.5-1.3,0.8l-108.5,100H64c-4.7,0-8.5,3.8-8.5,8.5s3.8,8.5,8.5,8.5h20.5
	L180.1,296l-44-22.1c-4.2-2.1-9.3-0.4-11.5,3.8c-0.6,1.2-0.9,2.5-0.9,3.9v68.3c0,4.7,3.8,8.6,8.5,8.6c1.3,0,2.7-0.3,3.9-0.9
	l48.2-24.1l-16.7,41.7c-4.2,10.5-14.4,17.4-25.7,17.4h-33.2c-24.7,0-44.7,20-44.7,44.7c0,11.9,4.7,23.2,13.1,31.6l40.6,40.6
	c3.4,3.3,8.8,3.2,12.1-0.2c3.2-3.3,3.2-8.6,0-11.9l-40.6-40.6c-10.8-10.8-10.8-28.3,0-39.1c5.2-5.2,12.2-8.1,19.6-8.1H142
	c18.3,0.1,34.8-11.1,41.6-28.2l21.6-54l59.9,30.1c4.2,2.1,9.3,0.4,11.5-3.8c0.6-1.2,0.9-2.5,0.9-3.9v-68.3c0-4.7-3.8-8.6-8.5-8.6
	c-1.3,0-2.7,0.3-3.9,0.9L221,295.9l47.1-86.9c46.3,29,109.9,46.9,180,46.9c4.7,0,8.5-3.8,8.5-8.5C456.6,242.8,452.7,239,448,239
	L448,239z M261.8,184.7c-22.9-15.9-40-38.8-49-65.2h84.3L261.8,184.7z M209.5,102.4c-0.3-2.8-0.4-5.7-0.4-8.5V28l80.6,74.4H209.5z
	 M192,28v74.4h-80.6L192,28z M192,119.5v162.6l-88.1-162.6L192,119.5z M140.8,336.1v-40.7l40.7,20.3L140.8,336.1z M260.3,336.1
	l-40.7-20.3l40.7-20.3V336.1z M209.1,282.1V152c11.7,18.6,26.9,34.7,44.8,47.4L209.1,282.1z"/>
</svg>
