<svg enable-background="new 0 0 512 512" viewBox="0 0 512 512" xmlns="http://www.w3.org/2000/svg"><path d="m448 239c-67.5 0-128.6-17.1-172.1-44.6l40.6-74.9h20.5c4.7 0 8.5-3.8 8.5-8.5s-3.8-8.5-8.5-8.5h-22.3l-108.4-100.2c-.4-.3-.8-.6-1.3-.8-.4-.3-.9-.6-1.4-.9-.9-.4-1.9-.6-2.9-.6-.1 0-.2 0-.2 0-.1 0-.2.1-.2.1-1 0-2 .2-2.9.6-.5.2-.9.5-1.4.9-.4.2-.9.5-1.3.8l-108.5 100h-22.2c-4.7 0-8.5 3.8-8.5 8.5s3.8 8.5 8.5 8.5h20.5l95.6 176.6-44-22.1c-4.2-2.1-9.3-.4-11.5 3.8-.6 1.2-.9 2.5-.9 3.9v68.3c0 4.7 3.8 8.6 8.5 8.6 1.3 0 2.7-.3 3.9-.9l48.2-24.1-16.7 41.7c-4.2 10.5-14.4 17.4-25.7 17.4h-33.2c-24.7 0-44.7 20-44.7 44.7 0 11.9 4.7 23.2 13.1 31.6l40.6 40.6c3.4 3.3 8.8 3.2 12.1-.2 3.2-3.3 3.2-8.6 0-11.9l-40.6-40.6c-10.8-10.8-10.8-28.3 0-39.1 5.2-5.2 12.2-8.1 19.6-8.1h33.2c18.3.1 34.8-11.1 41.6-28.2l21.6-54 59.9 30.1c4.2 2.1 9.3.4 11.5-3.8.6-1.2.9-2.5.9-3.9v-68.3c0-4.7-3.8-8.6-8.5-8.6-1.3 0-2.7.3-3.9.9l-44.1 22.1 47.1-86.9c46.3 29 109.9 46.9 180 46.9 4.7 0 8.5-3.8 8.5-8.5 0-4.6-3.9-8.4-8.6-8.4zm-186.2-54.3c-22.9-15.9-40-38.8-49-65.2h84.3zm-52.3-82.3c-.3-2.8-.4-5.7-.4-8.5v-65.9l80.6 74.4zm-17.5-74.4v74.4h-80.6zm0 91.5v162.6l-88.1-162.6zm-51.2 216.6v-40.7l40.7 20.3zm119.5 0-40.7-20.3 40.7-20.3zm-51.2-54v-130.1c11.7 18.6 26.9 34.7 44.8 47.4z" fill="#ff5a6e"/></svg>