<svg enable-background="new 0 0 152.2 152.2" viewBox="0 0 152.2 152.2" xmlns="http://www.w3.org/2000/svg"><path d="m14.5 35.8c-4.1 0-7.5 3.4-7.5 7.5v101.4c0 4.1 3.4 7.5 7.5 7.5s7.5-3.4 7.5-7.5v-101.4c0-4.1-3.4-7.5-7.5-7.5z"/><path d="m68 115.1c-4.1 0-7.5 3.4-7.5 7.5v22.2c0 4.1 3.4 7.5 7.5 7.5s7.5-3.4 7.5-7.5v-22.2c0-4.2-3.3-7.5-7.5-7.5z"/><path d="m102.9 43.9c-10.4 0-20 3.8-27.4 10.1v-10.7c0-4.1-3.4-7.5-7.5-7.5s-7.5 3.4-7.5 7.5v42.9c0 4.1 3.4 7.5 7.5 7.5s7.5-3.4 7.5-7.5c0-15.1 12.3-27.4 27.4-27.4s27.4 12.3 27.4 27.4v58.5c0 4.1 3.4 7.5 7.5 7.5s7.5-3.4 7.5-7.5v-58.4c0-23.4-19.1-42.4-42.4-42.4z"/><path d="m14.5 15c2 0 3.9-.8 5.3-2.2s2.2-3.3 2.2-5.3-.8-3.9-2.2-5.3c-1.4-1.4-3.4-2.2-5.3-2.2s-3.9.8-5.3 2.2-2.2 3.3-2.2 5.3.8 3.9 2.2 5.3 3.3 2.2 5.3 2.2z"/></svg>