<svg id="Layer_1" data-name="Layer 1" xmlns="http://www.w3.org/2000/svg" viewBox="0 0 512 512"><defs><style>.cls-1{fill:#ebeae6;}.cls-2{fill:#c9c5b5;}.cls-3{fill:#475d6d;}.cls-4{fill:#75dc5e;}.cls-5{fill:#2aad52;}.cls-6{fill:#ff5a59;}.cls-7{fill:#ce3a4c;}.cls-8{fill:#2d1e2f;}</style></defs><title>momentos-ludicos</title><polygon class="cls-1" points="374.63 456.88 29.46 456.88 202.05 157.96 374.63 456.88"/><polygon class="cls-2" points="202.05 157.96 187.31 183.47 345.17 456.88 374.63 456.88 202.05 157.96"/><polygon class="cls-3" points="202.05 456.88 125.39 456.88 202.05 314.24 202.05 456.88"/><polygon class="cls-2" points="202.05 456.88 265.23 421.45 202.05 314.24 202.05 456.88"/><path class="cls-4" d="M158.11,288.63a12.93,12.93,0,0,0,14.42,0L202,268.83l29.51,19.8a12.93,12.93,0,0,0,14.43,0l22.71-15.24-13-22.46-16.95,11.38L209.26,242.5a12.93,12.93,0,0,0-14.42,0l-29.52,19.81-16.95-11.38-13,22.46Z"/><polygon class="cls-5" points="238.77 262.31 229.07 255.8 247.46 287.64 268.69 273.39 255.72 250.93 238.77 262.31"/><path class="cls-6" d="M419.06,55.12a85.44,85.44,0,0,0-85.44,85.44c0,65.72,85.44,122,85.44,122s85.44-56.28,85.44-122A85.44,85.44,0,0,0,419.06,55.12Zm0,124.46a39,39,0,1,1,39-39A39,39,0,0,1,419.06,179.58Z"/><path class="cls-7" d="M419.06,55.12c33.12,0,60,38.25,60,85.44,0,65.72-60,122-60,122s85.44-56.28,85.44-122A85.44,85.44,0,0,0,419.06,55.12Z"/><path class="cls-8" d="M504.5,449.38H379L312.21,333.76h0L210.71,158l34.9-60.44a7.5,7.5,0,1,0-13-7.5L202.05,143,171.48,90a7.5,7.5,0,1,0-13,7.5L193.39,158l-51.51,89.22h0L131,266l-8.28,14.34L74.68,363.57a7.5,7.5,0,0,0,13,7.5l37.72-65.33h0l9.77-16.93,2.73-4.72,16,10.77a20.38,20.38,0,0,0,22.78,0l17.84-12v29.46l-73.65,137H42.45l30.17-52.25a7.5,7.5,0,1,0-13-7.5l-34.5,59.75H7.5a7.5,7.5,0,0,0,0,15h497a7.5,7.5,0,0,0,0-15ZM209.55,377.55V341.74l45.33,76.92-45.33,25.42Zm0-191.6,36.17,62.65-6.95,4.67-25.33-17a21.26,21.26,0,0,0-3.89-2Zm-15,0v48.28a20.74,20.74,0,0,0-3.9,2l-25.33,17-6.95-4.66Zm15,65.78,25,16.8a7.47,7.47,0,0,0,8.35,0l10.3-6.91,4.86,8.43.59,1L241.8,282.4a5.53,5.53,0,0,1-6.07,0l-26.18-17.57v-13.1Zm-41.2,30.68a5.44,5.44,0,0,1-6.06,0h0L145.4,271.07l5.45-9.44,10.29,6.9a7.49,7.49,0,0,0,8.36,0l25.05-16.81v13.1ZM194.55,344V449.38H137.93Zm36.21,105.34L268.9,428a7.5,7.5,0,0,0,2.79-10.35L209.55,312.2V282.89l17.82,12a20.44,20.44,0,0,0,22.79,0l16-10.77,95.43,165.29Z"/><path class="cls-8" d="M414.93,268.82a7.48,7.48,0,0,0,8.25,0c3.63-2.39,88.82-59.29,88.82-128.26A93,93,0,0,0,368.11,62.82a7.5,7.5,0,1,0,8.23,12.54A78,78,0,0,1,497,140.56c0,52.87-61.29,100.8-77.94,112.84-16.65-12.05-77.94-60-77.94-112.84a77.34,77.34,0,0,1,15-46,7.5,7.5,0,1,0-12.09-8.87,92.24,92.24,0,0,0-17.95,54.91C326.12,209.53,411.31,266.43,414.93,268.82Z"/><path class="cls-8" d="M419.06,187.08a46.53,46.53,0,1,0-46.52-46.52A46.57,46.57,0,0,0,419.06,187.08Zm0-78.05a31.53,31.53,0,1,1-31.52,31.53A31.56,31.56,0,0,1,419.06,109Z"/><path class="cls-8" d="M426.56,300.2a7.5,7.5,0,0,0-15,0v3.56a7.5,7.5,0,0,0,15,0Z"/><path class="cls-8" d="M426.56,340.78a7.5,7.5,0,0,0-15,0v3.56a7.5,7.5,0,0,0,15,0Z"/><path class="cls-8" d="M426.56,381.35a7.5,7.5,0,0,0-15,0v3.56a7.5,7.5,0,0,0,15,0Z"/><path class="cls-8" d="M419.06,414.43a7.5,7.5,0,0,0-7.5,7.5v3.56a7.5,7.5,0,0,0,15,0v-3.56A7.5,7.5,0,0,0,419.06,414.43Z"/></svg>