<svg id="Layer_1" data-name="Layer 1" xmlns="http://www.w3.org/2000/svg" viewBox="0 0 512 512"><defs><style>.cls-1{fill:#ce8570;}.cls-2{fill:#ebbf72;}.cls-3{fill:#f4daab;}.cls-4{fill:#c7e1f0;}.cls-5{fill:#2d1e2f;}</style></defs><title>musica</title><path class="cls-1" d="M220,292.07a62.67,62.67,0,0,0-25.1-15.65l93.48-90.92c-37.78-23.76-83.95-22.85-111.91,5.12a73,73,0,0,0-15.3,22.46c-8.91,20.38-28.28,34.48-50.51,35.17-26.87.83-52.1,10.53-71.08,29.52-45,45-37.86,125,15.91,178.81s133.83,60.89,178.81,15.91c19-19,28.69-44.21,29.52-71.08.69-22.23,14.79-41.59,35.17-50.51a73,73,0,0,0,22.46-15.3c27.86-27.86,28.87-73.78,5.39-111.48l-91.17,93.09A62.68,62.68,0,0,0,220,292.07ZM198.72,365.5a36.9,36.9,0,1,1,0-52.19A36.89,36.89,0,0,1,198.72,365.5Z"/><path class="cls-2" d="M454,126.25a14,14,0,0,1-8.75-2.67A13.89,13.89,0,0,0,454,126.25Z"/><path class="cls-2" d="M386.29,62.38a13.91,13.91,0,0,0,3.55,6l7,7-7-7A13.85,13.85,0,0,1,386.29,62.38Z"/><path class="cls-2" d="M462.91,122.61l0,0,0,0,30.32-27.82Z"/><path class="cls-2" d="M399.16,77.72,288.34,185.5l-93.48,90.92a65.5,65.5,0,0,1,40.77,40.79l91.17-93.1L435,113.59,399.16,77.72Z"/><path class="cls-2" d="M443.64,122.19a13.32,13.32,0,0,0,1.63,1.39l-10.24-10Z"/><circle class="cls-3" cx="172.62" cy="339.4" r="36.91"/><path class="cls-4" d="M90.16,113.25c-4.08,12.31,4.15,26.1,18.38,30.82s33-.14,37.08-12.45-8.09-27.4-22.32-32.11S94.24,101,90.16,113.25Z"/><path class="cls-4" d="M369.48,415.35c-9.67,5.83-13.41,17.34-8.37,25.7s17,10.41,26.64,4.57,16.09-18.95,11-27.31S379.15,409.51,369.48,415.35Z"/><path class="cls-4" d="M435.9,375.25c-9.66,5.84-13.41,17.35-8.36,25.71s17,10.4,26.64,4.57,16.08-19,11-27.32S445.57,369.42,435.9,375.25Z"/><path class="cls-1" d="M493.23,94.79a27.16,27.16,0,0,0,.83-39.13L456.37,18a27.09,27.09,0,0,0-39.12.83L389.42,49.12a13.92,13.92,0,0,0-3.57,11,13.44,13.44,0,0,0,.44,2.24,13.85,13.85,0,0,0,3.55,6l7,7,2.33,2.33h0L435,113.59l10.24,10h0a13.89,13.89,0,0,0,8.75,2.67h.23l.83-.08.42,0,.73-.13.51-.11q.33-.07.66-.18t.57-.18a5.89,5.89,0,0,0,.59-.21l.61-.26.54-.25.64-.35.47-.27c.23-.14.46-.31.69-.47l.38-.26c.34-.26.67-.53,1-.82l0,0Z"/><path class="cls-5" d="M48.38,463.65c31.9,31.9,72.7,48.32,111,48.32,30.87,0,60.15-10.64,81.91-32.41,20-20,31.51-47.63,32.44-77.84.55-17.79,12-34.14,29.19-41.66a83.64,83.64,0,0,0,17.6-10.42,80.58,80.58,0,0,0,7.92-7c18.13-18.13,26.87-43.44,24.61-71.26a116.17,116.17,0,0,0-13.81-45.75l95.83-97.85,1.45,1.46a26.28,26.28,0,0,0,2.69,2.29.87.87,0,0,1,.11.09l.16.1c.45.33.92.64,1.39.94l.18.1c.48.3,1,.57,1.48.83l1.09.52.41.19c.43.18.87.35,1.31.51l.22.08c.48.17,1,.32,1.46.46l.07,0q.75.21,1.53.36l.16,0c.47.1.95.18,1.43.24h.08a23.75,23.75,0,0,0,15.83-3.4l.21-.13c.52-.33,1-.68,1.53-1.06a22.37,22.37,0,0,0,1.77-1.48L500,102.15a37.1,37.1,0,0,0,1.14-53.56L463.44,10.9A37.1,37.1,0,0,0,409.88,12L382.06,42.36a22.72,22.72,0,0,0-1.56,1.87A23.88,23.88,0,0,0,379.9,72a23.39,23.39,0,0,0,2.87,3.47l2.15,2.15-98.13,95.44a119,119,0,0,0-36.25-12.85,101.13,101.13,0,0,0-38.46.45,85,85,0,0,0-42.72,22.89A82.8,82.8,0,0,0,152,209.07c-7.52,17.18-23.87,28.64-41.66,29.19a10,10,0,1,0,.62,20c25.47-.79,48.77-16.94,59.37-41.16a63,63,0,0,1,13.2-19.4,64.27,64.27,0,0,1,32.73-17.46,81.12,81.12,0,0,1,30.86-.31,97.37,97.37,0,0,1,24.56,7.87l-83.77,81.46a10,10,0,0,0,4,16.71,55.51,55.51,0,0,1,34.23,34.25,10,10,0,0,0,7.21,6.73,10.38,10.38,0,0,0,2.34.27,10,10,0,0,0,7.14-3l81.71-83.43A95.09,95.09,0,0,1,333.16,273c1.78,21.87-4.9,41.58-18.82,55.5a62.59,62.59,0,0,1-6,5.28A63.74,63.74,0,0,1,295,341.74c-24.22,10.6-40.38,33.9-41.17,59.37s-10,47.71-26.59,64.31c-17.91,17.92-42.09,26.65-67.79,26.64-33.15,0-68.83-14.51-96.87-42.55-40.85-40.85-54-99.43-32-142.46a88.22,88.22,0,0,1,11-16.56c1.64-1.95,3.38-3.85,5.17-5.65A10,10,0,1,0,32.47,270.7c-2.2,2.2-4.34,4.53-6.35,6.93A108.16,108.16,0,0,0,12.67,298C-13.21,348.6,1.48,416.74,48.38,463.65ZM396.79,55.88l27.82-30.31A17.1,17.1,0,0,1,449.29,25L487,62.74a17.08,17.08,0,0,1-.53,24.68l-30.31,27.82a3.72,3.72,0,0,1-.56.42l-.25.14L455,116l-.35.13-.24.06-.43.09h-.12a3.93,3.93,0,0,1-2.22-.44l-.05,0-9.53-9.3L406.24,70.66h0l-9.33-9.33A3.92,3.92,0,0,1,396.79,55.88ZM328.12,208.47,314,222.94,288,249.41l-9.2-9.21a10,10,0,1,0-14.15,14.15L274,263.7l-35.38,36.12a78.41,78.41,0,0,0-26.37-26.4l77.17-75.05,14.5-14.1,2.42-2.36,8.87,8.88a10,10,0,0,0,14.15-14.15L320.71,168l78.36-76.2L421,113.66,395.21,140l-7.71-7.71a10,10,0,0,0-14.14,14.14l7.85,7.86Z"/><path class="cls-5" d="M75.27,357.87a10,10,0,0,0,0,14.15L140,436.76a10,10,0,0,0,14.15-14.14L89.41,357.87A10,10,0,0,0,75.27,357.87Z"/><path class="cls-5" d="M205.79,372.58h0a46.92,46.92,0,1,0-33.17,13.73A47,47,0,0,0,205.79,372.58Zm-60.07-33.17a26.91,26.91,0,0,1,45.93-19,26.89,26.89,0,0,1,0,38.05h0a26.91,26.91,0,0,1-45.93-19Z"/><path class="cls-5" d="M158.25,125.29,179.55,61a299.22,299.22,0,0,0,27.19,14.73,10,10,0,1,0,8.65-18c-22.47-10.79-35.1-20.16-35.22-20.25a10,10,0,0,0-15.5,4.85L145,101.67A47.49,47.49,0,0,0,126.45,90c-19.44-6.44-40,2.57-45.78,20.09s5.29,37,24.73,43.46a46.51,46.51,0,0,0,14.54,2.28,47.52,47.52,0,0,0,13.91-2.06c10.6-3.28,18.35-10.21,21.26-19h0C155.76,132.81,157.83,126.59,158.25,125.29Zm-22.12,3.19h0c-.85,2.55-3.91,4.87-8.2,6.19a27.57,27.57,0,0,1-16.24-.1c-9-3-14.37-11.13-12-18.18,1.76-5.29,7.39-8.48,13.88-8.48a21.11,21.11,0,0,1,6.63,1.09,27.58,27.58,0,0,1,13.09,9.61C135.9,122.24,137,125.93,136.13,128.48Z"/><path class="cls-5" d="M419,406.13a26.63,26.63,0,0,0,18.45,12.29,30.34,30.34,0,0,0,5.12.44,32.51,32.51,0,0,0,16.79-4.77c13.6-8.2,22.87-27.08,14.44-41-.46-.75-2-3.25-2.28-3.77l-34.26-56.77a10,10,0,0,0-14-3.23L358,351.38A10,10,0,0,0,354.9,365L377.27,402a37.94,37.94,0,0,0-13,4.78c-14.37,8.67-19.65,26.36-11.76,39.43A26.68,26.68,0,0,0,371,458.52a30.24,30.24,0,0,0,5.12.43,32.59,32.59,0,0,0,16.79-4.76A38.42,38.42,0,0,0,408,436.88c3.63-8.42,3.41-17.07-.62-23.74l-3.89-6.44L377,362.92l48.4-31.24,18.25,30.24a37.94,37.94,0,0,0-13,4.78C416.36,375.37,411.09,393.06,419,406.13ZM385.1,421.48c2.84.22,4.63,1.16,5.13,2s.51,2.85-.62,5.47a18.42,18.42,0,0,1-7,8.11,12.21,12.21,0,0,1-8.2,1.74,6.76,6.76,0,0,1-4.71-2.92c-2.15-3.56.12-9,5-12a18.55,18.55,0,0,1,9.23-2.48C384.29,421.43,384.7,421.45,385.1,421.48Zm56-37.66a18.55,18.55,0,0,1,9.23-2.48c.41,0,.82,0,1.22,0,2.85.22,4.63,1.17,5.13,2,1.5,2.48-1.65,10-7.64,13.59a12.19,12.19,0,0,1-8.19,1.74,6.77,6.77,0,0,1-4.72-2.92C434,392.22,436.23,386.74,441.07,383.82Z"/><path class="cls-5" d="M434,86a10,10,0,0,0,7.2-3.06l18-18.67A10,10,0,1,0,444.8,50.43l-18,18.66A10,10,0,0,0,434,86Z"/><path class="cls-5" d="M76.54,264.41a10,10,0,0,0,2.16-10.9,10.63,10.63,0,0,0-.92-1.73A9.72,9.72,0,0,0,75,249a10.63,10.63,0,0,0-1.73-.92,10.1,10.1,0,0,0-1.87-.57,9.9,9.9,0,0,0-3.91,0,10.1,10.1,0,0,0-1.87.57,9.93,9.93,0,0,0-5.41,5.41,10,10,0,0,0,3.68,12.14,10.63,10.63,0,0,0,1.73.92,10.1,10.1,0,0,0,1.87.57,9.66,9.66,0,0,0,3.91,0,10.1,10.1,0,0,0,1.87-.57,10,10,0,0,0,3.25-2.16Z"/></svg>