<svg id="Layer_1" data-name="Layer 1" xmlns="http://www.w3.org/2000/svg" viewBox="0 0 512 512"><defs><style>.cls-1{fill:#ff9fc9;}.cls-2{fill:#fff;}.cls-3{fill:#cc6bc2;}.cls-4{fill:#2d1e2f;}</style></defs><title>projetos</title><path class="cls-1" d="M110.35,367.51a63,63,0,0,1-41.93-93.07,69.11,69.11,0,0,1,21.22-133.3A69.11,69.11,0,0,1,187.86,53,69.11,69.11,0,0,1,306.7,37.07a69.07,69.07,0,0,1,92.74,76.38,59,59,0,0,1,47.61,104.3,73.56,73.56,0,0,1-33.23,139.18H394.51"/><path class="cls-2" d="M294.86,117.47V228.75a140,140,0,1,1-86,0V117.47Z"/><path class="cls-3" d="M111.87,362a140,140,0,1,0,274.75-38H117.1A140.15,140.15,0,0,0,111.87,362Z"/><circle class="cls-3" cx="227.93" cy="279.25" r="19"/><circle class="cls-3" cx="294.74" cy="387.56" r="24.02"/><path class="cls-4" d="M278,415.23a10,10,0,0,1-7.07-2.93l-.25-.25a10,10,0,1,1,7.32,3.18Z"/><path class="cls-4" d="M298.62,421.54A10,10,0,0,1,297,401.67a14.15,14.15,0,0,0-2.38-28.1,14.23,14.23,0,0,0-14,12.06,10,10,0,1,1-19.78-2.91,34.33,34.33,0,0,1,33.78-29.15h0a34.15,34.15,0,0,1,5.69,67.82A9.51,9.51,0,0,1,298.62,421.54Z"/><path class="cls-4" d="M252,468a15,15,0,1,1,15-15A15,15,0,0,1,252,468Z"/><path class="cls-4" d="M198.22,415.13a15,15,0,1,1,15-15A15,15,0,0,1,198.22,415.13Z"/><path class="cls-4" d="M252,214.39a15,15,0,1,1,15-15A15,15,0,0,1,252,214.39Z"/><path class="cls-4" d="M227.93,308.25a29,29,0,1,1,29-29A29,29,0,0,1,227.93,308.25Zm0-38a9,9,0,1,0,9,9A9,9,0,0,0,227.93,270.25Z"/><path class="cls-4" d="M463.24,216a69,69,0,0,0-52.65-113.6h-.13v-.74A79.14,79.14,0,0,0,310,25.46,79.12,79.12,0,0,0,183.35,39.52,79.15,79.15,0,0,0,76.1,133a79.13,79.13,0,0,0-21,146.18,73,73,0,0,0,47.43,96.67c7,76.24,71.3,136.15,149.34,136.15,81.06,0,147.29-64.63,149.9-145.07h12.06A83.56,83.56,0,0,0,463.24,216ZM251.86,492a130.13,130.13,0,0,1-130-130,131.52,131.52,0,0,1,3-28h220a10,10,0,0,0,0-20H131a129.51,129.51,0,0,1,80.93-75.75,10,10,0,0,0,6.93-9.51V127.47h66V228.75a10,10,0,0,0,6.93,9.52A130,130,0,0,1,251.86,492Zm162-145.07H401.11a150.19,150.19,0,0,0-96.25-125.28V127.47h7a10,10,0,0,0,0-20h-120a10,10,0,0,0,0,20h7v94.19a150.09,150.09,0,0,0-96.8,132.8,53,53,0,0,1-25-75,10,10,0,0,0-5-14.29A59.11,59.11,0,0,1,86.7,151.45c1.4-.15,5.34-.08,6.86-.08a58.81,58.81,0,0,1,31.94,9.41,45.35,45.35,0,0,0,2.72,61.07,10,10,0,1,0,14.14-14.14,25.3,25.3,0,1,1,35.78-35.78,10,10,0,0,0,14.14-14.14,45.34,45.34,0,0,0-50-9.55,78.84,78.84,0,0,0-45.78-16.81,59.12,59.12,0,0,1,86.21-69.85,10,10,0,0,0,14.38-4.8,59.1,59.1,0,0,1,93.14-22.59A79.31,79.31,0,0,0,264.77,58.9a42.35,42.35,0,0,0-25,4.15,10,10,0,0,0,9,17.87A22.71,22.71,0,0,1,279.25,91a10,10,0,1,0,17.87-9,42.41,42.41,0,0,0-13.28-15.54,59.58,59.58,0,0,1,24.94-19.34c.52-.21,1.45-.73,1.49-.74a59.12,59.12,0,0,1,80.19,55.24c0,1.26,0,2.54-.14,3.83a69.5,69.5,0,0,0-44.94,44.11,48.64,48.64,0,0,0-31.5,45.46,10,10,0,0,0,20,0,28.56,28.56,0,1,1,57.12,0,10,10,0,0,0,20,0,48.62,48.62,0,0,0-42.55-48.18,49.11,49.11,0,0,1,34.85-23.93l.23,0,.56-.07a49,49,0,0,1,36.77,87.06,10,10,0,0,0,1.66,16.78,63.56,63.56,0,0,1-28.7,120.26Z"/></svg>