<?xml version="1.0" encoding="utf-8"?>
<!-- Generator: Adobe Illustrator 22.1.0, SVG Export Plug-In . SVG Version: 6.00 Build 0)  -->
<svg version="1.1" id="Capa_1" xmlns="http://www.w3.org/2000/svg" xmlns:xlink="http://www.w3.org/1999/xlink" x="0px" y="0px"
	 viewBox="0 0 463 463" style="enable-background:new 0 0 463 463;" xml:space="preserve">
<style type="text/css">
	.st0{fill:#6A4C93;}
</style>
<path class="st0" d="M407.5,448h-29.2c-34.2-29.2-84.4-46.4-139.3-47.9v-44.3l34.5-34.5c6.3,1.2,12.7,1.8,19.1,1.8
	c29.5,0,59.2-12.2,81.3-34.3c27.9-27.9,40.1-68,31.7-104.5c-0.6-2.8-2.8-5-5.6-5.6c-36.6-8.4-76.6,3.8-104.5,31.7
	c-26.9,26.9-39.1,65-32.5,100.4L239,334.6V196.3l22.5-22.5c4.4,0.7,8.8,1.1,13.2,1.1c22,0,44.1-9.1,60.5-25.5
	c20.8-20.8,29.8-50.6,23.6-77.9c-0.6-2.8-2.8-5-5.6-5.6c-27.3-6.2-57.1,2.8-77.9,23.6c-19.7,19.7-28.9,47.6-24.4,73.8L239,175.1
	v-14.5c0-23.2-8.9-44.9-25.2-61.4c4.5-26.1-4.7-54-24.4-73.7C168.6,4.7,138.8-4.3,111.5,1.9c-2.8,0.6-5,2.8-5.6,5.6
	c-6.2,27.3,2.8,57.1,23.6,77.9C145.9,101.9,168,111,190,111c4.4,0,8.8-0.4,13.2-1.1c13.4,13.6,20.8,31.6,20.8,50.8v110l-23.9-23.9
	c6.6-35.4-5.7-73.5-32.5-100.4c-27.9-27.9-68-40.1-104.5-31.7c-2.8,0.6-5,2.8-5.6,5.6c-8.4,36.6,3.8,76.6,31.7,104.5
	c22.1,22.1,51.8,34.3,81.3,34.3c6.4,0,12.8-0.6,19.1-1.8l34.5,34.5v108.3c-54.9,1.4-105.1,18.7-139.3,47.9H55.5
	c-4.1,0-7.5,3.4-7.5,7.5s3.4,7.5,7.5,7.5h352c4.1,0,7.5-3.4,7.5-7.5S411.6,448,407.5,448z M306,220.9c23.1-23.1,55.6-33.8,85.9-28.6
	c5.2,30.3-5.5,62.8-28.6,85.9c-20.7,20.7-48.9,31.4-76.4,29.7l70-70c2.9-2.9,2.9-7.7,0-10.6c-2.9-2.9-7.7-2.9-10.6,0l-70,70
	C274.6,269.8,285.4,241.6,306,220.9z M285.9,100.1c15.9-15.9,38.2-23.5,59.2-20.5c3.1,20.9-4.5,43.2-20.5,59.2
	c-13.4,13.4-31.4,20.9-49.2,21.1l43.1-43.1c2.9-2.9,2.9-7.7,0-10.6c-2.9-2.9-7.7-2.9-10.6,0l-43.2,43.2
	C264.9,131.5,272.4,113.5,285.9,100.1z M119.6,15.7c20.9-3.1,43.2,4.5,59.2,20.5c13.4,13.4,20.9,31.4,21.1,49.2l-43.1-43.1
	c-2.9-2.9-7.7-2.9-10.6,0c-2.9,2.9-2.9,7.7,0,10.6L189.4,96c-17.9-0.2-35.8-7.7-49.3-21.1C124.1,58.9,116.5,36.6,119.6,15.7z
	 M99.7,214.2c-23.1-23.1-33.8-55.6-28.6-85.9c30.3-5.2,62.8,5.5,85.9,28.6c20.7,20.7,31.4,48.9,29.7,76.4l-70-70
	c-2.9-2.9-7.7-2.9-10.6,0c-2.9,2.9-2.9,7.7,0,10.6l70,70C148.6,245.6,120.4,234.9,99.7,214.2z M231.5,415c45.7,0,89.5,12.1,121.7,33
	H109.8C141.9,427.1,185.8,415,231.5,415z"/>
</svg>
