<?xml version="1.0" encoding="utf-8"?>
<!-- Generator: Adobe Illustrator 22.1.0, SVG Export Plug-In . SVG Version: 6.00 Build 0)  -->
<svg version="1.1" id="Layer_1" xmlns="http://www.w3.org/2000/svg" xmlns:xlink="http://www.w3.org/1999/xlink" x="0px" y="0px"
	 viewBox="0 0 512 512" style="enable-background:new 0 0 512 512;" xml:space="preserve">
<style type="text/css">
	.st0{fill:#6A4C93;}
</style>
<g>
	<path class="st0" d="M170.7,426.7v42.7h170.7v-42.7h102.4V367c-0.1-48.5-37-89-85.3-93.4V170.7C358.4,113.7,314.1,0,256,0
		S153.6,113.7,153.6,170.7v102.8c-48.3,4.4-85.3,44.9-85.3,93.4v59.7L170.7,426.7z M324.3,452.3H187.7v-25.6h136.5L324.3,452.3z
		 M264.5,409.6h-17.1v-68.3h17.1V409.6z M426.7,366.9v42.7h-68.3v-119C397.3,295,426.6,327.8,426.7,366.9L426.7,366.9z M170.7,170.7
		c0-49.3,40.4-153.6,85.3-153.6s85.3,104.3,85.3,153.6v238.9h-59.7v-76.8c0-4.7-3.8-8.5-8.5-8.5H239c-4.7,0-8.5,3.8-8.5,8.5v76.8
		h-59.7L170.7,170.7z M85.3,409.6v-42.7c0.1-39.1,29.4-71.9,68.3-76.3v119H85.3z"/>
	<path class="st0" d="M256,298.7c37.7,0,68.3-30.6,68.3-68.3s-30.6-68.3-68.3-68.3s-68.3,30.6-68.3,68.3
		C187.8,268.1,218.3,298.6,256,298.7L256,298.7z M256,179.2c28.3,0,51.2,22.9,51.2,51.2s-22.9,51.2-51.2,51.2s-51.2-22.9-51.2-51.2
		S227.7,179.2,256,179.2z"/>
	<path class="st0" d="M256,264.5c18.9,0,34.1-15.3,34.1-34.1s-15.3-34.1-34.1-34.1s-34.1,15.3-34.1,34.1S237.1,264.5,256,264.5z
		 M256,213.3c9.4,0,17.1,7.6,17.1,17.1c0,9.4-7.6,17.1-17.1,17.1c-9.4,0-17.1-7.6-17.1-17.1C238.9,221,246.6,213.3,256,213.3z"/>
	<path class="st0" d="M85.3,443.7h17.1v34.1H85.3V443.7z"/>
	<path class="st0" d="M119.5,460.8h17.1V512h-17.1L119.5,460.8z"/>
	<path class="st0" d="M409.6,443.7h17.1v34.1h-17.1V443.7z"/>
	<path class="st0" d="M375.5,460.8h17.1V512h-17.1V460.8z"/>
	<path class="st0" d="M302.1,102.4c0-23.6-19.1-42.6-42.7-42.7h-6.8c-23.6,0-42.6,19.1-42.7,42.7v8.5h92.2L302.1,102.4z M228.4,93.9
		c3.6-10.2,13.3-17,24.1-17.1h6.8c10.8,0,20.5,6.8,24.1,17.1H228.4z"/>
	<path class="st0" d="M119.5,375.5h17.1v17.1h-17.1L119.5,375.5z"/>
	<path class="st0" d="M375.5,375.5h17.1v17.1h-17.1V375.5z"/>
</g>
</svg>
