<svg enable-background="new 0 0 512 512" viewBox="0 0 512 512" xmlns="http://www.w3.org/2000/svg"><g fill="#f15b6f"><path d="m170.7 426.7v42.7h170.7v-42.7h102.4v-59.7c-.1-48.5-37-89-85.3-93.4v-102.9c-.1-57-44.4-170.7-102.5-170.7s-102.4 113.7-102.4 170.7v102.8c-48.3 4.4-85.3 44.9-85.3 93.4v59.7zm153.6 25.6h-136.6v-25.6h136.5zm-59.8-42.7h-17.1v-68.3h17.1zm162.2-42.7v42.7h-68.3v-119c38.9 4.4 68.2 37.2 68.3 76.3zm-256-196.2c0-49.3 40.4-153.6 85.3-153.6s85.3 104.3 85.3 153.6v238.9h-59.7v-76.8c0-4.7-3.8-8.5-8.5-8.5h-34.1c-4.7 0-8.5 3.8-8.5 8.5v76.8h-59.7zm-85.4 238.9v-42.7c.1-39.1 29.4-71.9 68.3-76.3v119z"/><path d="m256 298.7c37.7 0 68.3-30.6 68.3-68.3s-30.6-68.3-68.3-68.3-68.3 30.6-68.3 68.3c.1 37.7 30.6 68.2 68.3 68.3zm0-119.5c28.3 0 51.2 22.9 51.2 51.2s-22.9 51.2-51.2 51.2-51.2-22.9-51.2-51.2 22.9-51.2 51.2-51.2z"/><path d="m256 264.5c18.9 0 34.1-15.3 34.1-34.1s-15.3-34.1-34.1-34.1-34.1 15.3-34.1 34.1 15.2 34.1 34.1 34.1zm0-51.2c9.4 0 17.1 7.6 17.1 17.1 0 9.4-7.6 17.1-17.1 17.1-9.4 0-17.1-7.6-17.1-17.1 0-9.4 7.7-17.1 17.1-17.1z"/><path d="m85.3 443.7h17.1v34.1h-17.1z"/><path d="m119.5 460.8h17.1v51.2h-17.1z"/><path d="m409.6 443.7h17.1v34.1h-17.1z"/><path d="m375.5 460.8h17.1v51.2h-17.1z"/><path d="m302.1 102.4c0-23.6-19.1-42.6-42.7-42.7h-6.8c-23.6 0-42.6 19.1-42.7 42.7v8.5h92.2zm-73.7-8.5c3.6-10.2 13.3-17 24.1-17.1h6.8c10.8 0 20.5 6.8 24.1 17.1z"/><path d="m119.5 375.5h17.1v17.1h-17.1z"/><path d="m375.5 375.5h17.1v17.1h-17.1z"/></g></svg>