<svg id="Layer_1" data-name="Layer 1" xmlns="http://www.w3.org/2000/svg" viewBox="0 0 512 512"><defs><style>.cls-1{fill:#ff595e;}.cls-2{fill:#fff;}.cls-2,.cls-3{opacity:0.1;}.cls-3{fill:#2d1e2f;}.cls-4{fill:#ffca3a;}.cls-5{fill:#00cdb3;}.cls-6{fill:#fcd27c;}.cls-7{fill:#f9b24b;}.cls-8{fill:#3288d6;}.cls-9{fill:#3590f3;}.cls-10{fill:#2c77af;}.cls-11{fill:#231f20;}</style></defs><title>thanks</title><path class="cls-1" d="M264.68,319.19,140.53,195,8,475.07c-.12.27-7.09,17.45,2.43,27s26.83,2.49,27,2.43l280-132.55L283.2,337.7"/><path class="cls-2" d="M213.23,267.73a258.6,258.6,0,0,0-56.38,180.18l160.55-76Z"/><path class="cls-3" d="M29,506.65c1.73-11.3,101.82-216.95,134.78-288.38L140.53,195,8,475.07c-.9,2-6.93,19.11,3.4,27.85C18.22,508.74,28,506.65,29,506.65Z"/><circle class="cls-4" cx="198.39" cy="97.68" r="15.13"/><circle class="cls-5" cx="423.02" cy="157.42" r="15.13"/><path class="cls-4" d="M317.4,371.91l32.73-15.22L155.78,162.34,140.54,195"/><path class="cls-6" d="M213.23,267.73,317.4,371.91l32.73-15.21-114-114A258.56,258.56,0,0,0,213.23,267.73Z"/><path class="cls-4" d="M120,238.35,80.89,321A45.77,45.77,0,0,0,120,238.35Z"/><path class="cls-7" d="M120,238.35C100.59,279.42,82.1,318.49,80.89,321a46,46,0,0,0,33.75,1l27.58-58.29A45.78,45.78,0,0,0,120,238.35Z"/><path class="cls-4" d="M192.12,397l0,0c-14.37-15.94-32-14.95-32-14.95v0c-42.47-1.7-64.37,50.95-32.52,79.69L204,425.61A45.67,45.67,0,0,0,192.12,397Z"/><path class="cls-7" d="M55.4,374.91l-17.94,37.9a22.83,22.83,0,0,0,33.38,1.13C85,399.76,75.32,375.54,55.4,374.91Z"/><circle class="cls-4" cx="193.05" cy="319.4" r="19.56"/><path class="cls-7" d="M163.76,218.27l15-32.18c-.18-.41-.33-.82-.48-1.24-6.75-6.74-2.19-2.19-22.51-22.51l-.17.37h0L140.53,195Z"/><path class="cls-8" d="M368.51,329.33,183.12,143.93a17,17,0,0,0-24,24L344.54,353.3a16.95,16.95,0,0,0,24-24Z"/><path class="cls-9" d="M344.54,353.3a17,17,0,0,0,24-24L260.9,221.71A260.74,260.74,0,0,0,235,243.78Z"/><path class="cls-10" d="M155.61,162.71h0c1.68,3.83,1.65,3.31,22.7,24.36l.46-1A16.94,16.94,0,0,1,197,162.57h0s5.32.54,1.56-3.21l-15.41-15.42a17,17,0,0,0-27.51,18.78Z"/><path class="cls-11" d="M245,197.92a8.07,8.07,0,0,0-11.42,11.41C368.46,344.26,361.31,335.6,361.31,340.64a8.53,8.53,0,0,1-14.54,6L165.34,165.23a8.52,8.52,0,0,1,12-12L215,190.84a8.07,8.07,0,0,0,11.42-11.41L188.8,141.76c-17.34-17.33-46.77-1.28-41.49,22.76-21,44.93,7.25-14.86-144,304.73-.1.22-9.52,21.94,4,35.46,5.64,5.64,12.69,7.29,19,7.29,18.65,0,10.3-2.73,321.22-147.29,24.19,5.24,39.91-24.29,22.69-41.51Zm-151.7,119,30.33-64.07C151.86,277,130.1,323.5,93.26,316.9Zm-37,94.38a14.19,14.19,0,0,1-6.88-1.76l12.23-25.85C76.21,389.49,71.92,411.28,56.3,411.28Zm152.33,1.06a52.78,52.78,0,0,0-11.83-21.53,8.07,8.07,0,1,0-11.94,10.86,36.8,36.8,0,0,1,8.86,17.72l-64.29,30.43c-22.12-26.56,1.69-66.31,35.57-59.46a8.07,8.07,0,1,0,3.2-15.82c-46.81-9.49-81.26,43.41-53.68,82.34L36.16,494c-3.29,1.28-13,3.74-17.45-.68s-2-14.15-.69-17.43l24.49-51.73a30.47,30.47,0,1,0,26.06-55.06l17.61-37.22c57,15.14,91.39-60.14,44.48-94l12.07-25.5,113.4,113.39a8.07,8.07,0,1,0,11.42-11.41L150,196.86l7.66-16.43L331.59,354.31,315.15,362l-29.49-29.49a8.07,8.07,0,0,0-11.41,11.42l25.37,25.38Z"/><path class="cls-11" d="M172.48,301A27.22,27.22,0,1,0,211,301,27.25,27.25,0,0,0,172.48,301Zm19.25,30.31a11.07,11.07,0,1,1,7.83-18.9A11,11,0,0,1,191.73,331.34Z"/><path class="cls-11" d="M505.33,188.79c-40.16-7.09-52.87,19.27-62.15,38.51S428.86,257,405.16,247c-22-9.3-40.33-10.43-54.53-3.36-11.31,5.63-15.47,14.49-15.91,15.48a8.08,8.08,0,0,0,14.78,6.51c.09-.21,9.6-20.57,49.37-3.76,16.68,7,29.82,6.84,40.16-.63,24.78-17.89,18.49-64.48,63.49-56.53a8.07,8.07,0,1,0,2.81-15.9Z"/><path class="cls-11" d="M246.27,162.56l.12-.06,6.51,14.78c9.14-4,31.94-23.54,12.12-70.44-10-23.7-.09-28.48,19.68-38,19.24-9.28,45.6-22,38.5-62.15a8.07,8.07,0,1,0-15.9,2.81c5,28.11-10.29,35.48-29.62,44.8-17.77,8.57-43.8,20.34-27.53,58.84C266.63,152.13,247.1,162.15,246.27,162.56Z"/><path class="cls-11" d="M307.36,195.28a8.07,8.07,0,1,0,4.92,15.38c33-10.55,53-34.08,55-64.56,1-15.28,6.36-27.19,15.91-35.41C401.62,94.83,430.09,97,430.38,97a8.07,8.07,0,0,0,1.37-16.09c-1.43-.12-35.34-2.8-59,17.47-13,11.16-20.26,26.86-21.57,46.66C349,178.42,319.8,191.3,307.36,195.28Z"/><path class="cls-11" d="M221.26,97.68c0-20.21-24.59-30.65-39.06-16.18a22.91,22.91,0,0,0,0,32.36C196.67,128.32,221.26,117.89,221.26,97.68Zm-22.88-6.74a6.74,6.74,0,1,1-4.76,11.5A6.74,6.74,0,0,1,198.38,90.94Z"/><path class="cls-11" d="M401.65,157.42a22.88,22.88,0,1,0,22.88-22.88A22.86,22.86,0,0,0,401.65,157.42Zm27.64,4.76a6.74,6.74,0,1,1,0-9.52A6.72,6.72,0,0,1,429.29,162.18Z"/><circle class="cls-11" cx="316.8" cy="141.48" r="10.48"/><circle class="cls-11" cx="264.55" cy="18.39" r="10.48"/><path class="cls-11" d="M398.26,294.09l-16.09.51a8.07,8.07,0,0,0,.25,16.14l16.34-.51a8.07,8.07,0,1,0-.5-16.14Z"/><path class="cls-11" d="M228.88,69.92A8.08,8.08,0,0,0,237,62.1l.5-16.08a8.07,8.07,0,0,0-16.14-.51l-.5,16.09A8.07,8.07,0,0,0,228.88,69.92Z"/><path class="cls-11" d="M312.06,82.52a8.07,8.07,0,0,0,8.07,7.81l16.34-.51A8.07,8.07,0,0,0,336,73.69l-16.08.5A8.08,8.08,0,0,0,312.06,82.52Z"/></svg>