<svg id="Layer_1" data-name="Layer 1" xmlns="http://www.w3.org/2000/svg" viewBox="0 0 512 512"><defs><style>.cls-1{fill:#ff595e;}.cls-2{fill:#fff;}.cls-3{fill:#8ac926;}.cls-4{fill:#3590f3;}.cls-5{fill:#6a4c93;}.cls-6{fill:#2d1e2f;}</style></defs><title>trabalhe-aqui</title><circle class="cls-1" cx="228.98" cy="251.99" r="159.98"/><circle class="cls-2" cx="228.98" cy="251.99" r="91.99"/><polygon class="cls-3" points="10.1 99.69 87.19 177.15 154.22 177.15 76.94 99.69 10.1 99.69"/><polygon class="cls-3" points="154.22 177.15 76.94 99.69 76.94 33.03 154.22 110.12 154.22 177.15"/><path class="cls-4" d="M479.58,471H249a12.8,12.8,0,0,1-12.81-12.81V265H492.39V458.17A12.8,12.8,0,0,1,479.58,471Z"/><path class="cls-5" d="M226.56,265v61.33A25.63,25.63,0,0,0,252.18,352h87.76l48.68-.08,87.74.06A25.62,25.62,0,0,0,502,326.33V265Z"/><path class="cls-2" d="M382.21,330.81H346.34a1.92,1.92,0,0,0-1.92,1.92v25.66a19.85,19.85,0,0,0,19.86,19.85h0a19.86,19.86,0,0,0,19.86-19.85V332.73A1.92,1.92,0,0,0,382.21,330.81Z"/><path class="cls-2" d="M311.78,263.67V234.32a8.24,8.24,0,0,1,8.24-8.24h88.52a8.23,8.23,0,0,1,8.23,8.24v29.35Z"/><path class="cls-6" d="M432,202.1l.06.25a10,10,0,1,0,19.43-4.72l-.08-.33A10,10,0,1,0,432,202.1Z"/><path class="cls-6" d="M145,213.15a10,10,0,0,0-12.66,6.29,102.12,102.12,0,0,0,44.06,119.94,10,10,0,0,0,10.33-17.13,82.08,82.08,0,0,1-35.44-96.43A10,10,0,0,0,145,213.15Z"/><path class="cls-6" d="M200.41,175.11a82.11,82.11,0,0,1,84.76,17.18,10,10,0,1,0,13.71-14.56,102.08,102.08,0,0,0-105.44-21.36,10,10,0,1,0,7,18.74Z"/><path class="cls-6" d="M512,265a10,10,0,0,0-10-10H426.77V234.32a18.26,18.26,0,0,0-18.23-18.24H395.11A170,170,0,0,0,198.48,84.76a10,10,0,0,0,3.57,19.67A150,150,0,0,1,374.61,216.08H320a18.26,18.26,0,0,0-18.23,18.24V255H226.56a10,10,0,0,0-10,10v61.33a35.5,35.5,0,0,0,9.61,24.3V402A150,150,0,0,1,82,221.94a10,10,0,1,0-19.6-4,170,170,0,0,0,163.75,204v36.23a23,23,0,0,0,.17,2.77C112.32,459.52,20,366.35,20,252A208.56,208.56,0,0,1,46.37,150.31l33.73,33.9a10,10,0,0,0,7.09,2.94h62.89l61.65,61.66a10,10,0,1,0,14.14-14.14L164.22,173V110.12a10,10,0,0,0-2.94-7.08L127.45,69.3a209.1,209.1,0,0,1,291.23,94.91,10,10,0,0,0,18.15-8.41,229.11,229.11,0,0,0-324-101.14L84,26A10,10,0,0,0,66.94,33V89.69H10.1A10,10,0,0,0,3,106.75l28.73,28.87A229,229,0,0,0,229,481h250.6a22.83,22.83,0,0,0,22.81-22.81V350.65A35.37,35.37,0,0,0,512,326.33V265h0ZM86.94,57.13l57.28,57.14V153L86.94,95.56ZM72.79,109.69l57.29,57.46H91.35L34.16,109.69Zm249,126.39h85V255h-85ZM236.56,275H492v51.33A15.62,15.62,0,0,1,476.38,342h0l-82.23-.05v-9.17a11.94,11.94,0,0,0-11.93-11.92H346.34a11.94,11.94,0,0,0-11.92,11.92V342H252.18a15.64,15.64,0,0,1-15.62-15.63V275Zm137.58,65.81v17.58a9.86,9.86,0,0,1-19.72,0V340.81ZM479.58,461H248.87a2.8,2.8,0,0,1-2.71-2.8V361.45a36.23,36.23,0,0,0,6,.51h82.46a29.85,29.85,0,0,0,59.28-.07l82.43.06h0a35.34,35.34,0,0,0,6-.52V413H416.77a10,10,0,0,0,0,20h65.62v25.19A2.81,2.81,0,0,1,479.58,461Z"/><path class="cls-6" d="M367.78,413a10,10,0,1,0,7.07,2.93A10.1,10.1,0,0,0,367.78,413Z"/></svg>