<svg id="Layer_1" data-name="Layer 1" xmlns="http://www.w3.org/2000/svg" viewBox="0 0 512 512"><defs><style>.cls-1{fill:#75dc5e;}.cls-2{fill:#2aad52;}.cls-3{fill:#e49656;}.cls-4{fill:#c67132;}.cls-5{fill:#f9dc6a;}.cls-6{fill:#e5b751;}.cls-7{fill:#ebeae6;}.cls-8{fill:#be6351;}</style></defs><title>trilha</title><path class="cls-1" d="M480.18,242.16a102.85,102.85,0,0,0-42.88-83.62A124.4,124.4,0,0,0,203.35,78.65,133.8,133.8,0,0,0,81.2,310.83a66,66,0,0,0,39.05,119.11c1.56,0,3.11-.08,4.64-.18A55.08,55.08,0,0,0,232,411.64c0-27.37,40.26-27.37,40.26,0a55.08,55.08,0,0,0,107.09,18.12c1.54.1,3.08.18,4.65.18a65.94,65.94,0,0,0,53.6-104.36A102.86,102.86,0,0,0,480.18,242.16Z"/><path class="cls-2" d="M480.18,242.16a102.85,102.85,0,0,0-42.88-83.62A124.4,124.4,0,0,0,301.53,8.32,124.47,124.47,0,0,1,408.8,158.54a103,103,0,0,1,.29,167,65.95,65.95,0,0,1-53.61,104.36c-1.57,0-3.11-.08-4.65-.18a55.18,55.18,0,0,1-37.76,35.08,55.1,55.1,0,0,0,66.26-35.08c1.54.1,3.08.18,4.65.18a65.94,65.94,0,0,0,53.6-104.36A102.86,102.86,0,0,0,480.18,242.16Z"/><path class="cls-3" d="M297.3,371.83V504.5H206.92V371.83Z"/><path class="cls-4" d="M297.3,371.83V504.5H273.08V371.83Z"/><path class="cls-4" d="M297.3,371.83V397H206.92V371.83Z"/><polygon class="cls-5" points="156.31 193.29 156.31 371.83 347.91 371.83 347.91 193.29 252.11 144.87 156.31 193.29"/><polygon class="cls-6" points="252.11 144.87 240.36 150.81 324.41 193.29 324.41 371.83 347.91 371.83 347.91 193.29 252.11 144.87"/><path class="cls-7" d="M272.82,255.32H231.4a10.07,10.07,0,0,0-10.06,10.06V306.8a10.06,10.06,0,0,0,10.06,10.06h41.42a10.05,10.05,0,0,0,10.06-10.06V265.38A10.06,10.06,0,0,0,272.82,255.32Z"/><path class="cls-8" d="M378.26,216.66a14.06,14.06,0,0,1-5.92-1.31L252.11,159.72,131.88,215.35A14.12,14.12,0,1,1,120,189.72l126.16-58.38a14.13,14.13,0,0,1,11.86,0L384.2,189.72a14.12,14.12,0,0,1-5.94,26.94Z"/><path class="cls-7" d="M233.8,392.32H190.42a3.82,3.82,0,0,0-3.82,3.82v14.62a3.81,3.81,0,0,0,3.82,3.81H233.8a3.81,3.81,0,0,0,3.81-3.81V396.14A3.82,3.82,0,0,0,233.8,392.32Z"/><path class="cls-7" d="M313.8,456.79H270.43a3.81,3.81,0,0,0-3.82,3.81v14.62a3.82,3.82,0,0,0,3.82,3.82H313.8a3.82,3.82,0,0,0,3.82-3.82V460.6A3.81,3.81,0,0,0,313.8,456.79Z"/><path d="M487.68,242.16a110.87,110.87,0,0,0-42.11-86.78,132.15,132.15,0,0,0,2.1-23.5C447.67,59.16,388.51,0,315.79,0A131.9,131.9,0,0,0,199.42,69.78a141.44,141.44,0,0,0-161,75.7A7.5,7.5,0,0,0,51.91,152a126.32,126.32,0,0,1,191.72-44.32,7.5,7.5,0,1,0,9.27-11.79,140.86,140.86,0,0,0-38.8-21.68A116.9,116.9,0,0,1,430,156.93a7.51,7.51,0,0,0,2.94,7.69,95.48,95.48,0,0,1,.27,154.89A7.49,7.49,0,0,0,431.49,330,58.44,58.44,0,0,1,384,422.44c-1.22,0-2.53-.05-4.13-.16a7.49,7.49,0,0,0-7.6,5,47.67,47.67,0,0,1-26.82,28.36,7.5,7.5,0,1,0,5.72,13.86,62.64,62.64,0,0,0,33.18-32.07,73.46,73.46,0,0,0,63.28-110.15A110.94,110.94,0,0,0,487.68,242.16Z"/><path d="M231.4,324.36h41.42a17.58,17.58,0,0,0,17.56-17.56V265.38a17.58,17.58,0,0,0-17.56-17.56H231.4a17.58,17.58,0,0,0-17.56,17.56V306.8A17.58,17.58,0,0,0,231.4,324.36Zm-2.56-59a2.56,2.56,0,0,1,2.56-2.56h41.42a2.56,2.56,0,0,1,2.56,2.56V306.8a2.56,2.56,0,0,1-2.56,2.56H231.4a2.56,2.56,0,0,1-2.56-2.56Z"/><path d="M313.8,449.29h-9v-70h91.6a7.5,7.5,0,0,0,0-15h-41V215.78l13.78,6.38a21.62,21.62,0,1,0,18.16-39.25L330.28,156.5a7.5,7.5,0,1,0-6.3,13.61l57.07,26.41a6.62,6.62,0,1,1-5.56,12L255.26,152.91a7.54,7.54,0,0,0-6.3,0L128.73,208.54a6.61,6.61,0,0,1-8.79-3.23,6.63,6.63,0,0,1,3.23-8.79l126.16-58.37a6.59,6.59,0,0,1,5.56,0l41.92,19.4a7.5,7.5,0,0,0,6.3-13.62l-41.92-19.39a21.59,21.59,0,0,0-18.16,0L116.87,182.91A21.62,21.62,0,1,0,135,222.16l13.78-6.38V364.33h-41a7.5,7.5,0,0,0,0,15h91.6v5.49h-9a11.34,11.34,0,0,0-11.32,11.32v14.62a11.33,11.33,0,0,0,11.32,11.31h9v31.49A47.59,47.59,0,0,1,132,427.29a7.5,7.5,0,0,0-7.61-5c-1.52.11-2.86.16-4.12.16A58.45,58.45,0,0,1,85.65,316.87,7.51,7.51,0,0,0,85.94,305,126.38,126.38,0,0,1,42.6,178.37,7.5,7.5,0,1,0,28,175,141.4,141.4,0,0,0,69.66,310.74a73.44,73.44,0,0,0,50.23,126.7A62.58,62.58,0,0,0,199.42,470V504.5a7.5,7.5,0,0,0,15,0V422.08h19.37a11.34,11.34,0,0,0,11.32-11.32V396.14a11.34,11.34,0,0,0-11.32-11.32H214.42v-5.49H289.8v70H270.43a11.33,11.33,0,0,0-11.32,11.31v14.62a11.34,11.34,0,0,0,11.32,11.32H289.8v18a7.5,7.5,0,0,0,15,0v-18h9a11.34,11.34,0,0,0,11.32-11.32V460.6A11.33,11.33,0,0,0,313.8,449.29Zm-83.69-42.21h-36v-7.26h36v7.26Zm22-239.09,88.3,40.85v7.91h-16a7.5,7.5,0,0,0,0,15h16V255h-16a7.5,7.5,0,0,0,0,15h16v23.25h-16a7.5,7.5,0,0,0,0,15h16V331.5h-16a7.5,7.5,0,0,0,0,15h16v17.83H163.81V346.5h16a7.5,7.5,0,0,0,0-15h-16V308.25h16a7.5,7.5,0,0,0,0-15h-16V270h16a7.5,7.5,0,0,0,0-15h-16V231.75h16a7.5,7.5,0,0,0,0-15h-16v-7.91Zm58,303.55h-36v-7.25h36v7.25Z"/></svg>