<svg enable-background="new 0 0 198.737 198.737" viewBox="0 0 198.737 198.737" xmlns="http://www.w3.org/2000/svg"><path d="m197.399 42.479c-2.36-3.401-7.034-4.247-10.438-1.886l-23.288 16.159c-2.115 1.467-3.329 3.916-3.218 6.487.067 1.542.1 2.988.1 4.42 0 47.603-36.222 96.84-96.839 96.84-12.357 0-24.497-2.352-35.843-6.889l35.939-10.052c3.989-1.116 6.318-5.254 5.202-9.243-1.116-3.988-5.25-6.318-9.243-5.202l-54.291 15.186c-2.846.796-4.959 3.189-5.397 6.112-.437 2.922.882 5.83 3.37 7.425 18.024 11.555 38.863 17.664 60.263 17.664 42.057 0 68.398-19.87 83.091-36.538 18.27-20.728 28.748-48.174 28.748-75.302 0-.297-.001-.594-.003-.892l19.961-13.85c3.402-2.362 4.247-7.035 1.886-10.439z"/><path d="m16.555 40.14 75.585 38.315c1.072.544 2.234.811 3.39.811 1.646 0 3.282-.541 4.629-1.598 2.293-1.798 3.337-4.761 2.677-7.6-.501-2.154-.754-4.396-.754-6.662 0-16.083 13.087-29.168 29.173-29.168 8.041 0 15.804 3.357 21.296 9.211 2.052 2.188 5.211 2.941 8.031 1.917l23.328-8.476c3.893-1.415 5.903-5.717 4.488-9.61-1.414-3.894-5.72-5.901-9.61-4.488l-18.983 6.897c-7.929-6.692-18.083-10.452-28.55-10.452-22.93 0-41.835 17.561-43.972 39.938l-63.946-32.414c-3.695-1.874-8.208-.396-10.081 3.298-1.873 3.695-.396 8.208 3.299 10.081z"/><path d="m12.689 85.053 16.608 4.585c.668.185 1.339.272 2 .272 3.289 0 6.307-2.181 7.225-5.506 1.103-3.992-1.241-8.123-5.233-9.226l-16.608-4.585c-3.99-1.102-8.123 1.24-9.226 5.233-1.102 3.994 1.241 8.124 5.234 9.227z"/><path d="m27.25 107.376c-4.139.157-7.367 3.639-7.21 7.778.153 4.043 3.478 7.216 7.49 7.216.096 0 .192-.002.288-.005l16.562-.628c4.139-.157 7.367-3.639 7.211-7.779-.157-4.139-3.648-7.363-7.778-7.21z"/></svg>