<svg enable-background="new 0 0 209.673 209.673" viewBox="0 0 209.673 209.673" xmlns="http://www.w3.org/2000/svg"><path d="m173.075 29.203h-136.476c-20.181 0-36.599 16.423-36.599 36.609v78.05c0 20.186 16.418 36.608 36.599 36.608h136.477c20.18 0 36.598-16.422 36.598-36.608v-78.05c-.001-20.186-16.419-36.609-36.599-36.609zm21.598 114.658c0 11.915-9.689 21.608-21.598 21.608h-136.476c-11.91 0-21.599-9.693-21.599-21.608v-78.05c0-11.915 9.689-21.608 21.599-21.608h136.477c11.909 0 21.598 9.693 21.598 21.608v78.05z"/><path d="m145.095 98.57-55.596-36.65c-2.303-1.519-5.254-1.649-7.684-.342-2.429 1.308-3.944 3.845-3.944 6.604v73.309c0 2.759 1.515 5.295 3.944 6.604 1.113.6 2.336.896 3.555.896 1.442 0 2.881-.415 4.129-1.239l55.596-36.659c2.105-1.388 3.372-3.74 3.372-6.262 0-2.521-1.267-4.873-3.372-6.261zm-52.224 28.992v-45.453l34.471 22.723z"/></svg>