<?xml version="1.0" encoding="utf-8"?>
<!-- Generator: Adobe Illustrator 19.1.0, SVG Export Plug-In . SVG Version: 6.00 Build 0)  -->
<svg version="1.1" id="Layer_1" xmlns="http://www.w3.org/2000/svg" xmlns:xlink="http://www.w3.org/1999/xlink" x="0px" y="0px"
	 viewBox="0 0 402.2 193.3" style="enable-background:new 0 0 402.2 193.3;" xml:space="preserve">
<style type="text/css">
	.st0{fill:#6D251D;}
	.st1{fill:#98BC5C;}
	.st2{fill:#BAD869;}
	.st3{fill:#6A8B41;}
</style>
<path class="st0" d="M193.7,70.1c0-2.3,0-4.3-0.2-6.2c1-0.3,2.5-0.6,3.9-0.7c3.2,0,8.8,0,12.5,0c-0.1,1.3-0.6,2.2-1.2,2.7
	c-0.6,0.3-1.7,0.3-3.9,0.3h-6.8v10.4h11.5c-0.5,2.6-1.4,3-3,3h-8.4v11.2c1,0.3,3.6,0.4,5.9,0.4c2.2,0,5.4,0,7.3-0.2l0,0.1
	c-0.3,1.5-1.1,2.5-2.3,3c-0.6,0.1-2.4,0.2-5.9,0.2c-4,0-7.5-0.2-8.7-0.5l-0.7-0.9V70.1z"/>
<path class="st0" d="M221.4,71.9c1.8,0,3.8,0.5,5,1.7c0.1,0.9-0.5,2.3-1.6,2.2c-1-0.5-2.4-0.9-3.6-0.9c-1.9,0-3.3,1.1-3.3,2.8
	c0,1.4,1,2.3,2.1,2.9c1.3,0.7,2.9,1.4,4.4,2.3c2.2,1.2,3.2,3,3.2,4.9c0,4.7-4.1,6.8-8,6.8c-2.4,0-4.4-0.7-5.5-1.6
	c-0.4-0.4-0.6-0.9-0.5-1.4c0.1-0.7,0.4-1.4,1-1.7c1.4,1,3.4,1.7,5.3,1.7c2.4,0,3.7-1.3,3.7-2.9c0-1.2-0.7-2.1-2.4-3
	c-1.3-0.7-2.5-1.2-3.7-1.9c-2.1-1.1-3.5-2.8-3.5-5.4C213.9,74.3,217.4,71.9,221.4,71.9L221.4,71.9z"/>
<path class="st0" d="M247.6,90.4c-0.1,1.1-0.5,2.3-1.3,2.9c-1.1,0.7-3.2,1.2-5.3,1.2c-5,0-11.1-2.4-11.1-11
	c0-6.8,5.1-11.6,11.8-11.6c3.2,0,5.5,1.1,6.2,1.8c0,1.1-0.6,2.4-1.8,2.3c-1.3-0.6-3-1-4.5-1c-4.3,0-7.3,3.2-7.3,8.1
	c0,6.4,4.6,8.2,8,8.2c1.8,0,3.9-0.4,5.2-1L247.6,90.4z"/>
<path class="st0" d="M260.2,71.9c6.9,0,10.5,4.9,10.5,11.1c0,6.5-4.2,11.6-10.8,11.6c-7.2,0-10.7-5.3-10.7-11.1
	C249.1,77,253.6,71.9,260.2,71.9L260.2,71.9z M259.7,74.6c-3.3,0-6.2,2.9-6.2,8.3c0,6,3,9,6.6,9c3,0,6-2.5,6-8.5
	C266.2,78.8,264.2,74.6,259.7,74.6L259.7,74.6z"/>
<path class="st0" d="M273.9,66.7c0-2.9-0.1-4.4-0.2-5.4c1-0.5,2.9-0.7,3.7-0.7c0.5,0,0.7,0.2,0.7,3.2v23.7c0,2.4,0.1,5.1,0.2,6.4
	c-0.9,0.3-3.1,0.4-3.7,0.4c-0.4,0-0.7-0.1-0.7-0.6V66.7z"/>
<path class="st0" d="M299.5,91.5c0,2-1.1,3.1-3.2,3.1c-2.1,0-3.1-1.5-3.4-3.1c-1.4,1.5-3.7,3.1-6.3,3.1c-3.4,0-5.7-2.6-5.7-5.6
	c0-5.3,6.9-6.7,9.5-7.3c0.9-0.2,1.8-0.4,2.5-0.5v-1.5c0-2.3-1.3-4.5-4.3-4.5c-1.8,0-3.7,0.9-5,1.8c-1.3,0.5-2-0.6-2.1-1.8
	c1.6-1.4,4.8-3.3,8.1-3.3c4.9,0,7.3,3.5,7.3,8.2c0,2.1-0.1,6.8-0.1,9.8c0,1,0.6,1.6,1.7,1.6c0.2,0,0.6,0,0.9-0.1L299.5,91.5z
	 M285,88.4c0,1.8,1.5,2.9,3.2,2.9c2.1,0,3.5-1.3,4.2-2.3c0.2-0.3,0.3-0.8,0.3-1.6v-3.8C288.8,84.2,285,85.6,285,88.4L285,88.4z"/>
<path class="st0" d="M197.4,103.6c0.7,0,0.9,0.6,2.2,4c1.6,4.4,4.7,12.5,8.2,21.9c3.1-8.5,6.6-17.4,9.7-25.9c1,0,2.2,0.2,2.7,0.5
	c0.7,0.2,0.8,0.7,0.4,1.9c-3.5,9.3-7.3,18.2-11,27.2c-0.3,0.7-0.6,1.2-1,1.4c-0.4,0.3-1.6,0.5-2.9,0.5c-3.8-9.8-7.8-20.7-12.2-30.5
	C194.6,104.1,196.3,103.6,197.4,103.6z"/>
<path class="st0" d="M225.2,102.4c1.3,0,2.2,1,2.2,2.4c0,1.3-0.9,2.5-2.4,2.5c-1.3,0-2.4-0.8-2.4-2.4
	C222.6,103.2,224.1,102.4,225.2,102.4L225.2,102.4z M227.1,133.3c0,0.9-0.3,1.1-1,1.2c-0.6,0.2-1.9,0.2-3.2,0.3
	c0.1-2,0.2-4.9,0.2-7.7v-8.4c0-3-0.1-4.5-0.2-5.5c0.8-0.3,2.9-0.5,3.6-0.5c0.5,0,0.7,0.2,0.7,3.1V133.3z"/>
<path class="st0" d="M231.9,107.2c0-2.9-0.1-4.4-0.2-5.4c1-0.4,2.9-0.7,3.7-0.7c0.5,0,0.7,0.3,0.7,3.2V128c0,2.4,0.1,5.1,0.2,6.4
	c-0.9,0.2-3.1,0.4-3.7,0.4c-0.4,0-0.6-0.2-0.6-0.6V107.2z"/>
<path class="st0" d="M257.5,132c0,2-1.1,3-3.1,3c-2.1,0-3.2-1.5-3.5-3.1c-1.4,1.5-3.7,3.1-6.3,3.1c-3.4,0-5.7-2.6-5.7-5.5
	c0-5.3,6.9-6.7,9.5-7.3c0.9-0.2,1.8-0.4,2.4-0.5v-1.5c0-2.3-1.3-4.5-4.3-4.5c-1.8,0-3.7,0.9-5,1.8c-1.3,0.5-2-0.6-2.1-1.8
	c1.6-1.4,4.8-3.3,8.1-3.3c4.9,0,7.3,3.5,7.3,8.2c0,2.1-0.2,6.8-0.1,9.8c0.1,1,0.6,1.6,1.7,1.6c0.3,0,0.7,0,1-0.1L257.5,132z
	 M243,128.9c0,1.8,1.5,2.9,3.3,2.9c2.1,0,3.5-1.3,4.2-2.3c0.2-0.3,0.4-0.8,0.4-1.6v-3.8C246.8,124.7,243,126.1,243,128.9L243,128.9z
	"/>
<path class="st0" d="M275.8,124.9c-1.7,4-3.3,7.6-4.1,9.3c-0.2,0.4-0.5,0.6-1.1,0.6c-0.8,0-2.2-0.3-2.9-0.6V134
	c2.8-6,11-24.7,12.6-28.5l-0.6-1.4c1.1-0.2,2.7-0.5,3.3-0.5c0.6,0,0.9,0.3,1.1,0.8c2.3,5.2,6.5,15.7,8.5,20.2c2,4.6,3.3,7.7,4.1,9.5
	v0.2c-1,0.4-2.9,0.5-3.7,0.5c-0.6,0-1-0.3-1.5-1.5c-1.1-2.6-1.9-4.5-3.5-8.4H275.8z M287.1,121.9c-2.7-6.7-4.4-10.8-5.1-12.5
	c-1.7,4-3.3,7.9-5.2,12.5H287.1z"/>
<path class="st0" d="M300,107.2c0-2.9-0.1-4.4-0.2-5.4c1-0.4,2.9-0.7,3.6-0.7c0.5,0,0.7,0.3,0.7,3.2V128c0,2.4,0.1,5.1,0.2,6.4
	c-0.9,0.2-3.1,0.4-3.7,0.4c-0.5,0-0.6-0.2-0.6-0.6V107.2z"/>
<path class="st0" d="M312.3,143.5c0,0.8-0.1,1-0.9,1.2c-1.2,0.1-2.1,0.2-3.3,0.2c0.1-1.4,0.2-4.2,0.2-8.6v-19.3
	c0-1.6-0.3-2.5-0.9-2.8v-0.2c0.5-0.7,1.7-1.7,2.8-1.7c1.1,0,1.9,1.3,2,3.2c2.9-2.2,5.4-3.2,7.6-3.2c4.3,0,8.7,3.3,8.7,10.4
	c0,7.3-5.2,12.2-11.6,12.2c-1.7,0-3.4-0.5-4.5-1.2V143.5z M312.3,131.1c1,0.6,2.6,1.1,4.2,1.1c3,0,7.5-2.1,7.5-8.9
	c0-4.5-2.6-7.5-6-7.5c-2.4,0-4.7,1.5-5.7,2.3V131.1z"/>
<path class="st0" d="M335.8,115.7c2-1.7,4.4-3.3,7.3-3.3c5.5,0,7.1,4.4,7.1,9.1v6.7c0,3.1,0,5.1,0.1,6.2c-0.9,0.2-2.2,0.4-3.6,0.4
	c-0.5,0-0.7-0.3-0.7-0.8c0-2,0.1-8,0.1-12.2c0-4.5-2.1-6-4.7-6c-2.5,0-4.6,1.6-5.6,2.6v15c0,0.8-0.2,1.1-0.9,1.2
	c-1.1,0.2-2.3,0.2-3.3,0.2c0.1-1.8,0.1-4.7,0.1-9v-18.5c0-2.9-0.1-4.5-0.2-5.5c1.3-0.4,2.9-0.7,3.6-0.7c0.5,0,0.7,0.3,0.7,3.2V115.7
	z"/>
<path class="st0" d="M372.3,132c0.1,2-1.1,3-3.1,3c-2.1,0-3.1-1.5-3.4-3.1c-1.4,1.5-3.7,3.1-6.3,3.1c-3.4,0-5.7-2.6-5.7-5.5
	c0-5.3,6.9-6.7,9.5-7.3c0.9-0.2,1.8-0.4,2.5-0.5v-1.5c0-2.3-1.3-4.5-4.3-4.5c-1.8,0-3.7,0.9-5,1.8c-1.3,0.5-2-0.6-2.1-1.8
	c1.6-1.4,4.8-3.3,8.1-3.3c5,0,7.3,3.5,7.3,8.2c0,2.1-0.1,6.8-0.1,9.8c0,1,0.6,1.6,1.7,1.6c0.3,0,0.6,0,0.9-0.1L372.3,132z
	 M357.9,128.9c0,1.8,1.5,2.9,3.2,2.9c2.1,0,3.5-1.3,4.2-2.3c0.2-0.3,0.4-0.8,0.4-1.6v-3.8C361.7,124.7,357.9,126.1,357.9,128.9
	L357.9,128.9z"/>
<path class="st1" d="M106.1,94.3C81.8,73.6,33.7,61.4,33.7,61.4l1.2,72.2c0,0,56.6,11.8,71,34c0,0.1,0,0.1,0,0.1c0,0,0,0,0-0.1
	c0,0,0,0,0,0c0,0,0,0,0,0c14.5-22.2,71-34,71-34l1.2-72.2C178.4,61.5,130.4,73.6,106.1,94.3z"/>
<path class="st2" d="M106.1,88.7C85.8,66.4,45.7,53.2,45.7,53.2l1,78.1c0,0,47.2,12.8,59.3,36.8c0,0.1,0,0.1,0,0.2c0,0,0-0.1,0-0.1
	c0,0,0,0,0,0c0,0,0,0,0,0c12.1-24,59.3-36.8,59.3-36.8l1-78.1C166.4,53.2,126.4,66.4,106.1,88.7z"/>
<path class="st3" d="M105.4,103.2c0.1,0.1-0.8,3.5-0.7,3.6C169,82.2,157.5,56.8,162,50.5c0,0-2.2,3.1-7.1,5.7
	c-14,7.3-49.5-3.5-58.8,29.1c0,0,0,0,0,0.1c-8.4,58.1,40.4-11.9,52.7-18.3c1.2-0.5,2.4-1.2,3.6-1.9c-0.1,0.1-0.2,0.3-0.4,0.4
	c-11.8,10.5-43.2,6.7-48.9,35.9c-0.2,0.6-0.3,1.3-0.4,2c0,0.1-0.1,0.2-0.1,0.4c-0.2,1.3-0.4,2.6-0.5,4.1c-0.1,1-0.1,1.9-0.1,3
	C102,111.2,105.1,105.6,105.4,103.2z"/>
<path class="st1" d="M100.9,116.5c0.5-0.1,1.1-0.2,1.6-0.2c0.1-0.6,0.1-1.4,0-2.6c-0.2-2.9,6.3-6.3,7.8-7
	c60.5-28.4,51.8-58.9,51.8-58.9s-3.4,4.3-8.2,6.9c-14,7.3-50.1-4.3-59.4,28.2c0,0,0,0.1,0,0.1c-0.4,1.3-0.7,2.6-1,4
	c-1.5,6.2,0.6,21.5,2,23.6c0,0,4.8,0.3,4.8,0.3c0.6,0.7-3.9-8.3-0.8-17.8c8.2-25.5,35.4-22,47.8-28.4c1.2-0.5,2.5-1.2,3.7-1.9
	c-0.1,0.1-0.2,0.3-0.4,0.4c-11.8,10.5-43.2,6.7-48.9,36c-0.2,0.6-0.3,1.3-0.4,2c0,0.1-0.1,0.2-0.1,0.4c-0.2,1.3-0.4,2.6-0.5,4.1
	c0,1-0.1,1.9-0.1,3c0,0.4-0.1,2.4-0.1,2.9c0.1,2.5-0.3,3.4-0.8,3.4C100,115.4,100.5,116,100.9,116.5z"/>
<path class="st3" d="M95.4,109.5c0.1,0,3.3,3.3,3.4,3.3c18.8-77.2-13.5-84.8-17-93.6c0,0,1.8,4.3,0.7,10.6
	c-3,18.1-43,42.1-14.4,74.7c0,0,0,0.1,0.1,0.1c57.6,50.8,18.8-45.3,21.4-61.2c0.3-1.5,0.6-3.1,0.8-4.7c0,0.2,0.1,0.5,0.1,0.6
	c2.3,18.4-26.7,44,1.2,70.8c0.6,0.6,1.2,1.2,1.9,1.9c0.1,0.1,0.2,0.2,0.3,0.3c1.2,1.2,2.6,2.3,4.1,3.5c1,0.8,2.1,1.6,3.2,2.3
	C101.7,118.5,97.8,111.5,95.4,109.5z"/>
<path class="st1" d="M91.3,112.9c0.9,0.8,1.9,1.5,3,2.3c0.4,0.3,2.4,1.9,2.8,2.2c2.6,1.7,3.3,2.7,2.9,3.2c1.1,0.1,2.1,0.1,2.8,0
	c0.3-0.5,0.6-1.1,1-1.6c-0.5-0.5-1.3-1.1-2.6-1.9c-3.1-1.9-1.9-10-1.5-11.8c14.7-73.3-22.9-87.9-22.9-87.9s2,6.1,1.1,12.2
	C75.2,47,37.1,70,63.7,101.7c0,0,0,0,0.1,0.1c1,1.2,2.1,2.5,3.4,3.8c5.2,5.8,22.5,15.1,25.7,15.4c0,0,3.7-4,3.8-4
	c1.2-0.1-3.9,5.7-18.7-12.5c-20.7-25.3,3-46.5,5.3-62c0.3-1.4,0.6-3,0.7-4.6c0,0.2,0.1,0.4,0.1,0.6c2.2,17.9-24.5,42.5,1.4,68.7
	c0.5,0.6,1.1,1.2,1.7,1.8c0.1,0.1,0.2,0.2,0.3,0.3"/>
<path class="st0" d="M161.3,60.2c-5.5,23.9-41.5,31.5-60.1,49.4c3-32.9,17.1-66.1-21.1-91.1c-0.9-0.6-2.6-1.3-3.3-1.2
	c56.6,41.6-14.2,108.5,29.9,152.2c0.9-2.6,5.3-8,8.1-10.1c-8.6-9.8-12-20.1-12.9-31.4c2.2-28.1,34.9-26.4,53.6-51.7
	C159.9,70.5,161.3,60.2,161.3,60.2z"/>
</svg>
