<svg enable-background="new 0 0 402.2 193.3" viewBox="0 0 402.2 193.3" xmlns="http://www.w3.org/2000/svg"><g fill="#6d251d"><path d="m193.7 70.1c0-2.3 0-4.3-.2-6.2 1-.3 2.5-.6 3.9-.7h12.5c-.1 1.3-.6 2.2-1.2 2.7-.6.3-1.7.3-3.9.3h-6.8v10.4h11.5c-.5 2.6-1.4 3-3 3h-8.4v11.2c1 .3 3.6.4 5.9.4 2.2 0 5.4 0 7.3-.2v.1c-.3 1.5-1.1 2.5-2.3 3-.6.1-2.4.2-5.9.2-4 0-7.5-.2-8.7-.5l-.7-.9z"/><path d="m221.4 71.9c1.8 0 3.8.5 5 1.7.1.9-.5 2.3-1.6 2.2-1-.5-2.4-.9-3.6-.9-1.9 0-3.3 1.1-3.3 2.8 0 1.4 1 2.3 2.1 2.9 1.3.7 2.9 1.4 4.4 2.3 2.2 1.2 3.2 3 3.2 4.9 0 4.7-4.1 6.8-8 6.8-2.4 0-4.4-.7-5.5-1.6-.4-.4-.6-.9-.5-1.4.1-.7.4-1.4 1-1.7 1.4 1 3.4 1.7 5.3 1.7 2.4 0 3.7-1.3 3.7-2.9 0-1.2-.7-2.1-2.4-3-1.3-.7-2.5-1.2-3.7-1.9-2.1-1.1-3.5-2.8-3.5-5.4-.1-4.1 3.4-6.5 7.4-6.5z"/><path d="m247.6 90.4c-.1 1.1-.5 2.3-1.3 2.9-1.1.7-3.2 1.2-5.3 1.2-5 0-11.1-2.4-11.1-11 0-6.8 5.1-11.6 11.8-11.6 3.2 0 5.5 1.1 6.2 1.8 0 1.1-.6 2.4-1.8 2.3-1.3-.6-3-1-4.5-1-4.3 0-7.3 3.2-7.3 8.1 0 6.4 4.6 8.2 8 8.2 1.8 0 3.9-.4 5.2-1z"/><path d="m260.2 71.9c6.9 0 10.5 4.9 10.5 11.1 0 6.5-4.2 11.6-10.8 11.6-7.2 0-10.7-5.3-10.7-11.1-.1-6.5 4.4-11.6 11-11.6zm-.5 2.7c-3.3 0-6.2 2.9-6.2 8.3 0 6 3 9 6.6 9 3 0 6-2.5 6-8.5.1-4.6-1.9-8.8-6.4-8.8z"/><path d="m273.9 66.7c0-2.9-.1-4.4-.2-5.4 1-.5 2.9-.7 3.7-.7.5 0 .7.2.7 3.2v23.7c0 2.4.1 5.1.2 6.4-.9.3-3.1.4-3.7.4-.4 0-.7-.1-.7-.6z"/><path d="m299.5 91.5c0 2-1.1 3.1-3.2 3.1s-3.1-1.5-3.4-3.1c-1.4 1.5-3.7 3.1-6.3 3.1-3.4 0-5.7-2.6-5.7-5.6 0-5.3 6.9-6.7 9.5-7.3.9-.2 1.8-.4 2.5-.5v-1.5c0-2.3-1.3-4.5-4.3-4.5-1.8 0-3.7.9-5 1.8-1.3.5-2-.6-2.1-1.8 1.6-1.4 4.8-3.3 8.1-3.3 4.9 0 7.3 3.5 7.3 8.2 0 2.1-.1 6.8-.1 9.8 0 1 .6 1.6 1.7 1.6.2 0 .6 0 .9-.1zm-14.5-3.1c0 1.8 1.5 2.9 3.2 2.9 2.1 0 3.5-1.3 4.2-2.3.2-.3.3-.8.3-1.6v-3.8c-3.9.6-7.7 2-7.7 4.8z"/><path d="m197.4 103.6c.7 0 .9.6 2.2 4 1.6 4.4 4.7 12.5 8.2 21.9 3.1-8.5 6.6-17.4 9.7-25.9 1 0 2.2.2 2.7.5.7.2.8.7.4 1.9-3.5 9.3-7.3 18.2-11 27.2-.3.7-.6 1.2-1 1.4-.4.3-1.6.5-2.9.5-3.8-9.8-7.8-20.7-12.2-30.5 1.1-.5 2.8-1 3.9-1z"/><path d="m225.2 102.4c1.3 0 2.2 1 2.2 2.4 0 1.3-.9 2.5-2.4 2.5-1.3 0-2.4-.8-2.4-2.4 0-1.7 1.5-2.5 2.6-2.5zm1.9 30.9c0 .9-.3 1.1-1 1.2-.6.2-1.9.2-3.2.3.1-2 .2-4.9.2-7.7v-8.4c0-3-.1-4.5-.2-5.5.8-.3 2.9-.5 3.6-.5.5 0 .7.2.7 3.1v17.5z"/><path d="m231.9 107.2c0-2.9-.1-4.4-.2-5.4 1-.4 2.9-.7 3.7-.7.5 0 .7.3.7 3.2v23.7c0 2.4.1 5.1.2 6.4-.9.2-3.1.4-3.7.4-.4 0-.6-.2-.6-.6v-27z"/><path d="m257.5 132c0 2-1.1 3-3.1 3-2.1 0-3.2-1.5-3.5-3.1-1.4 1.5-3.7 3.1-6.3 3.1-3.4 0-5.7-2.6-5.7-5.5 0-5.3 6.9-6.7 9.5-7.3.9-.2 1.8-.4 2.4-.5v-1.5c0-2.3-1.3-4.5-4.3-4.5-1.8 0-3.7.9-5 1.8-1.3.5-2-.6-2.1-1.8 1.6-1.4 4.8-3.3 8.1-3.3 4.9 0 7.3 3.5 7.3 8.2 0 2.1-.2 6.8-.1 9.8.1 1 .6 1.6 1.7 1.6.3 0 .7 0 1-.1zm-14.5-3.1c0 1.8 1.5 2.9 3.3 2.9 2.1 0 3.5-1.3 4.2-2.3.2-.3.4-.8.4-1.6v-3.8c-4.1.6-7.9 2-7.9 4.8z"/><path d="m275.8 124.9c-1.7 4-3.3 7.6-4.1 9.3-.2.4-.5.6-1.1.6-.8 0-2.2-.3-2.9-.6v-.2c2.8-6 11-24.7 12.6-28.5l-.6-1.4c1.1-.2 2.7-.5 3.3-.5s.9.3 1.1.8c2.3 5.2 6.5 15.7 8.5 20.2 2 4.6 3.3 7.7 4.1 9.5v.2c-1 .4-2.9.5-3.7.5-.6 0-1-.3-1.5-1.5-1.1-2.6-1.9-4.5-3.5-8.4zm11.3-3c-2.7-6.7-4.4-10.8-5.1-12.5-1.7 4-3.3 7.9-5.2 12.5z"/><path d="m300 107.2c0-2.9-.1-4.4-.2-5.4 1-.4 2.9-.7 3.6-.7.5 0 .7.3.7 3.2v23.7c0 2.4.1 5.1.2 6.4-.9.2-3.1.4-3.7.4-.5 0-.6-.2-.6-.6z"/><path d="m312.3 143.5c0 .8-.1 1-.9 1.2-1.2.1-2.1.2-3.3.2.1-1.4.2-4.2.2-8.6v-19.3c0-1.6-.3-2.5-.9-2.8v-.2c.5-.7 1.7-1.7 2.8-1.7s1.9 1.3 2 3.2c2.9-2.2 5.4-3.2 7.6-3.2 4.3 0 8.7 3.3 8.7 10.4 0 7.3-5.2 12.2-11.6 12.2-1.7 0-3.4-.5-4.5-1.2v9.8zm0-12.4c1 .6 2.6 1.1 4.2 1.1 3 0 7.5-2.1 7.5-8.9 0-4.5-2.6-7.5-6-7.5-2.4 0-4.7 1.5-5.7 2.3z"/><path d="m335.8 115.7c2-1.7 4.4-3.3 7.3-3.3 5.5 0 7.1 4.4 7.1 9.1v6.7c0 3.1 0 5.1.1 6.2-.9.2-2.2.4-3.6.4-.5 0-.7-.3-.7-.8 0-2 .1-8 .1-12.2 0-4.5-2.1-6-4.7-6-2.5 0-4.6 1.6-5.6 2.6v15c0 .8-.2 1.1-.9 1.2-1.1.2-2.3.2-3.3.2.1-1.8.1-4.7.1-9v-18.5c0-2.9-.1-4.5-.2-5.5 1.3-.4 2.9-.7 3.6-.7.5 0 .7.3.7 3.2z"/><path d="m372.3 132c.1 2-1.1 3-3.1 3-2.1 0-3.1-1.5-3.4-3.1-1.4 1.5-3.7 3.1-6.3 3.1-3.4 0-5.7-2.6-5.7-5.5 0-5.3 6.9-6.7 9.5-7.3.9-.2 1.8-.4 2.5-.5v-1.5c0-2.3-1.3-4.5-4.3-4.5-1.8 0-3.7.9-5 1.8-1.3.5-2-.6-2.1-1.8 1.6-1.4 4.8-3.3 8.1-3.3 5 0 7.3 3.5 7.3 8.2 0 2.1-.1 6.8-.1 9.8 0 1 .6 1.6 1.7 1.6.3 0 .6 0 .9-.1zm-14.4-3.1c0 1.8 1.5 2.9 3.2 2.9 2.1 0 3.5-1.3 4.2-2.3.2-.3.4-.8.4-1.6v-3.8c-4 .6-7.8 2-7.8 4.8z"/></g><path d="m106.1 94.3c-24.3-20.7-72.4-32.9-72.4-32.9l1.2 72.2s56.6 11.8 71 34v.1s0 0 0-.1c14.5-22.2 71-34 71-34l1.2-72.2c.3.1-47.7 12.2-72 32.9z" fill="#98bc5c"/><path d="m106.1 88.7c-20.3-22.3-60.4-35.5-60.4-35.5l1 78.1s47.2 12.8 59.3 36.8v.2-.1c12.1-24 59.3-36.8 59.3-36.8l1-78.1c.1-.1-39.9 13.1-60.2 35.4z" fill="#bad869"/><path d="m105.4 103.2c.1.1-.8 3.5-.7 3.6 64.3-24.6 52.8-50 57.3-56.3 0 0-2.2 3.1-7.1 5.7-14 7.3-49.5-3.5-58.8 29.1v.1c-8.4 58.1 40.4-11.9 52.7-18.3 1.2-.5 2.4-1.2 3.6-1.9-.1.1-.2.3-.4.4-11.8 10.5-43.2 6.7-48.9 35.9-.2.6-.3 1.3-.4 2 0 .1-.1.2-.1.4-.2 1.3-.4 2.6-.5 4.1-.1 1-.1 1.9-.1 3 0 .2 3.1-5.4 3.4-7.8z" fill="#6a8b41"/><path d="m100.9 116.5c.5-.1 1.1-.2 1.6-.2.1-.6.1-1.4 0-2.6-.2-2.9 6.3-6.3 7.8-7 60.5-28.4 51.8-58.9 51.8-58.9s-3.4 4.3-8.2 6.9c-14 7.3-50.1-4.3-59.4 28.2v.1c-.4 1.3-.7 2.6-1 4-1.5 6.2.6 21.5 2 23.6 0 0 4.8.3 4.8.3.6.7-3.9-8.3-.8-17.8 8.2-25.5 35.4-22 47.8-28.4 1.2-.5 2.5-1.2 3.7-1.9-.1.1-.2.3-.4.4-11.8 10.5-43.2 6.7-48.9 36-.2.6-.3 1.3-.4 2 0 .1-.1.2-.1.4-.2 1.3-.4 2.6-.5 4.1 0 1-.1 1.9-.1 3 0 .4-.1 2.4-.1 2.9.1 2.5-.3 3.4-.8 3.4.3.4.8 1 1.2 1.5z" fill="#98bc5c"/><path d="m95.4 109.5c.1 0 3.3 3.3 3.4 3.3 18.8-77.2-13.5-84.8-17-93.6 0 0 1.8 4.3.7 10.6-3 18.1-43 42.1-14.4 74.7 0 0 0 .1.1.1 57.6 50.8 18.8-45.3 21.4-61.2.3-1.5.6-3.1.8-4.7 0 .2.1.5.1.6 2.3 18.4-26.7 44 1.2 70.8l1.9 1.9.3.3c1.2 1.2 2.6 2.3 4.1 3.5 1 .8 2.1 1.6 3.2 2.3.5.4-3.4-6.6-5.8-8.6z" fill="#6a8b41"/><path d="m91.3 112.9c.9.8 1.9 1.5 3 2.3.4.3 2.4 1.9 2.8 2.2 2.6 1.7 3.3 2.7 2.9 3.2 1.1.1 2.1.1 2.8 0 .3-.5.6-1.1 1-1.6-.5-.5-1.3-1.1-2.6-1.9-3.1-1.9-1.9-10-1.5-11.8 14.7-73.3-22.9-87.9-22.9-87.9s2 6.1 1.1 12.2c-2.7 17.4-40.8 40.4-14.2 72.1 0 0 0 0 .1.1 1 1.2 2.1 2.5 3.4 3.8 5.2 5.8 22.5 15.1 25.7 15.4 0 0 3.7-4 3.8-4 1.2-.1-3.9 5.7-18.7-12.5-20.7-25.3 3-46.5 5.3-62 .3-1.4.6-3 .7-4.6 0 .2.1.4.1.6 2.2 17.9-24.5 42.5 1.4 68.7.5.6 1.1 1.2 1.7 1.8l.3.3" fill="#98bc5c"/><path d="m161.3 60.2c-5.5 23.9-41.5 31.5-60.1 49.4 3-32.9 17.1-66.1-21.1-91.1-.9-.6-2.6-1.3-3.3-1.2 56.6 41.6-14.2 108.5 29.9 152.2.9-2.6 5.3-8 8.1-10.1-8.6-9.8-12-20.1-12.9-31.4 2.2-28.1 34.9-26.4 53.6-51.7 4.4-5.8 5.8-16.1 5.8-16.1z" fill="#6d251d"/></svg>