<svg id="Layer_1" data-name="Layer 1" xmlns="http://www.w3.org/2000/svg" viewBox="0 0 512 512"><defs><style>.cls-1{fill:#ffca3a;}.cls-2{fill:#fcc56b;}.cls-3{fill:#7f184c;}.cls-4{fill:#2d1e2f;}</style></defs><title>error</title><circle class="cls-1" cx="256" cy="256" r="245.99"/><path class="cls-2" d="M308.71,465.68c-135.85,0-246-110.14-246-246A245.33,245.33,0,0,1,144.17,36.84,246,246,0,0,0,10,256c0,135.86,110.13,246,246,246a245.1,245.1,0,0,0,164.55-63.15A244.89,244.89,0,0,1,308.71,465.68Z"/><path class="cls-3" d="M367.91,417.24H248.46a10,10,0,0,1,0-20H367.91a10,10,0,1,1,0,20Z"/><path class="cls-3" d="M221.09,314.25c-24.34,0-46.33-6.23-58.82-16.66a10,10,0,0,1,12.82-15.36c8.74,7.29,26.79,12,46,12,18.75,0,37-4.81,46.63-12.24A10,10,0,0,1,280,297.82C266.71,308.11,244.7,314.25,221.09,314.25Z"/><path class="cls-3" d="M394.67,314.25c-24.33,0-46.32-6.23-58.81-16.66a10,10,0,0,1,12.82-15.36c8.74,7.29,26.79,12,46,12,18.74,0,37-4.81,46.62-12.24a10,10,0,0,1,12.27,15.82C440.3,308.11,418.28,314.25,394.67,314.25Z"/><path class="cls-3" d="M173.69,263a38.75,38.75,0,0,1-10.26-1.27,10,10,0,1,1,5.33-19.29c4.93,1.36,15,.4,26.52-4.81,11.25-5.09,18.88-12.31,21.46-17.19a10,10,0,1,1,17.7,9.33c-5.24,9.95-16.79,19.7-30.89,26.09C193.25,260.58,182.71,263,173.69,263Z"/><path class="cls-3" d="M439.49,263c-9,0-19.55-2.46-29.86-7.14-14.1-6.39-25.65-16.14-30.89-26.09a10,10,0,1,1,17.7-9.33c2.58,4.88,10.21,12.1,21.45,17.19,11.49,5.21,21.6,6.17,26.52,4.81a10,10,0,1,1,5.34,19.29A38.75,38.75,0,0,1,439.49,263Z"/><path class="cls-4" d="M355.56,20.08a10,10,0,0,0-7.79,18.44A235.65,235.65,0,0,1,492,256c0,130.12-105.87,236-236,236S20,386.12,20,256,125.88,20,256,20a10,10,0,1,0,0-20C114.84,0,0,114.84,0,256S114.84,512,256,512,512,397.16,512,256A255.65,255.65,0,0,0,355.56,20.08Z"/><path class="cls-4" d="M248.46,397.22a10,10,0,0,0,0,20H367.91a10,10,0,1,0,0-20Z"/><path class="cls-4" d="M175.1,282.23a10,10,0,1,0-12.83,15.36c12.49,10.43,34.48,16.66,58.82,16.66,23.61,0,45.62-6.14,58.89-16.43A10,10,0,0,0,267.71,282c-9.58,7.43-27.88,12.24-46.62,12.24C201.88,294.24,183.83,289.52,175.1,282.23Z"/><path class="cls-4" d="M335.86,297.59c12.49,10.43,34.48,16.66,58.81,16.66,23.61,0,45.63-6.14,58.89-16.43A10,10,0,1,0,441.3,282c-9.58,7.43-27.88,12.24-46.63,12.24-19.2,0-37.25-4.72-46-12a10,10,0,0,0-12.82,15.36Z"/><path class="cls-4" d="M173.69,263c9,0,19.55-2.46,29.86-7.14,14.1-6.39,25.65-16.14,30.89-26.08a10,10,0,0,0-17.7-9.34c-2.58,4.89-10.21,12.1-21.46,17.2-11.48,5.21-21.59,6.17-26.52,4.8a10,10,0,0,0-5.34,19.29A38.88,38.88,0,0,0,173.69,263Z"/><path class="cls-4" d="M409.63,255.9c10.31,4.68,20.84,7.14,29.86,7.14a38.88,38.88,0,0,0,10.27-1.27,10,10,0,0,0-5.34-19.29c-4.93,1.36-15,.41-26.53-4.8-11.24-5.1-18.87-12.31-21.44-17.2a10,10,0,0,0-17.71,9.34C384,239.76,395.53,249.51,409.63,255.9Z"/><circle class="cls-4" cx="319.1" cy="18.84" r="10.01"/></svg>