<svg xmlns="http://www.w3.org/2000/svg" viewBox="0 0 632.85 245.17"><defs><style>.cls-1{fill:#6d251d;}.cls-2{fill:#98bc5c;}.cls-3{fill:#bad869;}.cls-4{fill:#6a8b41;}</style></defs><title>Asset 2</title><g id="Layer_2" data-name="Layer 2"><g id="Layer_1-2" data-name="Layer 1"><path class="cls-1" d="M475.72,116.32c-8.35,0-10.07,11.67-16.17,11.67-3.32,0-5.57-2.57-5.57-8.25C454,99.07,473,86.33,473,72.29c0-4.92-2.78-8-7-8-3.1,0-5.78,2-7.82,5.14-2.78-5.35-7.49-10.82-16.06-10.82-15.53,0-27.53,15-27.53,34.39,0,16.7,8.46,25.49,17.57,25.49,5.57,0,10-2,12.74-6-1.71,20.78,10.5,28.7,19.5,28.7,12.42,0,19.17-8.35,19.17-15.74C483.65,119.85,480.11,116.32,475.72,116.32ZM445.84,104a9.88,9.88,0,0,1-6.75,2.25c-5.46,0-10-5.25-10-14.68,0-10.49,5-21.42,15.42-21.42a10.66,10.66,0,0,1,9.75,6.54C451.41,85.47,448.3,95.22,445.84,104Z"/><path class="cls-1" d="M377,27.2c0,5.46,3.64,7.93,7.07,7.93,5.67,0,6.32-5.89,10.82-5.89,2.67,0,4.07,2.78,4.07,7,0,13.49-12.21,32.35-12.21,48.41,0,7,2.67,12.32,9,12.32C403,96.93,410,84.72,410,52.8c0-27-7.61-37.27-19.82-37.27C381.68,15.53,377,21.42,377,27.2Z"/><path class="cls-1" d="M359.3,46.27c0,4.07,3.64,7.92,9.53,7.92,6.75,0,10.28-3.85,10.28-9.32,0-4.07-2.78-7.81-9.1-7.81C364.12,37.06,359.3,40.8,359.3,46.27Z"/><path class="cls-1" d="M353.3,84.08C353.3,104.75,363.47,116,377,116c7,0,11.46-4,11.46-8.67,0-3.54-2.36-5.46-4.5-5.46-4.28,0-6.21,4.6-10.5,4.6-3.21,0-5.46-2.78-5.46-7.07,0-10.07,7.18-18.31,7.18-28.17,0-5.25-2-10-8.25-10C360.26,61.26,353.3,68,353.3,84.08Z"/><path class="cls-1" d="M257,70.58c0,6.64,3.32,10.71,8.89,10.71,14,0,7-25.6,17.35-25.6,2.57,0,3.86,1.61,3.86,5.68,0,15.32-17.89,25.92-17.89,43.16,0,13.18,10.39,22.07,26.45,22.07,32.46,0,50.13-36.2,50.13-63.09,0-15.74-6.1-24.95-14.67-24.95-5.68,0-11.68,4-11.68,11.67,0,10,10.07,18,10.07,33.85,0,19-14.57,33.09-27.53,33.09-7.39,0-13-4.6-13-13.39,0-13.81,13.71-20.13,13.71-35,0-9.32-5.35-18.85-20.67-18.85C267.18,49.91,257,58.91,257,70.58Z"/><path class="cls-1" d="M575.87,180.15c0-12.64,6.32-19.06,14.35-19.06a12.47,12.47,0,0,1,8.35,2.89,76.23,76.23,0,0,0-2.46,17.35,44.77,44.77,0,0,0,2.57,15c-1.18,2.57-4.92,3.53-8,3.53C582,199.86,575.87,191.61,575.87,180.15Zm-15,4.82c0,16.6,10.29,27.53,24.74,27.53,7.5,0,14.25-4.07,16.29-10.18a18.19,18.19,0,0,0,14.35,6.43c9.21,0,16.6-6.86,16.6-13.92,0-4.61-2.79-7.61-6.53-7.61-7.29,0-7,11-14,11-3.32,0-6-2.57-6-7.92,0-17.14,13.92-24.85,13.92-36.21,0-4.6-2.89-7.81-7.28-7.81-5.25,0-9.11,4-11.78,9.64-2.68-2.47-7.18-4.29-13.07-4.29C574.69,151.66,560.87,163.23,560.87,185Zm-79-82.58c0,5.89,3.64,9.53,7.49,9.53,7.82,0,8.36-10,14.79-10,3.74,0,5.46,3.54,5.46,12.53,0,40.92-17.57,60.73-17.57,77.87,0,7.93,4.29,12.21,9.86,12.21,6.42,0,10.81-4.71,10.81-14.56,0-20.78,6.32-36.85,19.07-36.85,4.82,0,7.28,3.11,7.28,7,0,10.18-13.81,15.75-13.81,29.46,0,9.53,7.92,13.92,16,13.92,8.67,0,12-4.93,12-9.32,0-4.6-2.14-7-7-7-3.86,0-5.78-2.57-5.78-5.35,0-9.11,15.63-15.11,15.63-30.32,0-6.21-4.71-13.06-14.46-13.06-10.6,0-19.7,6.42-26.13,12.64a124.3,124.3,0,0,0,5-36.31c0-16-7-28.92-20.56-28.92C489.32,85.9,481.83,93.07,481.83,102.39ZM446.48,192c0-16.82,7.82-28.49,16.6-28.49,5.36,0,7.82,3.86,7.82,9.53,0,14.89-9.64,25-24,27.64C446.7,198.15,446.48,195.25,446.48,192ZM430.2,203c0,20.67,10.82,42.2,25.92,42.2,5.46,0,10-3.54,10-8.47,0-10.6-12.64-7.17-16.92-25.7,19.39-3.32,35.56-18,35.56-37.17,0-11.24-5.78-22.38-20.24-22.38C446.48,151.45,430.2,170.08,430.2,203Zm-45.95-70.8c0,6.1,4.71,9.42,8.57,9.42,7.07,0,8.89-7.28,14-7.28,2.89,0,4.82,2.68,4.82,9.32,0,22.49-13.92,34-13.92,50,0,7.17,4.6,11.46,10,11.46,9.85,0,15.85-11.57,15.85-42.2,0-18.21-4.07-44.45-23.78-44.45C390.57,118.46,384.25,124.67,384.25,132.17ZM313.78,167.8c0,5.51,5.14,10,11.68,10s11.49-4.49,11.49-10c0-5.69-5.05-10-11.49-10S313.78,162.11,313.78,167.8Zm-23.46,21.67c0,21.74,7.6,28.81,16.06,28.81,7.5,0,12.86-5.35,12.86-13.39,0-11.56-11-21.1-11-37.7,0-18.31,13.17-34.7,32.56-34.7,6.1,0,11.89,3.85,11.89,12.32,0,14.67-14.14,23.35-14.14,39.63,0,11.14,6.64,21.85,22,21.85,15.86,0,29.46-11.36,29.46-24.42,0-7.5-4.07-10.5-8.68-10.5-13.39,0-8.57,22.81-20.24,22.81-4.18,0-6.86-3.42-6.86-8.46,0-14.14,20.25-22.06,20.25-40.59,0-15.53-13.82-22.82-27.21-22.82C311.85,122.31,290.32,158.19,290.32,189.47Z"/><path class="cls-2" d="M109.37,115c-29.83-24-81.51-39.71-97-44A3.47,3.47,0,0,0,8,74.33l1.65,96a3.47,3.47,0,0,0,2.7,3.33c14.12,3.24,80.61,19.78,99.11,48.15V222s.07-.06.07-.09a0,0,0,0,0,0,0v0c18.49-28.38,85-44.92,99.11-48.16a3.48,3.48,0,0,0,2.7-3.33l1.66-96A3.47,3.47,0,0,0,210.61,71c-15.44,4.32-67,20-96.88,44A3.49,3.49,0,0,1,109.37,115Z"/><path class="cls-3" d="M109.54,106.62C84.61,80.75,41.65,63.86,28.77,59.19a2.76,2.76,0,0,0-3.7,2.64l1.41,105.84a2.74,2.74,0,0,0,2,2.61c11.21,3.31,67.45,21.21,83,52.11v.23c0-.05.07-.08.07-.11a0,0,0,0,0,0,0v-.07c15.56-30.93,71.79-48.83,83-52.14a2.76,2.76,0,0,0,2-2.61l1.41-105.81a2.76,2.76,0,0,0-3.7-2.64c-12.87,4.66-55.75,21.53-80.72,47.36A2.76,2.76,0,0,1,109.54,106.62Z"/><path class="cls-4" d="M110.57,129.53c.12.11-1.15,5-1,5.14,92.1-35.26,75.66-71.54,82.07-80.61,0,0-3.1,4.49-10.13,8.14-20.08,10.48-70.91-5-84.26,41.64,0,0-.06,0-.06.07-12.09,83.21,57.83-17,75.54-26.22A52.26,52.26,0,0,0,178,75c-.2.15-.35.38-.58.55-16.88,15.06-61.88,9.62-70,51.49-.21.9-.41,1.88-.6,2.84,0,.18-.08.36-.1.55a50.06,50.06,0,0,0-.73,5.81c-.1,1.37-.18,2.78-.18,4.26C105.77,141.07,110.19,132.93,110.57,129.53Z"/><path class="cls-2" d="M105.09,148.38h0a1.78,1.78,0,0,0,1.53-1.75c0-.58,0-1.27-.08-2.07-.3-4.11,9-9,11.13-10,71.11-33.38,75.47-68.82,74.75-80.46a1.8,1.8,0,0,0-3.08-1.14,38.82,38.82,0,0,1-9.29,7C160,70.42,108.37,53.76,95,100.41c0,0,0,.08,0,.11-.54,1.82-1,3.72-1.42,5.79-2,8.12.35,27.29,2.32,32.67a1.8,1.8,0,0,0,1.58,1.17c1.92.12,5.76.33,5.76.36.93,1-5.54-11.86-1.16-25.49,11.77-36.5,50.72-31.52,68.41-40.75a43.4,43.4,0,0,0,5.23-2.7,7.23,7.23,0,0,1-.56.55c-16.88,15-61.89,9.62-70,51.53-.22.84-.41,1.75-.58,2.72a1.74,1.74,0,0,1-.05.22,2.71,2.71,0,0,0-.09.41c-.3,1.82-.56,3.75-.72,5.82-.07,1.38-.16,2.79-.16,4.25,0,.58-.21,3.51-.18,4.11a10.38,10.38,0,0,1-.41,4.24,1.84,1.84,0,0,0,.19,1.94l.34.41A1.78,1.78,0,0,0,105.09,148.38Z"/><path class="cls-4" d="M96.26,138.57c.2,0,4.68,4.76,4.9,4.73,27-110.59-19.38-121.49-24.34-134,0,0,2.54,6.13,1,15.18-4.34,25.93-61.67,60.26-20.59,107,0,.07,0,.08.08.1C139.86,204.41,84.24,66.75,88,43.94a56.09,56.09,0,0,0,1.16-6.77c0,.31.1.65.15.93C92.66,64.52,51,101.11,91,139.59c.83.86,1.74,1.77,2.68,2.67l.49.49c1.78,1.66,3.7,3.31,5.84,5,1.42,1.12,3,2.24,4.64,3.32C105.22,151.48,99.71,141.44,96.26,138.57Z"/><path class="cls-2" d="M90.45,143.4c1.33,1.08,2.74,2.17,4.26,3.24.58.4,3.41,2.7,4.06,3.12,2.47,1.62,3.74,2.78,4.15,3.58a1.9,1.9,0,0,0,1.61,1.1c.45,0,.89,0,1.29,0a2,2,0,0,0,1.62-1v0a1.91,1.91,0,0,0-.5-2.5c-.62-.46-1.4-1-2.36-1.56-4.43-2.71-2.76-14.35-2.21-17C120,44.88,85.46,15.79,73.46,8.53a1.92,1.92,0,0,0-2.87,2,39.82,39.82,0,0,1,.53,13.36c-3.85,25.14-58.42,58-20.26,103.55,0,0,0,.06.11.09,1.47,1.78,3.07,3.55,4.89,5.42,7,7.78,28.93,19.89,35.56,21.81a1.9,1.9,0,0,0,1.94-.52c1.47-1.55,4.6-4.9,4.65-4.88,1.66-.1-5.52,8.14-26.84-17.84-29.7-36.22,4.29-66.69,7.63-88.82a44.14,44.14,0,0,0,1-6.55,5.59,5.59,0,0,1,.16.91c3.2,25.63-35.07,60.91,2,98.38.77.85,1.61,1.72,2.51,2.6.12.17.3.31.44.48"/><path class="cls-1" d="M186.62,78.44c-14.49,25.77-56.53,37-80.55,58.8a.79.79,0,0,1-1.32-.66C109.4,90.13,128.24,43.5,74.32,8.16l0,0a.79.79,0,0,0-.89,1.31C147,68.88,51.08,162,111.53,223.74c.39.39,1.16.32,1.28-.22,1.37-6.25,10.87-13.75,10.58-14.09-11.9-13.77-16.65-28.43-17.88-44.25V165c3.23-40.16,50.07-37.8,76.85-73.95a41.8,41.8,0,0,0,5.71-12A.79.79,0,0,0,186.62,78.44Z"/><path class="cls-1" d="M73.87,8a.76.76,0,0,1,.41.13l0,0c1,.62,1.87,1.24,2.77,1.87-.13-.4-.22-.65-.26-.74a5.74,5.74,0,0,0,.4.83c27.49,19.18,34.52,41.54,34.49,65.32,21.12-14.9,53.42-7.71,68.36-15.48a38.82,38.82,0,0,0,9.29-7,1.75,1.75,0,0,1,1.27-.55,1.8,1.8,0,0,1,1.81,1.69,37.23,37.23,0,0,1-.14,5.92l1.93-.71a2.6,2.6,0,0,1,.94-.17,2.77,2.77,0,0,1,2.76,2.81l-.17,12.91c5.38-1.71,9.81-3,12.84-3.84A3.47,3.47,0,0,1,215,74.39l-1.66,96.05a3.48,3.48,0,0,1-2.7,3.33c-11.91,2.73-61.07,14.92-87.27,35.7-.14.64-9.24,7.94-10.58,14.05a.63.63,0,0,1-.66.47.86.86,0,0,1-.62-.25,74.9,74.9,0,0,1-10.24-13c-25.73-21.6-76.77-34.27-88.94-37.06a3.47,3.47,0,0,1-2.7-3.33L8,74.33a3.48,3.48,0,0,1,3.47-3.54,3.43,3.43,0,0,1,.94.13c3,.84,7.46,2.13,12.83,3.83l-.17-12.92A2.77,2.77,0,0,1,27.83,59a2.6,2.6,0,0,1,.94.17c3.72,1.34,9.94,3.71,17.5,7C55.63,50,69.26,36,71.12,23.92a39.82,39.82,0,0,0-.53-13.36,1.93,1.93,0,0,1,1.89-2.31,1.91,1.91,0,0,1,.73.15.79.79,0,0,1,.66-.4m2.95,1.26v0M73.87,0h0a8.74,8.74,0,0,0-2.18.28,9.93,9.93,0,0,0-8.94,11.85,32,32,0,0,1,.46,10.59c-.9,5.86-6.49,13.77-12.42,22.15-2.58,3.64-5.21,7.37-7.74,11.28-4.79-2-8.76-3.47-11.55-4.48A10.76,10.76,0,0,0,17.07,61.93l0,2-2.53-.72a11.51,11.51,0,0,0-11.28,3A11.42,11.42,0,0,0,0,74.46l1.65,96.05a11.45,11.45,0,0,0,8.91,11c9.85,2.26,59.72,14.43,84.65,34.62a84.25,84.25,0,0,0,10.61,13.22,8.93,8.93,0,0,0,6.33,2.65,8.59,8.59,0,0,0,8.48-6.75c.18-.85,1.33-3.09,6.88-8.49.54-.53,1-1,1.5-1.52,25.34-19.64,73.89-31.48,83.44-33.66a11.46,11.46,0,0,0,8.91-11L223,74.53a11.35,11.35,0,0,0-3.29-8.25,11.53,11.53,0,0,0-8.18-3.43,11.7,11.7,0,0,0-3.1.42l-2.54.72,0-2a10.66,10.66,0,0,0-3.1-7.7,10.77,10.77,0,0,0-2.55-1.91,9.85,9.85,0,0,0-9.65-8,9.72,9.72,0,0,0-7,2.93,30.71,30.71,0,0,1-7.29,5.57c-4.71,2.45-13.28,3.05-22.35,3.7-11.26.8-23.63,1.68-35,6a79.59,79.59,0,0,0-7-25c-6-12.56-15.33-23.35-28.64-32.95a8,8,0,0,0-4.63-3.19l0,0-.13-.08A8.8,8.8,0,0,0,73.87,0Z"/></g></g></svg>