<?xml version="1.0" encoding="utf-8"?>
<!-- Generator: Adobe Illustrator 23.0.3, SVG Export Plug-In . SVG Version: 6.00 Build 0)  -->
<svg version="1.1" id="Layer_1" xmlns="http://www.w3.org/2000/svg" xmlns:xlink="http://www.w3.org/1999/xlink" x="0px" y="0px"
	 viewBox="0 0 463.8 292.2" style="enable-background:new 0 0 463.8 292.2;" xml:space="preserve">
<style type="text/css">
	.st0{fill:#1E102E;}
	.st1{fill:#52BD91;}
</style>
<title>Asset 2</title>
<g>
	<path class="st0" d="M441.7,200.2c-3.4,0-6.3,0.9-8.6,2.1c1.2-2.2,2.6-4.5,4.1-6.8c4-6.3,8.6-13.4,8.6-22.6
		c0-11.5-8.4-20.2-19.6-20.2c-4.2,0-11.1,1.2-17.3,7.9c-3.5-1.1-7.4-1.6-11.5-1.6c-9.4,0-18.6,3.5-26,9.8
		c-0.3-6.2-2.9-12.3-7.2-16.8c-5.2-5.4-12.5-8.3-20.7-8.3c-4.8,0-9.5,0.8-14.3,2.4c0.8-6.9,0.9-13,0.9-18.7
		c0-26.8-14.1-44.7-35-44.7c-9.1,0-17.1,3.2-22.8,8.6c1.7-4.1,2.8-8.5,2.8-13.2c0-11.9-8.1-20.5-19.3-20.5c-2.5,0-4.8,0.5-7.1,1.3
		c-6.8-6.3-14.6-7.9-20.6-7.9c-10,0-19.1,3.8-26.3,10.3c0-1.9,0.1-3.9,0.1-5.9c0-17.2-2.5-30-7.7-38.9C188.4,6.3,179.2,1,167.7,1
		c-7.5,0-14.3,2.6-19.2,7.5c-4.6,4.6-7.3,10.9-7.3,17.3c0,0.1,0,0.3,0,0.4c-9.5,1.1-17.1,7.3-19.6,15.6c-0.2-0.4-0.4-0.7-0.6-1.1
		c-5-8.3-13-13-21.8-13c-6.2,0-12.1,2.2-16.6,6.2c-5.2,4.6-8.1,11.2-8.1,18.5c0,3.4,0.6,6.5,1.5,9.5c-0.2,0.1-0.3,0.2-0.4,0.4
		c-1.4-4.1-3.5-7.8-6.4-10.9c-4.4-4.8-12.6-10.5-26.9-10.5c-10.9,0-20.9,3.4-28.2,9.5C6.3,57,2.1,66.1,2.1,76
		c0,12.4,7,21.4,17.5,23.3c-2,4.9-3.3,10.2-3.3,16.1c0,21.7,17.2,36.8,41.9,36.8c1.5,0,3.1-0.1,4.6-0.2c-0.7,0.9-1.4,1.7-2.1,2.6
		C48,171.3,40.7,192.9,40.7,214c0,14.1,2.4,24.7,7.5,32.3c5.2,7.9,13.2,12.3,22.3,12.3c15.1,0,26.1-11.2,26.1-26.7
		c0-7.7-2.7-14.1-5.5-20.3c1.9,0.1,3.8,0,5.7-0.2c0.6,8.3,3.7,15.9,8.7,21.7c4.7,5.3,13.3,11.6,27.8,11.6c13.7,0,26.2-5.6,34.6-14.3
		c3.7,7.8,11.2,12.9,20.2,12.9c3.9,0,9.9-0.9,15.3-5.6c1.1,11.2,4.5,22.2,9.6,31c7.8,13.6,18.9,21.1,31.3,21.1
		c12.7,0,22.7-9.2,22.7-21c0-11.2-7.1-16.5-11.3-19.6c-1.4-1-2.7-2-3.8-3.1c8.1-3.2,15.4-8,21.3-13.9c1.2-1.2,2.4-2.5,3.5-3.9
		c1,2.5,2.3,4.8,4,6.8c4.2,4.9,10.1,7.5,16.6,7.5c7.7,0,16.3-3.6,20.7-13c5.2,7.3,14.1,11.8,24.9,11.8c9.4,0,15.2-3.5,18.3-6.5
		c0.2-0.1,0.3-0.3,0.5-0.5c1.2,1.8,2.4,3.4,3.9,5c7.3,8,17.5,12.4,28.9,12.4c8.2,0,15.7-2.8,21.2-7.4c4.3,2,9.2,3.1,14.3,3.1
		c16.5,0,30.4-12.5,30.4-27.3C460.5,208.8,452.4,200.2,441.7,200.2z"/>
	<g>
		<path class="st1" d="M267,129.1c-9.7,0-11.7,13.5-18.8,13.5c-3.9,0-6.5-3-6.5-9.6c0-24,22.1-38.8,22.1-55.1c0-5.7-3.2-9.3-8.1-9.3
			c-3.6,0-6.7,2.4-9.1,6c-3.2-6.2-8.7-12.6-18.6-12.6c-18,0-31.9,17.4-31.9,39.9c0,19.4,9.8,29.6,20.4,29.6c6.5,0,11.6-2.4,14.8-7
			c-2,24.1,12.2,33.3,22.6,33.3c14.4,0,22.2-9.7,22.2-18.3C276.2,133.2,272.1,129.1,267,129.1z M232.3,114.8
			c-1.9,1.7-4.7,2.6-7.8,2.6c-6.3,0-11.6-6.1-11.6-17c0-12.2,5.8-24.9,17.9-24.9c5,0,9.4,3.1,11.3,7.6
			C238.8,93.3,235.2,104.6,232.3,114.8z"/>
		<path class="st1" d="M152.4,25.7c0,6.3,4.2,9.2,8.2,9.2c6.6,0,7.3-6.8,12.6-6.8c3.1,0,4.7,3.2,4.7,8.1c0,15.7-14.2,37.5-14.2,56.2
			c0,8.1,3.1,14.3,10.4,14.3c8.5,0,16.5-14.2,16.5-51.2c0-31.3-8.8-43.2-23-43.2C157.9,12.2,152.4,19,152.4,25.7z"/>
		<path class="st1" d="M131.9,47.8c0,4.7,4.2,9.2,11.1,9.2c7.8,0,11.9-4.5,11.9-10.8c0-4.7-3.2-9.1-10.6-9.1
			C137.5,37.2,131.9,41.5,131.9,47.8z"/>
		<path class="st1" d="M125,91.7c0,24,11.8,37,27.5,37c8.1,0,13.3-4.6,13.3-10.1c0-4.1-2.7-6.3-5.2-6.3c-5,0-7.2,5.3-12.2,5.3
			c-3.7,0-6.3-3.2-6.3-8.2c0-11.7,8.3-21.2,8.3-32.7c0-6.1-2.4-11.6-9.6-11.6C133,65.2,125,73.1,125,91.7z"/>
		<path class="st1" d="M13.2,76c0,7.7,3.9,12.4,10.3,12.4c16.3,0,8.1-29.7,20.1-29.7c3,0,4.5,1.9,4.5,6.6
			c0,17.8-20.8,30.1-20.8,50.1c0,15.3,12.1,25.6,30.7,25.6c37.7,0,58.2-42,58.2-73.2c0-18.3-7.1-29-17-29c-6.6,0-13.5,4.6-13.5,13.5
			c0,11.6,11.7,20.9,11.7,39.3c0,22-16.9,38.4-31.9,38.4c-8.6,0-15-5.3-15-15.5c0-16,15.9-23.4,15.9-40.6c0-10.8-6.2-21.9-24-21.9
			C25,52.1,13.2,62.5,13.2,76z"/>
	</g>
	<path class="st1" d="M383.2,203.2c0-14.7,7.3-22.1,16.7-22.1c4.3,0,7.8,1.6,9.7,3.4c-1.6,6.8-2.9,13.5-2.9,20.1
		c0,7.3,1.5,13.2,3,17.4c-1.4,3-5.7,4.1-9.3,4.1C390.3,226,383.2,216.5,383.2,203.2z M365.8,208.8c0,19.3,11.9,31.9,28.7,31.9
		c8.7,0,16.5-4.7,18.9-11.8c4.7,5.6,10.9,7.5,16.7,7.5c10.7,0,19.3-8,19.3-16.2c0-5.3-3.2-8.8-7.6-8.8c-8.5,0-8.1,12.8-16.3,12.8
		c-3.9,0-7-3-7-9.2c0-19.9,16.2-28.8,16.2-42c0-5.3-3.4-9.1-8.5-9.1c-6.1,0-10.6,4.6-13.7,11.2c-3.1-2.9-8.3-5-15.2-5
		C381.8,170.1,365.8,183.5,365.8,208.8z M274.1,113c0,6.8,4.2,11.1,8.7,11.1c9.1,0,9.7-11.6,17.1-11.6c4.3,0,6.3,4.1,6.3,14.5
		c0,47.5-20.4,70.5-20.4,90.3c0,9.2,5,14.2,11.4,14.2c7.5,0,12.6-5.5,12.6-16.9c0-24.1,7.3-42.7,22.1-42.7c5.6,0,8.5,3.6,8.5,8.1
		c0,11.8-16,18.3-16,34.2c0,11.1,9.2,16.2,18.5,16.2c10.1,0,13.9-5.7,13.9-10.8c0-5.3-2.5-8.1-8.1-8.1c-4.5,0-6.7-3-6.7-6.2
		c0-10.6,18.1-17.5,18.1-35.2c0-7.2-5.5-15.2-16.8-15.2c-12.3,0-22.9,7.5-30.3,14.7c5.2-18.5,5.8-31.3,5.8-42.1
		c0-18.5-8.1-33.6-23.9-33.6C282.8,93.8,274.1,102.1,274.1,113z M233.1,217c0-19.5,9.1-33.1,19.3-33.1c6.2,0,9.1,4.5,9.1,11.1
		c0,17.3-11.2,29-27.8,32.1C233.3,224,233.1,220.7,233.1,217z M214.2,229.6c0,24,12.6,49,30.1,49c6.3,0,11.6-4.1,11.6-9.8
		c0-12.3-14.7-8.3-19.6-29.8c22.5-3.9,41.3-20.9,41.3-43.1c0-13-6.7-26-23.5-26C233.1,169.9,214.2,191.5,214.2,229.6z M160.9,147.5
		c0,7.1,5.5,10.9,9.9,10.9c8.2,0,10.3-8.5,16.3-8.5c3.4,0,5.6,3.1,5.6,10.8c0,26.1-16.2,39.4-16.2,58c0,8.3,5.3,13.3,11.6,13.3
		c11.4,0,18.4-13.4,18.4-49c0-21.1-4.7-51.6-27.6-51.6C168.2,131.6,160.9,138.8,160.9,147.5z M79.1,188.8c0,6.4,6,11.6,13.5,11.6
		c7.5,0,13.3-5.2,13.3-11.6c0-6.6-5.9-11.6-13.3-11.6C85.1,177.3,79.1,182.2,79.1,188.8z M51.9,214c0,25.2,8.8,33.4,18.6,33.4
		c8.7,0,14.9-6.2,14.9-15.5c0-13.4-12.8-24.5-12.8-43.7c0-21.2,15.3-40.3,37.8-40.3c7.1,0,13.8,4.5,13.8,14.3
		c0,17-16.4,27.1-16.4,46c0,12.9,7.7,25.4,25.5,25.4c18.4,0,34.2-13.2,34.2-28.3c0-8.7-4.7-12.2-10.1-12.2
		c-15.5,0-9.9,26.5-23.5,26.5c-4.8,0-8-4-8-9.8c0-16.4,23.5-25.6,23.5-47.1c0-18-16-26.5-31.6-26.5C76.9,136.1,51.9,177.7,51.9,214z
		"/>
</g>
</svg>
