<svg id="Layer_1" data-name="Layer 1" xmlns="http://www.w3.org/2000/svg" viewBox="0 0 512 512"><defs><style>.cls-1{fill:#1fcfc1;}.cls-2{fill:#f2f2f2;}.cls-3,.cls-4{fill:#2d1e2f;}.cls-4{opacity:0.1;isolation:isolate;}</style></defs><title>video-play</title><circle class="cls-1" cx="256" cy="256" r="245.8"/><polygon class="cls-2" points="195.82 391.63 376.35 256 195.82 120.37 195.82 391.63"/><path class="cls-3" d="M256,512A256,256,0,0,1,75,75,256,256,0,0,1,437,437,254.33,254.33,0,0,1,256,512Zm0-491.6C126.09,20.4,20.4,126.09,20.4,256S126.09,491.6,256,491.6,491.6,385.91,491.6,256,385.91,20.4,256,20.4Z"/><path class="cls-3" d="M195.82,401.83a10.21,10.21,0,0,1-10.19-10.2V120.37A10.2,10.2,0,0,1,202,112.22L382.48,247.85a10.2,10.2,0,0,1,0,16.3L202,399.78A10.16,10.16,0,0,1,195.82,401.83Zm10.2-261V371.21L359.37,256Z"/><path class="cls-3" d="M256,473.24a10.2,10.2,0,1,1,0-20.39,195.48,195.48,0,0,0,139.63-58.11,10.2,10.2,0,0,1,14.47,14.38A215.73,215.73,0,0,1,256,473.24Z"/><path class="cls-3" d="M430.4,377.83a10.21,10.21,0,0,1-8.58-15.71c1.52-2.36,3-4.79,4.41-7.22a10.2,10.2,0,0,1,17.63,10.26c-1.56,2.68-3.2,5.36-4.87,8A10.2,10.2,0,0,1,430.4,377.83Z"/><path class="cls-4" d="M75,256C75,130.52,168.29,26.84,289.32,10.57A249.18,249.18,0,0,0,256,8.33C119.22,8.33,8.33,119.21,8.33,256S119.22,503.67,256,503.67a249.18,249.18,0,0,0,33.32-2.24C168.29,485.16,75,381.49,75,256Z"/></svg>